<svg id="halkaarzreklamkampanyalarisvg" xmlns="http://www.w3.org/2000/svg" viewBox="0 0 70 50">
    <path d="M18.54,38.27v2.31c0,3.82,3.06,6.92,6.84,6.92s6.84-3.1,6.84-6.92v-2.31M20.81,10.58c0-2.55,2.04-4.61,4.56-4.61s4.56,2.07,4.56,4.61M41.15,8.25l4.17-4.22c.71-.71,1.86-.71,2.57,0l6.52,6.59c.71.72.71,1.88,0,2.6l-4.17,4.22-.91-.92-5.45,5.52.91.92-4.17,4.21c-.71.72-1.86.72-2.57,0l-6.52-6.59c-.71-.72-.71-1.88,0-2.6l4.17-4.21s5.45-5.52,5.45-5.52ZM49.33,16.53l13.41,13.64c1.5,1.51,1.5,3.95,0,5.46s-3.91,1.51-5.41,0l-13.46-13.58" fill="none" stroke="#fff" stroke-linecap="round" stroke-linejoin="round" stroke-width="1.5" />
    <path d="M39.48,33.21c.71,2.12,2.18,3.93,4.14,5.06H7.13c2.52-1.45,4.21-4.01,4.56-6.92v-6.92c.28-5.97,3.78-11.29,9.12-13.85" fill="none" stroke="#fff" stroke-linecap="round" stroke-linejoin="round" stroke-width="1.5" />
</svg>