<svg id="kurumsalkimliksvg" xmlns="http://www.w3.org/2000/svg" viewBox="0 0 70 50">
    <path d="M28.88,25.36v-8.56h6.58c3.49,0,5.53,1.6,5.53,4.16h0c0,2.75-2.4,4.35-5.62,4.35l-6.49.05ZM27.46,33.92c.05.39.4.68.8.63.33-.04.59-.3.63-.63v-7.29h6.3l5.92,7.61c.13.22.37.37.63.38.4-.01.72-.33.74-.73-.01-.18-.09-.36-.22-.49l-5.47-7c3.25-.43,5.64-2.25,5.64-5.43v-.06c0-1.32-.53-2.59-1.46-3.53-1.49-1.31-3.44-1.98-5.42-1.88h-7.39c-.39.01-.7.32-.71.71v17.71Z" fill="#fff" />
    <path d="M17.33,15.09c-5.47,9.76-2,22.11,7.76,27.58,9.76,5.47,22.11,2,27.58-7.76,5.47-9.76,2-22.11-7.76-27.58-7.93-4.45-17.86-3.07-24.27,3.38" fill="none" stroke="#fff" stroke-linecap="round" stroke-linejoin="round" stroke-width="1.5" />
</svg>