<svg id="yatirimcisunumlarisvg" xmlns="http://www.w3.org/2000/svg" viewBox="0 0 70 50">
    <polyline points="6.38 36.68 6.38 4.05 59.69 4.05" fill="none" stroke="#fff" stroke-linecap="round" stroke-linejoin="round" stroke-width="1.22" />
    <line x1="22.08" y1="45.95" x2="47.92" y2="45.95" fill="none" stroke="#fff" stroke-width="1.22" />
    <line x1="35" y1="37.06" x2="35" y2="45.95" fill="none" stroke="#fff" stroke-width="1.22" />
    <polyline points="63.62 4.05 63.62 36.68 10.28 36.68" fill="none" stroke="#fff" stroke-linecap="round" stroke-linejoin="round" stroke-width="1.22" />
    <line x1="39.8" y1="29.02" x2="39.8" y2="23.64" fill="none" stroke="#fff" stroke-linecap="round" stroke-linejoin="round" stroke-width="1.5" />
    <line x1="46.31" y1="29.02" x2="46.31" y2="11.4" fill="none" stroke="#fff" stroke-linecap="round" stroke-linejoin="round" stroke-width="1.5" />
    <line x1="52.83" y1="29.02" x2="52.83" y2="17.52" fill="none" stroke="#fff" stroke-linecap="round" stroke-linejoin="round" stroke-width="1.5" />
    <path d="M34.3,18.66h-7v-7c3.87,0,7,3.13,7,7ZM24.17,14.75v7h7c0,3.87-3.13,7-7,7s-7-3.13-7-7,3.13-7,7-7Z" fill="none" stroke="#fff" stroke-linecap="round" stroke-linejoin="round" stroke-width="1.5" />
</svg>