<svg id="finar" xmlns="http://www.w3.org/2000/svg" viewBox="0 0 576.43 129.76">
	<path d="M30.2,44.31v7.9c0,.42-.42.85-.85.85h-15.52c-.42,0-.85.42-.85.85v7.48c0,.42.42.85.85.85h13.26c.42,0,.85.42.85.85v8.04c0,.42-.42.85-.85.85h-13.12c-.42,0-.85.42-.85.85v13.26c0,.42-.42.85-.85.85H.85c-.42,0-.85-.42-.85-.85v-41.77c0-.42.42-.85.85-.85h28.64c.42,0,.71.28.71.85h0ZM108.09,43.46h-10.02c-.42,0-.85.42-.85.85v23.71c-.42-1.41-1.13-2.82-2.12-3.95l-15.52-20.32c-.28-.14-.42-.28-.71-.28h-10.44c-.42,0-.85.42-.85.85v41.91c0,.42.42.71.85.71h10.02c.42,0,.85-.42.85-.85v-23.14c.42,1.41.99,2.68,1.98,3.67l15.38,19.89c.14.14.28.28.57.28h10.72c.42,0,.85-.28.99-.71v-41.77c0-.42-.42-.85-.85-.85h0ZM200.65,85.65c.28.42.14.85-.28,1.13h-13.54c-.28,0-.56-.14-.71-.42l-6.49-12.98c-.42-.85-1.27-1.27-2.12-1.27h-1.55c-.42,0-.85.42-.85.85v13.12c0,.42-.42.85-.85.85h-11.57c-.42,0-.85-.42-.85-.85v-41.77c0-.42.42-.85.85-.85h17.92c11.57,0,17.36,4.52,17.36,13.41,0,3.81-2.12,8.04-6.49,12.42-.28.28-.28.71-.14.99l9.31,15.38h0ZM184.99,58.28c0-3.67-1.98-5.5-5.93-5.5h-3.1c-.42,0-.85.42-.85.85v9.74c0,.42.42.85.85.85h6.77c.28,0,.57-.28.71-.57.85-1.83,1.27-3.67,1.55-5.36h0ZM157.62,85.65c.14.42,0,.85-.42.99-.19.09-.33.14-.42.14h-13.69c-.42,0-.71-.28-.71-.57l-1.98-7.48c-.14-.28-.42-.56-.71-.56h-10.3c-.28,0-.71.28-.71.56l-2.4,7.48c-.14.28-.42.57-.71.57h-11.99c-.42,0-.85-.28-.85-.85v-.28l15.24-41.77c.14-.28.42-.57.71-.57h13.83c.28,0,.71.28.71.57l14.39,41.77h.01ZM138.29,69.42l-2.82-11.71c-.14-.42-.28-1.13-.42-2.12-.14-.56-.14-1.13-.14-1.69-.14,1.27-.28,2.54-.71,3.81l-3.24,11.71c-.14.42.14.85.57.99h5.93c.42,0,.85-.28.85-.85v-.14h-.02ZM61.25,43.32h-23.7c-.42,0-.85.42-.85.85v7.34c0,.42.42.85.85.85h4.23c.42,0,.85.42.85.85v24.27c0,.42-.42.85-.85.85h-4.52c-.42,0-.85.42-.85.85v6.91c.14.42.42.71.85.71h23.99c.42,0,.71-.28.85-.71v-6.77c0-.42-.42-.85-.85-.85h-4.66c-.42,0-.85-.42-.85-.85v-24.41c0-.42.42-.85.85-.85h4.66c.42,0,.85-.42.85-.85v-7.34c0-.42-.42-.85-.85-.85ZM43.19,39.51h11.85c.42,0,.85-.42.85-.85v-11.01c0-.42-.42-.85-.85-.85h-11.85c-.42,0-.71.42-.85.85v11.01c0,.42.42.85.85.85ZM287.33,41.08v-18.56l-.87-3.13h15.33l2.29,2.29c1.95,1.95,3.72,5.59,3.72,10.15,0,4.97-1.74,8.1-3.68,10.04l-2.29,2.33h-15.36l.87-3.13h-.01ZM291.43,24.47v14.63l-1.08,2.54.21.21,2.12-.8h7.4l1.95.66.24-.21-.76-2.15c1.18-2.19,2.05-3.86,2.05-7.51s-.9-5.39-2.09-7.61l.76-2.12-.24-.24-1.95.7h-7.37l-2.12-.83-.21.24,1.08,2.5h.01ZM319.09,17.1h-3.37v3.58h3.37v-3.58ZM321.59,44.21l2.47-2.81h-6.05l-1.98.66-.21-.17.97-2.4v-15.22h-3.75v16.92l2.99,3.02s5.56,0,5.56,0ZM324.47,40.94l2.22,3.27h1.53v-19.95h-3.75v16.68ZM325.65,17.1h-3.37v3.58h3.37v-3.58ZM346.99,26.38l.17.21-.94,2.36v15.26h3.75v-16.96l-3.02-2.99h-5.87l-2.47,2.81h6.39l1.98-.7h0ZM338.2,27.49l-2.22-3.23h-1.53v19.95h3.75v-16.72ZM361.14,43.51v.24l-.49.31-2.26,6.05h3.41l7.89-21.48v-4.38h-3.34v4.14l-3.34,9.31-.59,3.34h-.35l-.97-5.18-2.5-7.61v-4h-3.75v4.38l5.18,14.42,1.11.45h0ZM383.1,32.56h-7.05l-1.22,1.22c-1.39,1.39-2.43,2.5-2.43,4.69,0,2.54,1.22,3.82,2.43,5.04l.7.7h5.98l2.47-2.81h-6.39l-1.98.66-.21-.17,1.42-3.02-1.15-3.93.17-.21,1.98.66h5.28l1.98-.66.17.21-.94,2.36v3.65l2.19,3.27h1.56v-16.96l-3.02-2.99h-10.46v2.81h8.51l1.98-.7.17.21-.94,2.36v1.7l.94,2.4-.17.17-1.98-.66h0ZM406.73,26.37l.17.21-.94,2.36v15.26h3.75v-16.96l-3.02-2.99h-5.87l-2.47,2.81h6.39l1.98-.7h0ZM394.18,24.25v19.95h3.75v-16.72l-2.22-3.23s-1.53,0-1.53,0ZM419.58,24.25h-3.75v19.95h3.75v-19.95ZM438.35,26.37l.17.21-.94,2.36v15.26h3.75v-16.96l-3.02-2.99h-5.87l-2.47,2.81h6.39l1.98-.7h0ZM429.56,27.48l-2.22-3.23h-1.53v19.95h3.75v-16.72ZM456.91,42.25c-1.74-1.74-2.61-4.17-2.61-8.03,0-3.54,1.39-6.46,2.95-8.03l1.95-1.95h8.31l3.02,2.99v8.17h-11.33l-1.98-.66-.17.17,2.09,4.8-.66,2.15.17.17,1.98-.66h9.17v2.81h-10.95l-1.95-1.95v.02ZM457.05,33.04l.17.21,1.98-.66h6.36l2.15.83.17-.21-1.11-2.54v-1.74l.94-2.36-.17-.21-1.98.7h-4.59l-1.98-.7-.17.21.7,2.19-2.47,4.27h0ZM479.64,27.48l-2.22-3.23h-1.53v19.95h3.75v-16.72ZM488.43,26.37l.17.21-.94,2.36v15.26h3.75v-16.96l-3.02-2.99h-5.87l-2.47,2.81h6.39l1.98-.7h0ZM505.46,44.2h3.75v-19.95h-3.75v19.95ZM505.22,21.4h4.45v-2.78h-4.45v2.78ZM525.72,28.38l-3.34,9.31-.59,3.34h-.35l-.97-5.18-2.5-7.61v-4h-3.75v4.38l5.18,14.42,1.11.45v.24l-.49.31-2.26,6.05h3.41l7.89-21.48v-4.38h-3.34v4.14h0ZM538.13,18.62h-4.45v2.78h4.45v-2.78ZM537.68,44.2v-19.95h-3.75v19.95h3.75ZM302.94,75.86v3.09h4.1v-4.45l-7.78-9.24h-6.64l-1.98.7-.24-.24,1.01-2.4v-4.1l-1.29-2.68.24-.24,2.26,1.01h6.98l2.09-.8.21.24-1.15,2.54v6.92l4.24-2.88c.14-.49.24-1.32.24-1.91,0-2.92-1.04-4.66-2.54-6.15l-1.11-1.11h-15.15l.87,3.13v21.68h4.1v-8.55l-1.01-2.43.24-.21,1.98.7h3.96l1.88-.83.21.24-.76,1.91,5.04,6.08v-.02ZM325.84,61.99l-3.02-2.99h-10.46v2.81h8.51l1.98-.7.17.21-.94,2.36v1.7l.94,2.4-.17.17-1.98-.66h-7.05l-1.22,1.22c-1.39,1.39-2.43,2.5-2.43,4.69,0,2.54,1.22,3.82,2.43,5.04l.7.7h5.98l2.47-2.81h-6.39l-1.98.66-.21-.17,1.42-3.02-1.15-3.93.17-.21,1.98.66h5.28l1.98-.66.17.21-.94,2.36v3.65l2.19,3.27h1.56v-16.96h0ZM345.93,77c1.53-1.56,2.95-4.17,2.95-8.03,0-3.54-1.42-6.5-2.95-8.03l-1.95-1.95h-5.49l-2.47,2.81h6.19l1.98-.7.17.21-.7,2.22c.8,1.49,1.32,2.95,1.32,5.42s-.52,3.89-1.32,5.39l.7,2.26-.17.17-1.98-.66h-5.28l-1.98.66-.21-.17.97-2.36v-12.02l-2.22-3.23h-1.53v25.85h3.75v-3.96l-.97-2.4.21-.21,1.98.66h7.05l1.95-1.95v.02ZM368.17,60.95c1.56,1.53,2.99,4.48,2.99,8.03,0,3.86-1.42,6.46-2.99,8.03l-1.95,1.95h-8.41l-1.95-1.95c-1.53-1.56-2.95-4.17-2.95-8.03,0-3.54,1.42-6.5,2.95-8.03l1.95-1.95h8.41s1.95,1.95,1.95,1.95ZM365.91,74.36c.83-1.49,1.36-2.95,1.36-5.39s-.52-3.93-1.36-5.42l.73-2.22-.21-.21-1.98.7h-4.87l-1.98-.7-.17.21.7,2.22c-.8,1.49-1.32,2.95-1.32,5.42s.52,3.89,1.32,5.39l-.7,2.26.17.17,1.98-.66h4.87l1.98.66.21-.17-.73-2.26ZM376.27,78.95h3.75v-16.72l-2.22-3.23h-1.53v19.95ZM380.47,62.06h7.09v-3.06h-4.41l-2.68,3.06ZM391.59,78.95h3.75v-27.11h-3.75v27.11ZM415.64,61.99l-3.02-2.99h-10.46v2.81h8.51l1.98-.7.17.21-.94,2.36v1.7l.94,2.4-.17.17-1.98-.66h-7.05l-1.22,1.22c-1.39,1.39-2.43,2.5-2.43,4.69,0,2.54,1.22,3.82,2.43,5.04l.7.7h5.98l2.47-2.81h-6.39l-1.98.66-.21-.17,1.42-3.02-1.15-3.93.17-.21,1.98.66h5.28l1.98-.66.17.21-.94,2.36v3.65l2.19,3.27h1.56v-16.96h0ZM443.86,61.33l-.94,2.36v15.26h3.75v-16.96l-3.02-2.99h-4.66l-2.47,2.81h5.18l1.98-.7.17.21h0ZM432.98,61.12l.21.21-.8,2.02v15.6h3.75v-17.06l-3.44-2.88h-4.41l-2.47,2.81h5.14l2.02-.7ZM421.76,59v19.95h3.75v-16.72l-2.22-3.23s-1.53,0-1.53,0ZM453.38,59v2.81h8.51l1.98-.7.17.21-.94,2.36v1.7l.94,2.4-.17.17-1.98-.66h-7.05l-1.22,1.22c-1.39,1.39-2.43,2.5-2.43,4.69,0,2.54,1.22,3.82,2.43,5.04l.7.7h5.98l2.47-2.81h-6.39l-1.98.66-.21-.17,1.42-3.02-1.15-3.93.17-.21,1.98.66h5.28l1.98-.66.17.21-.94,2.36v3.65l2.19,3.27h1.56v-16.96l-3.02-2.99h-10.46,0ZM493.83,78.95v-3.65l-.56-1.46.35-1.32-.24-.17-1.46.49h-8.58l-1.42-.49-.24.17.42,1.67-.52,1.46v3.3h-3.68v-4l7.44-20.82h4.87l7.75,20.64v4.17h-4.13ZM492.79,70.23l-1.56-2.22-2.4-6.71-.9-4.48h-.42l-.63,3.41-2.71,7.78-1.63,2.22.17.24,2.29-.7h5.32l2.29.7.17-.24h0ZM502.35,56.16h4.41v-2.78h-4.41v2.78ZM502.59,79.65l.94,2.36-.17.21-1.98-.7h-3.79v2.81h5.73l3.02-2.99v-22.34h-3.75v20.64h0ZM513.15,59.01v2.81h8.51l1.98-.7.17.21-.94,2.36v1.7l.94,2.4-.17.17-1.98-.66h-7.05l-1.22,1.22c-1.39,1.39-2.43,2.5-2.43,4.69,0,2.54,1.22,3.82,2.43,5.04l.7.7h5.98l2.47-2.81h-6.39l-1.98.66-.21-.17,1.42-3.02-1.15-3.93.17-.21,1.98.66h5.28l1.98-.66.17.21-.94,2.36v3.65l2.19,3.27h1.56v-16.96l-3.02-2.99h-10.46.01ZM539.39,59.01l-2.47,2.81h6.39l1.98-.7.17.21-.94,2.36v15.26h3.75v-16.96l-3.02-2.99h-5.87.01ZM532.75,59.01v19.95h3.75v-16.72l-2.22-3.23s-1.53,0-1.53,0ZM564.06,67.21l-5.59-.7-2.05.83-.17-.21,1.15-2.88-.87-2.92.17-.21,1.98.7h8.06v-2.81h-9.87l-1.22,1.22c-1.29,1.29-2.36,2.57-2.36,4.34,0,2.02.97,3.34,2.36,4.73l.73.73,5.8.73,2.02-.83.17.21-.7,3.41,1.04,3.09-.21.17-1.98-.66h-9v2.81h11.09l.73-.73c1.22-1.25,2.43-2.64,2.43-5.11,0-2.02-1.11-3.34-2.43-4.66l-1.29-1.25h.01ZM572.68,59.01v19.95h3.75v-19.95h-3.75ZM287,109.18l-.22-.34,2.74-2.32,4.92-5.4v-3.88l-1.46-1.46h-6.92v1.52h5.42l1.34-.34.18.18-.32,1.34v1.08l.26,1.34-.16.16-.56.08-6.58,7.24v1.68h9.46v-1.6h-6.3l-1.8.72h0ZM307.36,95.78l1.46,1.46v11.36l-1.46,1.46h-6.68l-1.46-1.46v-11.36l1.46-1.46h6.68ZM307.06,107.36v-8.88l.32-1.34-.18-.18-1.34.34h-3.68l-1.34-.34-.18.18.32,1.34v8.88l-.32,1.34.18.18,1.34-.34h3.68l1.34.34.18-.18-.32-1.34ZM318.94,108.84l-.18-.18.32-1.34v-11.54h-.52l-4.74,2.08v1.7l3.06-1.4.8-.66.22.1-.58,2.28v7.44l.32,1.34-.18.18-1.34-.3h-2.7v1.52h8.94v-1.52h-2.08l-1.34.3h0ZM335.7,105.56h1.22v1.52h-1.2l-1.3-.26-.16.16.26,1.3v1.78h-1.76v-1.8l.26-1.28-.16-.16-1.3.26h-5.78l-.5-1.88,7.42-9.42h1.82v8.62l-.26,1.26.16.16,1.28-.26h0ZM332.76,104.42v-5.24l.5-1.98-.38-.12-1.14,2.12-3.96,5.1-1.22,1.28.14.3,1.68-.32h3.18l1.3.26.16-.16-.26-1.24h0ZM358.96,109.18l-.22-.34,2.74-2.32,4.92-5.4v-3.88l-1.46-1.46h-6.92v1.52h5.42l1.34-.34.18.18-.32,1.34v1.08l.26,1.34-.16.16-.56.08-6.58,7.24v1.68h9.46v-1.6h-6.3l-1.8.72h0ZM379.32,95.78l1.46,1.46v11.36l-1.46,1.46h-6.68l-1.46-1.46v-11.36l1.46-1.46h6.68ZM379.02,107.36v-8.88l.32-1.34-.18-.18-1.34.34h-3.68l-1.34-.34-.18.18.32,1.34v8.88l-.32,1.34.18.18,1.34-.34h3.68l1.34.34.18-.18-.32-1.34ZM390.9,108.84l-.18-.18.32-1.34v-11.54h-.52l-4.74,2.08v1.7l3.06-1.4.8-.66.22.1-.58,2.28v7.44l.32,1.34-.18.18-1.34-.3h-2.7v1.52h8.94v-1.52h-2.08l-1.34.3h0ZM399.62,95.78l-1.48,1.46v5.62l1.46,1.46h4.44l1.44-1.52h-4.38l-1.3.3-.18-.18.28-1.3v-3.14l-.28-1.3.18-.18,1.3.3h3.48l1.3-.3.18.18-.28,1.3v8.88l.28,1.3-.18.18-1.3-.3h-6.2v1.52h7.7l1.46-1.46v-11.36l-1.46-1.46h-6.46ZM430.68,109.18l-.22-.34,2.74-2.32,4.92-5.4v-3.88l-1.46-1.46h-6.92v1.52h5.42l1.34-.34.18.18-.32,1.34v1.08l.26,1.34-.16.16-.56.08-6.58,7.24v1.68h9.46v-1.6h-6.3l-1.8.72h0ZM451.04,95.78l1.46,1.46v11.36l-1.46,1.46h-6.68l-1.46-1.46v-11.36l1.46-1.46h6.68ZM450.74,107.36v-8.88l.32-1.34-.18-.18-1.34.34h-3.68l-1.34-.34-.18.18.32,1.34v8.88l-.32,1.34.18.18,1.34-.34h3.68l1.34.34.18-.18-.32-1.34ZM457.88,109.18l-.22-.34,2.74-2.32,4.92-5.4v-3.88l-1.46-1.46h-6.92v1.52h5.42l1.34-.34.18.18-.32,1.34v1.08l.26,1.34-.16.16-.56.08-6.58,7.24v1.68h9.46v-1.6h-6.3l-1.8.72h0ZM479.38,105.56h1.22v1.52h-1.2l-1.3-.26-.16.16.26,1.3v1.78h-1.76v-1.8l.26-1.28-.16-.16-1.3.26h-5.78l-.5-1.88,7.42-9.42h1.82v8.62l-.26,1.26.16.16,1.28-.26h0ZM476.44,104.42v-5.24l.5-1.98-.38-.12-1.14,2.12-3.96,5.1-1.22,1.28.14.3,1.68-.32h3.18l1.3.26.16-.16-.26-1.24h0ZM350.58,103.09l-.76-2.13-1.8,1.72-.92.29v-.96l1.03-2.28h-2.28l1.03,2.28v.96l-.92-.29-1.8-1.72-.76,2.13,2.5-.22.9.33-.57.78-2.13,1.29,1.85,1.31.47-2.46.59-.8.58.8.47,2.46,1.85-1.31-2.13-1.29-.57-.78.9-.33,2.5.22h-.03ZM422.29,103.09l-.76-2.13-1.8,1.72-.92.29v-.96l1.03-2.28h-2.28l1.03,2.28v.96l-.92-.29-1.8-1.72-.76,2.13,2.5-.22.9.33-.57.78-2.13,1.29,1.85,1.31.47-2.46.6-.8.58.8.47,2.46,1.85-1.31-2.13-1.29-.57-.78.9-.33,2.5.22h-.04ZM263.44,99.68c-1.02,1.26-2.1,2.51-3.25,3.73-.57.61-1.18,1.21-1.77,1.81-.58.59-1.17,1.17-1.79,1.75-2.11,1.97-3.51,4.47-3.91,7.22l-2.6,3.56c-.65-1.39-1.4-2.76-1.98-4.16l-1.73-4.19c.24-1.48.39-2.94.76-4.41,2.33-3.29,4.58-6.4,4.98-11.37.03-1.21.11-4,.2-6.78.02-1.39,0-2.77-.12-3.95-.1-1.18-.18-2.15-.48-2.73l-.05.12c-.71,1.91-1.42,3.82-2.12,5.7-.37.94-.76,1.87-1.17,2.8-.42.93-.86,1.85-1.23,2.75-1.4,3.22-1.97,7.04-1.03,10.96l-.9,4.1-2.38-6.97c-.75-2.33-1.29-4.67-1.94-7.01l.03-.04-.05-.03c-.16-.65-.37-1.29-.5-1.94l-.38-1.95,2.26-2.81c1.41-.82,2.83-1.64,4.1-2.66,1.27-1.03,2.53-2.27,3.46-3.94.49-.85,1.47-2.84,2.38-4.84,1-2.01,1.84-4.03,1.75-5.01l-.07.08c-1.11,1.25-2.28,2.47-3.49,3.65-.61.59-1.23,1.17-1.86,1.75-.6.57-1.2,1.13-1.83,1.68-2.11,1.86-3.8,4.34-4.64,7.15l-2.44,3.01c-.27-1.49-.64-2.98-.82-4.48l-.56-4.49c.63-1.44,1.24-2.87,2.01-4.3,3.21-3.06,6.35-5.95,8.14-10.83.2-.59.51-1.58.85-2.76.38-1.18.87-2.55,1.27-3.92.41-1.37.77-2.74.98-3.91.29-1.17.44-2.14.32-2.73l-.08.12c-.63.92-1.27,1.83-1.9,2.74-.59.91-1.2,1.82-1.82,2.72-1.23,1.8-2.64,3.56-3.96,5.29-2.26,3.07-3.95,6.8-4.11,10.75l-2.04,3.98-.26-4.65c-.08-1.55-.21-3.1-.14-4.65.07-3.1,0-6.2.36-9.29l3.47-2.97c3.2-1.39,6.6-2.74,9.4-5.88.35-.4.92-1.07,1.58-1.87.32-.4.67-.84,1.04-1.3.38-.46.78-.93,1.17-1.4,1.55-1.9,2.95-3.83,3.12-4.8l-.09.07c-2.88,2.28-5.99,4.43-9.16,6.38-2.63,1.67-4.91,3.97-6.64,6.67-1.29,1.04-2.48,2.09-3.73,3.15.1-1.07.16-2.14.3-3.21l.5-3.2,3.08-4.1c1.99-1.39,4.02-2.74,5.87-4.33.93-.79,1.81-1.65,2.64-2.6.83-.95,1.71-1.99,2.46-3.17.37-.57.95-1.52,1.61-2.66.32-.57.68-1.19,1.04-1.83.39-.64.79-1.3,1.19-1.96,1.61-2.64,2.89-5.3,3.03-6.48l-.11.11c-1.72,1.73-3.32,3.45-5.09,5.12-1.78,1.66-3.54,3.31-5.28,4.93-1.57,1.43-2.99,3.04-4.23,4.77-1.15,1.74-2.03,3.61-2.73,5.55-1.04,1.25-2.11,2.51-3.03,3.78.21-1.72.7-3.42,1.06-5.13.42-1.7.71-3.42,1.23-5.11.86-1.79,1.71-3.58,2.53-5.4.2-.45.4-.91.61-1.36.23-.45.46-.91.69-1.37.44-.92.88-1.84,1.33-2.77.87-1.87,1.62-3.78,2.55-5.73.89-1.96,1.64-3.99,2.42-6.09.93-2.28,1.73-4.52,2.25-6.59.54-2.07.9-3.95.79-5.52-1.17,1.61-2.38,3.21-3.52,4.83-7.11,9.7-11.08,20.83-11.25,30.57l-1.62,7.04c-.31,1.17-.43,2.35-.63,3.53l-.55,3.53-1.63-4.06c0-2.01.03-3.97-.27-5.85-.26-1.88-.87-3.69-1.5-5.37-.72-1.88-1.33-3.84-1.84-5.84-.12-.5-.24-1.01-.36-1.52-.1-.51-.16-1.01-.24-1.52-.14-1.02-.26-2.05-.36-3.1v-.13c-1.91,2.36-2.43,11.77-2.16,14.3.21,2.63,1,4.74,2.08,6.58,1.18,1.85,2.65,3.43,4.08,5.02l.88,2.18c.28.73.59,1.45.95,2.17l-.55,6.45-3.14-3.37c-.53-1.42-1.22-2.77-2.05-4.01-.78-1.24-1.65-2.37-2.69-3.36-1.21-1.16-2.35-2.4-3.42-3.7-.53-.65-1.08-1.32-1.55-2s-.92-1.37-1.35-2.07l-.06-.09c-.14.53-.1,1.35.06,2.32.21.97.56,2.07.94,3.17.77,2.19,1.71,4.32,2.15,5.21,1.98,3.55,5,5.15,8,6.72l1.47,1.58,1.57,1.57c0,3.11-.22,6.22.06,9.33l.26,4.66c.14,1.55.37,3.1.55,4.65l-2.75-3.89c-.4-1.99-.96-3.93-1.78-5.78-.4-.92-.88-1.82-1.35-2.69-.45-.87-.95-1.71-1.5-2.51-1.23-1.81-2.41-3.69-3.44-5.64-.93-1.95-1.79-3.95-2.56-6l-.05-.13c-.5,1.24-.45,4.2,0,7.16.54,2.96,1.28,5.9,1.65,7.16,1.89,5.18,5.38,8.1,9.2,11.01l2.96,4.17c.27,1.96.74,3.91,1.09,5.87l-.03.04.04.03c.21,1.02.38,2.04.62,3.06-1.22-.89-2.38-1.79-3.58-2.7-1.81-2.73-4.32-5.08-6.83-6.87-1.52-1.05-2.99-2.17-4.42-3.37-1.4-1.2-2.88-2.46-4.09-3.77l-.08-.08c-.04,1.07,1.26,3.23,2.61,5.33,1.38,2.1,2.86,4.12,3.66,4.96,2.96,3.34,6.39,4.66,9.79,5.97,1.1.84,2.31,1.66,3.46,2.48l1.21,4.51.3,1.13.38,1.12.76,2.24,1.53,4.48,1.84,4.45-3.81-3.62c-1-1.93-2.07-3.81-3.4-5.56-.66-.88-1.36-1.73-2.11-2.54-.71-.82-1.42-1.61-2.2-2.36-1.73-1.69-3.4-3.46-5-5.29-1.48-1.85-2.88-3.76-4.22-5.72l-.09-.13c-.09.63.11,1.68.47,2.93.39,1.25.82,2.71,1.55,4.15,1.36,2.88,2.91,5.73,3.65,6.94,3.33,4.97,7.63,7.56,12.22,10.13l4.1,3.89c1.29,2.79,2.69,5.56,4.04,8.34l-5.55-2.46c-2.76-2.38-6.22-4.35-9.68-5.77-4.08-1.64-8.09-3.6-11.83-5.8l-.12-.07c.27,1,2.29,2.91,4.4,4.73,2.14,1.82,4.36,3.57,5.48,4.27,4.28,2.85,8.67,3.7,13.02,4.55,1.68.76,3.47,1.5,5.23,2.23l2.94,5.2c.21.37.68.62,1.06.55.38-.07.51-.42.3-.78l-2.68-4.75-1.33-2.38-1.17-2.4,2.39-3.31c1.51-.93,3.04-1.85,4.35-2.95,1.36-1.11,2.53-2.4,3.27-4.06.38-.83,1.11-2.78,1.71-4.73.7-1.96,1.2-3.9.84-4.79l-.07.08h-.02Z" fill="currentColor" />
</svg>