<svg id="finar" xmlns="http://www.w3.org/2000/svg" viewBox="0 0 142.3 42.6">
    <path d="M21.4,12.4v5.6c0,.3-.3.6-.6.6h-11c-.3,0-.6.3-.6.6v5.3c0,.3.3.6.6.6h9.4c.3,0,.6.3.6.6v5.7c0,.3-.3.6-.6.6h-9.3c-.3,0-.6.3-.6.6v9.4c0,.3-.3.6-.6.6H.6c-.3,0-.6-.3-.6-.6h0V12.4c0-.3.3-.6.6-.6h20.3c.3,0,.5.2.5.6q0-.1,0,0h0Z" fill="#00b3e3" stroke-width="0" />
    <path d="M76.5,42.5h-7.6c-.2,0-.3-.1-.4-.2l-10.9-14.1c-.7-.7-1.1-1.6-1.4-2.6v16.4c0,.3-.3.6-.6.6h-7.1c-.3,0-.6-.2-.6-.5h0V12.4c0-.3.3-.6.6-.6h7.4c.2,0,.3.1.5.2l11,14.4c.7.8,1.2,1.8,1.5,2.8V12.4c0-.3.3-.6.6-.6h7.1c.3,0,.6.3.6.6v29.6c-.1.3-.4.5-.7.5h0Z" fill="#00b3e3" stroke-width="0" />
    <path d="M111.7,41.7l-10.2-29.6c0-.2-.3-.4-.5-.4h-9.8c-.2,0-.4.2-.5.4l-10.8,29.6v.2c0,.4.3.6.6.6h8.5c.2,0,.4-.2.5-.4l1.7-5.3c0-.2.3-.4.5-.4h7.3c.2,0,.4.2.5.4l1.4,5.3c0,.2.2.4.5.4h9.7q.1,0,.3-.1c.3-.1.4-.4.3-.7ZM98,30.3c0,.4-.3.6-.6.6h-4.2c-.3-.1-.5-.4-.4-.7l2.3-8.3c.3-.9.4-1.8.5-2.7,0,.4,0,.8.1,1.2.1.7.2,1.2.3,1.5l2,8.3v.1Z" fill="#00b3e3" stroke-width="0" />
    <path d="M142.2,41.7l-6.6-10.9c-.1-.2-.1-.5.1-.7,3.1-3.1,4.6-6.1,4.6-8.8,0-6.3-4.1-9.5-12.3-9.5h-12.7c-.3,0-.6.3-.6.6v29.6c0,.3.3.6.6.6h8.2c.3,0,.6-.3.6-.6v-9.3c0-.3.3-.6.6-.6h1.1c.6,0,1.2.3,1.5.9l4.6,9.2c.1.2.3.3.5.3h9.6c.3-.2.4-.5.2-.8ZM130,26.1c-.1.2-.3.4-.5.4h-4.8c-.3,0-.6-.3-.6-.6v-6.9c0-.3.3-.6.6-.6h2.2c2.8,0,4.2,1.3,4.2,3.9-.2,1.2-.5,2.5-1.1,3.8Z" fill="#00b3e3" stroke-width="0" />
    <path d="M43.4,42.5h-17c-.3,0-.5-.2-.6-.5h0v-4.9c0-.3.3-.6.6-.6h3.2c.3,0,.6-.3.6-.6h0v-17.2c0-.3-.3-.6-.6-.6h-3c-.3,0-.6-.3-.6-.6v-5.2c0-.3.3-.6.6-.6h16.8c.3,0,.6.3.6.6h0v5.2c0,.3-.3.6-.6.6h-3.3c-.3,0-.6.3-.6.6h0v17.3c0,.3.3.6.6.6h3.3c.3,0,.6.3.6.6h0v4.8c-.1.3-.3.5-.6.5ZM30.6,0h8.4c.3,0,.6.3.6.6v7.8c0,.3-.3.6-.6.6h-8.4c-.3,0-.6-.3-.6-.6V.6c.1-.3.3-.6.6-.6Z" fill="#00b3e3" stroke-width="0" />
</svg>
