<svg id="finar" xmlns="http://www.w3.org/2000/svg" viewBox="0 0 532 113.89">
	<path d="M184.98,50.34c0-3.67-1.98-5.5-5.93-5.5h-3.1c-.42,0-.85.42-.85.85v9.74c0,.42.42.85.85.85h6.77c.28,0,.57-.28.71-.57.85-1.83,1.27-3.67,1.55-5.36M200.08,78.84h-13.26c-.28,0-.56-.14-.7-.42l-6.49-12.98c-.42-.85-1.27-1.27-2.12-1.27h-1.55c-.42,0-.85.42-.85.85v13.12c0,.42-.42.85-.85.85h-11.57c-.42,0-.85-.42-.85-.85v-41.76c0-.42.42-.85.85-.85h17.92c11.57,0,17.36,4.52,17.36,13.4,0,3.81-2.12,8.04-6.49,12.42-.28.28-.28.71-.14.99l9.31,15.38c.28.42.14.85-.28,1.13h-.28ZM137.43,62.47c.42,0,.85-.28.85-.85v-.14l-2.82-11.71c-.14-.42-.28-1.13-.42-2.12-.14-.56-.14-1.13-.14-1.69-.14,1.27-.28,2.54-.71,3.81l-3.24,11.71c-.14.42.14.85.56.99h5.93ZM156.76,78.84h-13.69c-.42,0-.71-.28-.71-.57l-1.98-7.48c-.14-.28-.42-.56-.71-.56h-10.3c-.28,0-.71.28-.71.56l-2.4,7.48c-.14.28-.42.57-.71.57h-11.99c-.42,0-.85-.28-.85-.85v-.28l15.24-41.77c.14-.28.42-.57.71-.57h13.83c.28,0,.71.28.71.57l14.39,41.77c.14.42,0,.85-.42.99q-.28.14-.42.14M107.94,78.84h-10.72c-.28,0-.42-.14-.57-.28l-15.38-19.89c-.99-.99-1.55-2.26-1.98-3.67v23.14c0,.42-.42.85-.85.85h-10.02c-.42,0-.85-.28-.85-.71v-41.91c0-.42.42-.85.85-.85h10.44c.28,0,.42.14.71.28l15.52,20.32c.99,1.13,1.69,2.54,2.12,3.95v-23.7c0-.42.42-.85.85-.85h10.02c.42,0,.85.42.85.85v41.76c-.14.42-.57.71-.99.71M61.24,78.84h-23.99c-.42,0-.71-.28-.85-.71v-6.91c0-.42.42-.85.85-.85h4.52c.42,0,.85-.42.85-.85v-24.27c0-.42-.42-.85-.85-.85h-4.23c-.42,0-.85-.42-.85-.85v-7.34c0-.42.42-.85.85-.85h23.7c.42,0,.85.42.85.85v7.34c0,.42-.42.85-.85.85h-4.66c-.42,0-.85.42-.85.85v24.41c0,.42.42.85.85.85h4.66c.42,0,.85.42.85.85v6.77c-.14.42-.42.71-.85.71M30.19,36.37v7.9c0,.42-.42.85-.85.85h-15.52c-.42,0-.85.42-.85.85v7.48c0,.42.42.85.85.85h13.26c.42,0,.85.42.85.85v8.04c0,.42-.42.85-.85.85h-13.12c-.42,0-.85.42-.85.85v13.26c0,.42-.42.85-.85.85H.85c-.42,0-.85-.42-.85-.85v-41.76c0-.42.42-.85.85-.85h28.64c.42,0,.71.28.71.85q0-.14,0,0" fill="currentColor" />
	<path d="M43.18,18.87h11.85c.42,0,.85.42.85.85v11.01c0,.42-.42.85-.85.85h-11.85c-.42,0-.85-.42-.85-.85v-11.01c.14-.42.42-.85.85-.85" fill="currentColor" />
	<polygon points="277.61 96.6 285.92 96.6 285.92 95.2 280.39 95.2 278.81 95.83 278.61 95.53 281.02 93.49 285.34 88.75 285.34 85.35 284.06 84.06 277.98 84.06 277.98 85.4 282.74 85.4 283.92 85.1 284.07 85.26 283.79 86.43 283.79 87.38 284.02 88.56 283.88 88.7 283.39 88.77 277.61 95.12 277.61 96.6" fill="currentColor" />
	<path d="M290.8,95.41l.28-1.18v-7.79l-.28-1.18.16-.16,1.18.3h3.23l1.18-.3.16.16-.28,1.18v7.79l.28,1.18-.16.16-1.18-.3h-3.23l-1.18.3-.16-.16ZM289.53,95.32l1.28,1.28h5.86l1.28-1.28v-9.97l-1.28-1.28h-5.86l-1.28,1.28v9.97Z" fill="currentColor" />
	<polygon points="302 96.6 309.85 96.6 309.85 95.27 308.02 95.27 306.84 95.53 306.69 95.37 306.97 94.19 306.97 84.06 306.51 84.06 302.35 85.89 302.35 87.38 305.04 86.15 305.74 85.57 305.93 85.66 305.42 87.66 305.42 94.19 305.7 95.37 305.54 95.53 304.37 95.27 302 95.27 302 96.6" fill="currentColor" />
	<path d="M313.66,92.93l-.12-.26,1.07-1.12,3.48-4.48,1-1.86.33.11-.44,1.74v4.6l.23,1.09-.14.14-1.14-.23h-2.79l-1.47.28ZM312.85,93.98h5.07l1.14-.23.14.14-.23,1.12v1.58h1.54v-1.56l-.23-1.14.14-.14,1.14.23h1.05v-1.33h-1.07l-1.12.23-.14-.14.23-1.11v-7.57h-1.6l-6.51,8.27.44,1.65Z" fill="currentColor" />
	<polygon points="340.78 96.6 349.08 96.6 349.08 95.2 343.55 95.2 341.97 95.83 341.78 95.53 344.18 93.49 348.5 88.75 348.5 85.35 347.22 84.06 341.15 84.06 341.15 85.4 345.9 85.4 347.08 85.1 347.24 85.26 346.96 86.43 346.96 87.38 347.19 88.56 347.05 88.7 346.55 88.77 340.78 95.12 340.78 96.6" fill="currentColor" />
	<path d="M353.96,95.41l.28-1.18v-7.79l-.28-1.18.16-.16,1.18.3h3.23l1.18-.3.16.16-.28,1.18v7.79l.28,1.18-.16.16-1.18-.3h-3.23l-1.18.3-.16-.16ZM352.7,95.32l1.28,1.28h5.86l1.28-1.28v-9.97l-1.28-1.28h-5.86l-1.28,1.28v9.97Z" fill="currentColor" />
	<polygon points="365.16 96.6 373.01 96.6 373.01 95.27 371.18 95.27 370.01 95.53 369.85 95.37 370.13 94.19 370.13 84.06 369.68 84.06 365.51 85.89 365.51 87.38 368.2 86.15 368.9 85.57 369.1 85.66 368.59 87.66 368.59 94.19 368.87 95.37 368.71 95.53 367.53 95.27 365.16 95.27 365.16 96.6" fill="currentColor" />
	<polygon points="376.57 95.27 376.57 96.6 383.33 96.6 384.61 95.32 384.61 85.35 383.33 84.06 377.66 84.06 376.36 85.35 376.36 90.28 377.65 91.56 381.54 91.56 382.81 90.23 378.96 90.23 377.82 90.49 377.66 90.33 377.91 89.19 377.91 86.43 377.66 85.29 377.82 85.14 378.96 85.4 382.02 85.4 383.16 85.14 383.32 85.29 383.07 86.43 383.07 94.23 383.32 95.37 383.16 95.53 382.02 95.27 376.57 95.27" fill="currentColor" />
	<polygon points="403.73 96.6 412.04 96.6 412.04 95.2 406.51 95.2 404.93 95.83 404.73 95.53 407.14 93.49 411.46 88.75 411.46 85.35 410.18 84.06 404.1 84.06 404.1 85.4 408.86 85.4 410.04 85.1 410.19 85.26 409.91 86.43 409.91 87.38 410.14 88.56 410 88.7 409.51 88.77 403.73 95.12 403.73 96.6" fill="currentColor" />
	<path d="M416.92,95.41l.28-1.18v-7.79l-.28-1.18.16-.16,1.18.3h3.23l1.18-.3.16.16-.28,1.18v7.79l.28,1.18-.16.16-1.18-.3h-3.23l-1.18.3-.16-.16ZM415.65,95.32l1.28,1.28h5.86l1.28-1.28v-9.97l-1.28-1.28h-5.86l-1.28,1.28v9.97Z" fill="currentColor" />
	<polygon points="427.61 96.6 435.91 96.6 435.91 95.2 430.38 95.2 428.8 95.83 428.61 95.53 431.01 93.49 435.33 88.75 435.33 85.35 434.05 84.06 427.98 84.06 427.98 85.4 432.73 85.4 433.91 85.1 434.07 85.26 433.79 86.43 433.79 87.38 434.02 88.56 433.88 88.7 433.38 88.77 427.61 95.12 427.61 96.6" fill="currentColor" />
	<path d="M439.77,92.93l-.12-.26,1.07-1.12,3.48-4.48,1-1.86.33.11-.44,1.74v4.6l.23,1.09-.14.14-1.14-.23h-2.79l-1.47.28ZM438.97,93.98h5.07l1.14-.23.14.14-.23,1.12v1.58h1.54v-1.56l-.23-1.14.14-.14,1.14.23h1.05v-1.33h-1.07l-1.12.23-.14-.14.23-1.11v-7.57h-1.6l-6.51,8.27.44,1.65Z" fill="currentColor" />
	<polygon points="328.96 88.61 330.55 90.13 331.36 90.38 331.36 89.53 330.46 87.53 332.46 87.53 331.56 89.53 331.56 90.38 332.37 90.13 333.95 88.61 334.62 90.49 332.42 90.29 331.63 90.58 332.13 91.26 334 92.39 332.38 93.55 331.97 91.39 331.46 90.68 330.94 91.39 330.53 93.55 328.91 92.39 330.78 91.26 331.28 90.58 330.49 90.29 328.3 90.49 328.96 88.61" fill="currentColor" />
	<polygon points="391.91 88.61 393.49 90.13 394.3 90.38 394.3 89.53 393.4 87.53 395.4 87.53 394.5 89.53 394.5 90.38 395.31 90.13 396.9 88.61 397.56 90.49 395.37 90.29 394.57 90.58 395.08 91.26 396.95 92.39 395.33 93.55 394.92 91.39 394.41 90.68 393.89 91.39 393.48 93.55 391.86 92.39 393.73 91.26 394.23 90.58 393.44 90.29 391.24 90.49 391.91 88.61" fill="currentColor" />
	<path d="M258.13,87.49c-.9,1.11-1.84,2.2-2.85,3.27-.5.53-1.03,1.06-1.56,1.59-.51.52-1.03,1.03-1.57,1.53-1.85,1.73-3.08,3.92-3.44,6.34l-2.28,3.13c-.57-1.22-1.23-2.42-1.74-3.65l-1.52-3.68c.21-1.3.34-2.58.67-3.87,2.05-2.89,4.02-5.62,4.37-9.98.03-1.06.1-3.51.17-5.95.02-1.22,0-2.43-.11-3.46-.09-1.03-.16-1.89-.42-2.39l-.04.11c-.63,1.68-1.25,3.35-1.86,5-.32.82-.67,1.64-1.03,2.46-.37.81-.75,1.62-1.08,2.41-1.22,2.83-1.73,6.18-.9,9.62l-.79,3.6-2.09-6.12c-.66-2.04-1.13-4.1-1.7-6.15l.02-.03-.04-.03c-.14-.57-.32-1.13-.44-1.7l-.34-1.71,1.99-2.47c1.24-.72,2.48-1.44,3.6-2.34s2.22-1.99,3.04-3.46c.43-.74,1.29-2.49,2.09-4.25.88-1.76,1.62-3.54,1.53-4.39l-.06.07c-.98,1.09-2,2.17-3.06,3.21-.53.52-1.08,1.03-1.63,1.53-.52.5-1.06.99-1.61,1.47-1.85,1.64-3.34,3.81-4.07,6.28l-2.14,2.64c-.23-1.31-.56-2.62-.72-3.93l-.49-3.94c.55-1.26,1.09-2.52,1.77-3.77,2.82-2.69,5.57-5.22,7.14-9.51.18-.52.45-1.39.74-2.42.33-1.04.76-2.24,1.11-3.44.36-1.2.67-2.4.86-3.43.25-1.03.39-1.88.28-2.4l-.07.1c-.56.81-1.11,1.61-1.67,2.41-.52.8-1.05,1.59-1.6,2.38-1.08,1.58-2.31,3.13-3.47,4.64-1.98,2.69-3.47,5.97-3.61,9.44l-1.79,3.49-.22-4.08c-.07-1.36-.18-2.72-.12-4.08.06-2.72,0-5.44.31-8.16l3.05-2.61c2.81-1.22,5.8-2.41,8.25-5.17.31-.35.81-.94,1.38-1.64.28-.36.59-.74.91-1.14.34-.4.68-.82,1.03-1.23,1.36-1.67,2.59-3.36,2.74-4.21l-.08.06c-2.53,2-5.25,3.89-8.04,5.6-2.31,1.46-4.31,3.48-5.83,5.86-1.13.91-2.18,1.83-3.27,2.76.09-.94.14-1.88.26-2.82l.44-2.81,2.7-3.6c1.75-1.22,3.53-2.4,5.15-3.8.81-.7,1.59-1.45,2.31-2.28.73-.84,1.5-1.75,2.15-2.78.32-.5.83-1.33,1.42-2.34.28-.5.59-1.04.91-1.61.34-.56.7-1.14,1.05-1.72,1.41-2.32,2.54-4.65,2.66-5.69l-.1.1c-1.51,1.52-2.92,3.03-4.47,4.5-1.56,1.46-3.1,2.9-4.63,4.33-1.38,1.25-2.63,2.66-3.71,4.19-1.01,1.53-1.79,3.17-2.4,4.88-.92,1.1-1.85,2.2-2.66,3.32.19-1.51.61-3,.93-4.5.37-1.5.63-3,1.08-4.49.75-1.57,1.5-3.14,2.22-4.74.18-.4.35-.8.53-1.2.2-.4.4-.8.6-1.2.39-.8.78-1.61,1.17-2.43.76-1.64,1.43-3.32,2.24-5.03.78-1.72,1.44-3.5,2.12-5.35.82-2,1.52-3.97,1.97-5.79.47-1.82.79-3.47.69-4.85-1.03,1.41-2.08,2.82-3.09,4.24-6.24,8.51-9.72,18.28-9.88,26.84l-1.42,6.18c-.27,1.03-.38,2.07-.55,3.1l-.49,3.1-1.43-3.56c0-1.77.02-3.48-.24-5.14-.22-1.65-.76-3.24-1.31-4.71-.63-1.65-1.17-3.37-1.62-5.13-.11-.44-.21-.89-.32-1.33-.09-.45-.14-.89-.21-1.34-.12-.9-.23-1.8-.32-2.72v-.12c-1.68,2.08-2.13,10.33-1.9,12.55.18,2.31.88,4.16,1.82,5.78,1.04,1.62,2.33,3.01,3.58,4.4l.77,1.92c.25.64.51,1.27.83,1.91l-.49,5.66-2.76-2.96c-.46-1.25-1.07-2.43-1.8-3.52-.68-1.09-1.45-2.08-2.36-2.95-1.06-1.02-2.06-2.11-3.01-3.25-.47-.57-.95-1.16-1.36-1.75-.41-.6-.8-1.2-1.19-1.82l-.05-.08c-.12.46-.09,1.19.05,2.03.18.85.49,1.82.83,2.78.68,1.92,1.5,3.79,1.89,4.57,1.74,3.12,4.39,4.52,7.02,5.9l1.29,1.38,1.38,1.37c0,2.73-.19,5.46.05,8.19l.23,4.09c.12,1.36.33,2.72.49,4.09l-2.41-3.41c-.35-1.75-.85-3.45-1.56-5.07-.35-.81-.77-1.6-1.19-2.36-.39-.76-.83-1.5-1.32-2.2-1.08-1.59-2.12-3.24-3.02-4.95-.82-1.71-1.57-3.47-2.25-5.27l-.04-.12c-.44,1.09-.4,3.69,0,6.29.47,2.6,1.12,5.18,1.45,6.28,1.66,4.55,4.73,7.11,8.07,9.66l2.6,3.66c.24,1.72.65,3.43.96,5.15l-.02.03.04.03c.18.89.33,1.79.54,2.68-1.08-.78-2.09-1.57-3.14-2.37-1.59-2.39-3.79-4.46-6-6.03-1.33-.92-2.63-1.91-3.88-2.96-1.23-1.05-2.53-2.15-3.59-3.31l-.07-.07c-.04.94,1.1,2.84,2.29,4.68,1.21,1.84,2.51,3.62,3.22,4.35,2.6,2.93,5.61,4.09,8.6,5.24.97.73,2.03,1.46,3.04,2.18l1.06,3.96.27.99.33.98.67,1.97,1.34,3.93,1.61,3.91-3.34-3.18c-.88-1.7-1.82-3.34-2.99-4.88-.58-.77-1.19-1.52-1.85-2.23-.62-.72-1.25-1.41-1.93-2.07-1.52-1.48-2.98-3.04-4.39-4.65-1.3-1.62-2.52-3.3-3.71-5.02l-.08-.11c-.08.56.1,1.48.41,2.57.34,1.1.72,2.38,1.36,3.64,1.2,2.53,2.55,5.03,3.2,6.09,2.93,4.36,6.7,6.64,10.72,8.89l3.6,3.41c1.13,2.45,2.36,4.88,3.55,7.32l-4.87-2.16c-2.43-2.09-5.46-3.82-8.5-5.06-3.58-1.44-7.1-3.16-10.39-5.09l-.1-.06c.24.88,2.01,2.55,3.86,4.15,1.88,1.6,3.83,3.13,4.81,3.75,3.76,2.5,7.61,3.25,11.43,3.99,1.47.67,3.05,1.32,4.6,1.96l2.58,4.57c.18.32.6.54.93.48.33-.06.45-.37.27-.69l-2.35-4.17-1.17-2.08-1.03-2.1,2.1-2.91c1.33-.82,2.67-1.63,3.81-2.59,1.19-.97,2.22-2.11,2.87-3.56.33-.73.97-2.44,1.5-4.15.61-1.72,1.05-3.43.74-4.21l-.06.07Z" fill="currentColor" />
	<path d="M278.79,36.11v-16.87l-.77-2.84h13.52l2.02,2.09c1.72,1.77,3.28,5.09,3.28,9.23,0,4.52-1.53,7.36-3.25,9.13l-2.02,2.12h-13.55l.77-2.84ZM283.51,36.07h6.53l1.72.6.21-.19-.67-1.96c1.04-1.99,1.81-3.51,1.81-6.82s-.8-4.9-1.84-6.92l.67-1.93-.21-.22-1.72.63h-6.5l-1.87-.76-.18.22.95,2.28v13.3l-.95,2.31.18.19,1.87-.73Z" fill="currentColor" />
	<path d="M301.32,20.81h3.31v13.84l-.86,2.18.18.16,1.75-.6h5.33l-2.18,2.56h-4.91l-2.64-2.75v-15.39ZM303.68,14.3h2.97v3.25h-2.97v-3.25ZM309.47,14.3h2.97v3.25h-2.97v-3.25ZM311.41,20.81h3.31v18.14h-1.35l-1.96-2.97v-15.17Z" fill="currentColor" />
	<path d="M320.05,20.81h1.35l1.96,2.94v15.2h-3.31v-18.14ZM330.44,25.08l.83-2.15-.15-.19-1.75.63h-5.64l2.18-2.56h5.18l2.67,2.72v15.42h-3.31v-13.87Z" fill="currentColor" />
	<path d="M337.88,24.79v-3.98h3.31v3.63l2.21,6.92.86,4.71h.31l.52-3.03,2.94-8.47v-3.76h2.94v3.98l-6.96,19.53h-3l1.99-5.5.43-.28v-.22l-.98-.41-4.57-13.11Z" fill="currentColor" />
	<path d="M353.21,33.74c0-1.99.92-3,2.15-4.27l1.07-1.11h6.22l1.75.6.15-.16-.83-2.18v-1.55l.83-2.15-.15-.19-1.75.63h-7.51v-2.56h9.23l2.67,2.72v15.42h-1.38l-1.93-2.97v-3.32l.83-2.15-.15-.19-1.75.6h-4.66l-1.75-.6-.15.19,1.01,3.57-1.26,2.75.18.16,1.75-.6h5.64l-2.18,2.56h-5.27l-.61-.63c-1.07-1.11-2.15-2.28-2.15-4.58Z" fill="currentColor" />
	<path d="M372.28,20.81h1.35l1.96,2.94v15.2h-3.31v-18.14ZM382.67,25.08l.83-2.15-.15-.19-1.75.63h-5.64l2.18-2.56h5.18l2.67,2.72v15.42h-3.31v-13.87Z" fill="currentColor" />
	<path d="M391.22,20.81h3.31v18.14h-3.31v-18.14Z" fill="currentColor" />
	<path d="M399.86,20.81h1.35l1.96,2.94v15.2h-3.31v-18.14ZM410.26,25.08l.83-2.15-.15-.19-1.75.63h-5.64l2.18-2.56h5.18l2.67,2.72v15.42h-3.31v-13.87Z" fill="currentColor" />
	<path d="M426.16,36.11v-16.87l-.77-2.84h14.01v2.88h-8.52l-1.87-.76-.18.22.95,2.28v3l-.86,2.18.18.22,1.78-.63h7.33v2.88h-7.33l-1.78-.63-.18.19.86,2.21v3.89l-.95,2.31.18.19,1.87-.73h8.95v2.88h-14.44l.77-2.84Z" fill="currentColor" />
	<path d="M444.18,20.81h1.35l1.96,2.94v15.2h-3.31v-18.14ZM454.58,25.08l.83-2.15-.15-.19-1.75.63h-5.64l2.18-2.56h5.18l2.67,2.72v15.42h-3.31v-13.87Z" fill="currentColor" />
	<path d="M470.36,11.52h3.62v3.51h-3.62v-3.51ZM470.36,17.34h3.62v21.61h-3.62v-21.61Z" fill="currentColor" />
	<path d="M478.64,24.79v-3.98h3.31v3.63l2.21,6.92.86,4.71h.31l.52-3.03,2.94-8.47v-3.76h2.94v3.98l-6.96,19.53h-3l1.99-5.5.43-.28v-.22l-.98-.41-4.57-13.11Z" fill="currentColor" />
	<path d="M495.65,15.69h3.92v2.53h-3.92v-2.53ZM495.86,20.81h3.31v18.14h-3.31v-18.14Z" fill="currentColor" />
	<path d="M278.76,49.96l-.77-2.84h13.37l.98,1.01c1.32,1.36,2.24,2.94,2.24,5.59,0,.54-.09,1.3-.21,1.74l-3.74,2.62v-6.29l1.01-2.31-.18-.22-1.84.73h-6.16l-1.99-.92-.21.22,1.13,2.43v3.73l-.89,2.18.21.22,1.75-.63h5.86l6.87,8.4v4.04h-3.62v-2.81l-4.45-5.53.67-1.74-.18-.22-1.66.76h-3.49l-1.75-.63-.21.19.89,2.21v7.77h-3.62v-19.72Z" fill="currentColor" />
	<path d="M298.77,64.46c0-1.99.92-3,2.15-4.27l1.07-1.11h6.22l1.75.6.15-.16-.83-2.18v-1.55l.83-2.15-.15-.19-1.75.63h-7.51v-2.56h9.23l2.67,2.72v15.42h-1.38l-1.93-2.97v-3.32l.83-2.15-.15-.19-1.75.6h-4.66l-1.75-.6-.15.19,1.01,3.57-1.26,2.75.18.16,1.75-.6h5.64l-2.18,2.56h-5.27l-.61-.63c-1.07-1.11-2.15-2.28-2.15-4.58Z" fill="currentColor" />
	<path d="M321.15,71.44v3.6h-3.31v-23.51h1.35l1.96,2.94v10.93l-.86,2.15.18.16,1.75-.6h4.66l1.75.6.15-.16-.61-2.05c.71-1.36,1.16-2.69,1.16-4.9s-.46-3.57-1.16-4.93l.61-2.02-.15-.19-1.75.63h-5.46l2.18-2.56h4.84l1.72,1.77c1.35,1.39,2.61,4.08,2.61,7.3,0,3.51-1.26,5.88-2.61,7.3l-1.72,1.77h-6.22l-1.75-.6-.18.19.86,2.18Z" fill="currentColor" />
	<path d="M336.17,60.6c0-3.22,1.26-5.91,2.61-7.3l1.72-1.77h7.42l1.72,1.77c1.38,1.39,2.64,4.08,2.64,7.3,0,3.51-1.26,5.88-2.64,7.3l-1.72,1.77h-7.42l-1.72-1.77c-1.35-1.42-2.61-3.79-2.61-7.3ZM340.31,67.71l1.75-.6h4.29l1.75.6.18-.16-.64-2.05c.74-1.36,1.2-2.69,1.2-4.9s-.46-3.57-1.2-4.93l.64-2.02-.18-.19-1.75.63h-4.29l-1.75-.63-.15.19.61,2.02c-.7,1.36-1.16,2.69-1.16,4.93s.46,3.54,1.16,4.9l-.61,2.05.15.16Z" fill="currentColor" />
	<path d="M356.61,51.54h1.35l1.96,2.94v15.2h-3.31v-18.14ZM362.68,51.54h3.89v2.78h-6.25l2.36-2.78Z" fill="currentColor" />
	<path d="M369.98,45.03h3.31v24.64h-3.31v-24.64Z" fill="currentColor" />
	<path d="M377.21,64.46c0-1.99.92-3,2.15-4.27l1.07-1.11h6.22l1.75.6.15-.16-.83-2.18v-1.55l.83-2.15-.15-.19-1.75.63h-7.51v-2.56h9.23l2.67,2.72v15.42h-1.38l-1.93-2.97v-3.32l.83-2.15-.15-.19-1.75.6h-4.66l-1.75-.6-.15.19,1.01,3.57-1.26,2.75.18.16,1.75-.6h5.64l-2.18,2.56h-5.27l-.61-.63c-1.07-1.11-2.15-2.28-2.15-4.58Z" fill="currentColor" />
	<path d="M396.28,51.54h1.35l1.96,2.94v15.2h-3.31v-18.14ZM405.66,55.48l.71-1.83-.18-.19-1.78.63h-4.54l2.18-2.56h3.89l3.04,2.62v15.51h-3.31v-14.19ZM414.95,55.8l.83-2.15-.15-.19-1.75.63h-4.57l2.18-2.56h4.11l2.67,2.72v15.42h-3.31v-13.87Z" fill="currentColor" />
	<path d="M422.09,64.46c0-1.99.92-3,2.15-4.27l1.07-1.11h6.22l1.75.6.15-.16-.83-2.18v-1.55l.83-2.15-.15-.19-1.75.63h-7.51v-2.56h9.23l2.67,2.72v15.42h-1.38l-1.93-2.97v-3.32l.83-2.15-.15-.19-1.75.6h-4.66l-1.75-.6-.15.19,1.01,3.57-1.26,2.75.18.16,1.75-.6h5.64l-2.18,2.56h-5.27l-.61-.63c-1.07-1.11-2.15-2.28-2.15-4.58Z" fill="currentColor" />
	<path d="M445.84,66.04l6.56-18.93h4.29l6.84,18.77v3.79h-3.62v-3.32l-.49-1.33.31-1.2-.22-.16-1.29.44h-7.57l-1.26-.44-.22.16.37,1.52-.46,1.33v3h-3.25v-3.63ZM452.12,61.33h4.69l2.02.63.15-.22-1.38-2.02-2.12-6.1-.8-4.08h-.37l-.55,3.1-2.39,7.08-1.44,2.02.15.22,2.02-.63Z" fill="currentColor" />
	<path d="M468.16,72.64l.15-.19-.83-2.15v-18.77h3.31v20.32l-2.67,2.72h-5.06v-2.56h3.34l1.75.63ZM467.27,46.42h3.89v2.53h-3.89v-2.53Z" fill="currentColor" />
	<path d="M474.71,64.46c0-1.99.92-3,2.15-4.27l1.07-1.11h6.22l1.75.6.15-.16-.83-2.18v-1.55l.83-2.15-.15-.19-1.75.63h-7.51v-2.56h9.23l2.67,2.72v15.42h-1.38l-1.93-2.97v-3.32l.83-2.15-.15-.19-1.75.6h-4.66l-1.75-.6-.15.19,1.01,3.57-1.26,2.75.18.16,1.75-.6h5.64l-2.18,2.56h-5.27l-.61-.63c-1.07-1.11-2.15-2.28-2.15-4.58Z" fill="currentColor" />
	<path d="M493.78,51.54h1.35l1.96,2.94v15.2h-3.31v-18.14ZM504.17,55.8l.83-2.15-.15-.19-1.75.63h-5.64l2.18-2.56h5.18l2.67,2.72v15.42h-3.31v-13.87Z" fill="currentColor" />
	<path d="M511.96,67.11h7.94l1.75.6.18-.16-.92-2.81.61-3.1-.15-.19-1.78.76-5.12-.66-.64-.66c-1.23-1.26-2.08-2.46-2.08-4.3,0-1.61.95-2.78,2.08-3.95l1.07-1.11h8.71v2.56h-7.11l-1.75-.63-.15.19.77,2.65-1.01,2.62.15.19,1.81-.76,4.94.63,1.13,1.14c1.16,1.2,2.15,2.4,2.15,4.23,0,2.24-1.07,3.51-2.15,4.64l-.64.66h-9.78v-2.56Z" fill="currentColor" />
	<path d="M528.69,51.54h3.31v18.14h-3.31v-18.14Z" fill="currentColor" />
</svg>
