<svg id="appStoreSvg" data-name="appStoreSvg" xmlns="http://www.w3.org/2000/svg" viewBox="0 0 120.9 42.1" style="height:60px;width:auto;">
	<path id="Rectangle-1" d="M7,0h106.9c3.9,0,7,3.1,7,7v28.1c0,3.9-3.1,7-7,7H7c-3.9,0-7-3.1-7-7V7C0,3.1,3.1,0,7,0Z" />
	<path d="M31,6.1c.5-.1,1.1-.1,1.8-.1,1.2,0,2.1.3,2.7.8.6.5.9,1.3.9,2.4s-.3,2-1,2.6c-.6.6-1.6,1-2.9,1-.6,0-1.1,0-1.6-.1v-6.6h.1ZM31.8,11.9h.9c1.8,0,2.8-1,2.8-2.8,0-1.6-.9-2.6-2.7-2.6-.4,0-.8,0-1,.1v5.3Z" fill="#fff" />
	<path d="M41.9,10.2c0,1.8-1.2,2.5-2.4,2.5-1.3,0-2.3-.9-2.3-2.5s1-2.5,2.4-2.5c1.3.1,2.3,1,2.3,2.5ZM38.1,10.3c0,1,.6,1.8,1.4,1.8s1.4-.8,1.4-1.9c0-.8-.4-1.8-1.4-1.8s-1.4.9-1.4,1.9Z" fill="#fff" />
	<path d="M43.2,7.9l.6,2.4c.1.5.3,1,.4,1.5h0c.1-.5.3-1,.4-1.5l.8-2.4h.7l.7,2.4c.2.6.3,1.1.4,1.6h0c.1-.5.2-1,.4-1.5l.7-2.4h.9l-1.5,4.8h-.8l-.7-2.3c-.2-.5-.3-1-.4-1.6h0c-.1.6-.3,1.1-.4,1.6l-.8,2.3h-.8l-1.4-4.8h.8v-.1Z" fill="#fff" />
	<path d="M50.1,9.2v-1.3h.8v.8h0c.2-.5.8-.9,1.6-.9.7,0,1.7.4,1.7,2v2.8h-.9v-2.7c0-.8-.3-1.4-1.1-1.4-.6,0-1,.4-1.2.9,0,.1,0,.2,0,.4v2.9h-.9v-3.5Z" fill="#fff" />
	<path d="M55.6,5.6h.9v7h-.9v-7Z" fill="#fff" />
	<path d="M62.2,10.2c0,1.8-1.2,2.5-2.4,2.5-1.3,0-2.3-.9-2.3-2.5s1-2.5,2.4-2.5c1.4.1,2.3,1,2.3,2.5ZM58.4,10.3c0,1,.6,1.8,1.4,1.8s1.4-.8,1.4-1.9c0-.8-.4-1.8-1.4-1.8s-1.4.9-1.4,1.9Z" fill="#fff" />
	<path d="M66,12.6l-.1-.6h0c-.3.4-.8.7-1.5.7-1,0-1.5-.7-1.5-1.4,0-1.2,1-1.8,2.9-1.8h0c0-.4-.1-1.1-1.1-1.1-.4,0-.9.1-1.2.4l-.2-.6c.4-.3,1-.4,1.6-.4,1.5,0,1.8,1,1.8,1.9v1.8c0,.4,0,.8.1,1.1,0,0-.8,0-.8,0ZM65.8,10.2c-.9,0-2,.1-2,1.1,0,.6.4.8.8.8.6,0,1-.4,1.2-.8v-1.1Z" fill="#fff" />
	<path d="M72.2,5.6v7h-.8v-.8h0c-.3.5-.8.9-1.6.9-1.2,0-2-1-2-2.4,0-1.6,1-2.6,2.1-2.6.7,0,1.2.3,1.4.7h0v-2.8h.9ZM71.3,9.8v-.4c-.1-.6-.6-1-1.3-1-.9,0-1.4.8-1.4,1.8s.5,1.8,1.4,1.8c.6,0,1.1-.4,1.3-1v-1.2Z" fill="#fff" />
	<path d="M80,10.2c0,1.8-1.2,2.5-2.4,2.5-1.3,0-2.3-.9-2.3-2.5s1-2.5,2.4-2.5c1.4.1,2.3,1,2.3,2.5ZM76.2,10.3c0,1,.6,1.8,1.4,1.8s1.4-.8,1.4-1.9c0-.8-.4-1.8-1.4-1.8s-1.4.9-1.4,1.9Z" fill="#fff" />
	<path d="M81.1,9.2v-1.3h.8v.8h0c.2-.5.8-.9,1.6-.9.7,0,1.7.4,1.7,2v2.8h-.9v-2.7c0-.8-.3-1.4-1.1-1.4-.6,0-1,.4-1.2.9v3.3h-.9v-3.5Z" fill="#fff" />
	<path d="M89.7,6.5v1.4h1.2v.7h-1.2v2.6c0,.6.2.9.6.9.2,0,.4,0,.5-.1v.6c-.2.1-.4.1-.8.1s-.7-.1-.9-.4c-.2-.3-.3-.7-.3-1.2v-2.6h-.7v-.6h.7v-1.2l.9-.2Z" fill="#fff" />
	<path d="M91.9,5.6h.9v3h0c.1-.2.4-.5.6-.6.3-.1.6-.2.9-.2.6,0,1.7.4,1.7,2v2.8h-.9v-2.7c0-.8-.3-1.4-1.1-1.4-.6,0-1,.4-1.2.9,0,.1-.1.2-.1.4v2.9h-.9v-7.1h.1Z" fill="#fff" />
	<path d="M97.9,10.4c0,1.2.8,1.7,1.6,1.7.6,0,1-.1,1.3-.2l.1.6c-.3.1-.8.3-1.6.3-1.5,0-2.3-1-2.3-2.4s.8-2.6,2.2-2.6c1.6,0,2,1.4,2,2.2v.4h-3.3ZM100.4,9.8c0-.6-.2-1.4-1.2-1.4-.9,0-1.3.8-1.3,1.4h2.5Z" fill="#fff" />
	<path d="M33.9,28.4l-1.4,4.2h-1.8l4.5-13.3h2.1l4.5,13.3h-1.8l-1.4-4.2s-4.7,0-4.7,0ZM38.2,27.1l-1.3-3.8c-.3-.9-.5-1.7-.7-2.4h0c-.2.8-.4,1.6-.7,2.4l-1.3,3.8h4Z" fill="#fff" />
	<path d="M43.7,26.2c0-1.2,0-2.2-.1-3.1h1.6l.1,1.6h0c.7-1.2,1.8-1.8,3.4-1.8,2.3,0,4,1.9,4,4.8,0,3.4-2.1,5.1-4.3,5.1-1.3,0-2.4-.6-2.9-1.5h0v5.2h-1.7v-10.3h-.1ZM45.4,28.7c0,.3,0,.5.1.7.3,1.2,1.4,2,2.6,2,1.8,0,2.9-1.5,2.9-3.7,0-1.9-1-3.5-2.8-3.5-1.2,0-2.3.8-2.6,2.1-.1.2-.1.5-.1.7v1.7h-.1Z" fill="#fff" />
	<path d="M54.9,26.2c0-1.2,0-2.2-.1-3.1h1.6l.1,1.6h0c.7-1.2,1.8-1.8,3.4-1.8,2.3,0,4,1.9,4,4.8,0,3.4-2.1,5.1-4.3,5.1-1.3,0-2.4-.6-2.9-1.5h0v5.2h-1.7v-10.3h-.1ZM56.6,28.7c0,.3,0,.5.1.7.3,1.2,1.4,2,2.6,2,1.8,0,2.9-1.5,2.9-3.7,0-1.9-1-3.5-2.8-3.5-1.2,0-2.3.8-2.6,2.1-.1.2-.1.5-.1.7v1.7h-.1Z" fill="#fff" />
	<path d="M70.1,30.5c.8.5,1.9.9,3.1.9,1.8,0,2.8-.9,2.8-2.3,0-1.2-.7-1.9-2.5-2.6-2.2-.8-3.5-1.9-3.5-3.8,0-2.1,1.7-3.6,4.3-3.6,1.4,0,2.3.3,2.9.6l-.5,1.4c-.4-.2-1.3-.6-2.5-.6-1.8,0-2.5,1.1-2.5,2,0,1.2.8,1.9,2.6,2.6,2.2.9,3.4,1.9,3.4,3.9s-1.5,3.8-4.6,3.8c-1.3,0-2.7-.4-3.4-.8l.4-1.5Z" fill="#fff" />
	<path d="M82,20.3v2.7h2.5v1.3h-2.5v5.1c0,1.2.3,1.8,1.3,1.8.5,0,.8-.1,1-.1l.1,1.3c-.3.1-.9.2-1.5.2-.8,0-1.5-.3-1.9-.7-.5-.5-.7-1.4-.7-2.5v-5.2h-1.5v-1.3h1.5v-2.3l1.7-.3Z" fill="#fff" />
	<path d="M94.9,27.8c0,3.5-2.4,5.1-4.7,5.1-2.6,0-4.6-1.9-4.6-4.9,0-3.2,2.1-5.1,4.7-5.1,2.8,0,4.6,1.9,4.6,4.9ZM87.3,27.8c0,2.1,1.2,3.7,2.9,3.7s2.9-1.6,2.9-3.7c0-1.6-.8-3.7-2.9-3.7-2,0-2.9,1.9-2.9,3.7Z" fill="#fff" />
	<path d="M97.1,26c0-1.1,0-2.1-.1-3h1.5l.1,1.9h.1c.4-1.3,1.5-2.1,2.6-2.1.2,0,.3,0,.5.1v1.6c-.2,0-.4-.1-.6-.1-1.2,0-2.1.9-2.3,2.2,0,.2-.1.5-.1.8v5.1h-1.7v-6.5Z" fill="#fff" />
	<path d="M104.3,28.1c0,2.3,1.5,3.3,3.3,3.3,1.2,0,2-.2,2.6-.5l.3,1.2c-.6.3-1.7.6-3.2.6-2.9,0-4.7-1.9-4.7-4.8s1.7-5.1,4.5-5.1c3.1,0,3.9,2.7,3.9,4.5,0,.4,0,.6-.1.8,0,0-6.6,0-6.6,0ZM109.4,26.9c0-1.1-.5-2.8-2.4-2.8-1.8,0-2.5,1.6-2.7,2.8h5.1Z" fill="#fff" />
	<path id="Imported-Layers" d="M18.8,20.6c2.3,0,3.7,2.2,3.7,2.2,0,0-2.2,1.2-2.2,3.8,0,3.1,2.8,4,2.8,4,0,0-2.2,5.2-4.7,5.2-1.4,0-1.5-.8-3.3-.8-1.6,0-2.1.8-3.4.8-2.3,0-5.4-5.1-5.4-9.2s3.1-6,5-6c1.7,0,2.4,1,3.7,1,1.2,0,2.1-1,3.8-1h0ZM18.4,16.2c.3,2.1-1.6,4.7-3.9,4.6-.3-2.7,2.1-4.5,3.9-4.6h0Z" fill="#fff" />
</svg>