<svg id="gPlaySvg" data-name="gPlaySvg" xmlns="http://www.w3.org/2000/svg" xmlns:xlink="http://www.w3.org/1999/xlink" viewBox="0 0 120.9 42.1" style="height:60px;width:auto;">
	<defs>
		<linearGradient id="linear-gradient" x1="-1782.62" y1="-422.7" x2="-1782.12" y2="-421.41" gradientTransform="translate(23086.22 4168.78) scale(12.95 9.83)" gradientUnits="userSpaceOnUse">
			<stop offset="0" stop-color="#19a3b4" />
			<stop offset=".35" stop-color="#5bc3af" />
			<stop offset=".92" stop-color="#c8f7a6" />
			<stop offset="1" stop-color="#d7fea5" />
		</linearGradient>
		<linearGradient id="linear-gradient-2" x1="-1686.02" y1="-339.67" x2="-1685.13" y2="-337.38" gradientTransform="translate(13228.27 2106.84) scale(7.84 6.15)" gradientUnits="userSpaceOnUse">
			<stop offset="0" stop-color="#fc227c" />
			<stop offset="1" stop-color="#feeb7b" />
		</linearGradient>
		<linearGradient id="linear-gradient-3" x1="-1747.19" y1="-492.39" x2="-1746.99" y2="-491.41" gradientTransform="translate(18286.39 9666.35) scale(10.46 19.6)" gradientUnits="userSpaceOnUse">
			<stop offset="0" stop-color="#0e4da0" />
			<stop offset="1" stop-color="#6bfed4" />
		</linearGradient>
		<linearGradient id="linear-gradient-4" x1="-1782.07" y1="-422.72" x2="-1783.33" y2="-421.62" gradientTransform="translate(23145.02 4191.51) scale(12.98 9.85)" gradientUnits="userSpaceOnUse">
			<stop offset="0" stop-color="#fc472e" />
			<stop offset="0" stop-color="#fc472f" />
			<stop offset="1" stop-color="#893cd8" />
		</linearGradient>
	</defs>
	<path id="Rectangle-1" d="M7,0h106.9c3.9,0,7,3.1,7,7v28.1c0,3.9-3.1,7-7,7H7c-3.9,0-7-3.1-7-7V7C0,3.1,3.1,0,7,0Z" />
	<path id="path-2" d="M19.12,24.38l-12-6.6c-.3-.2-.7-.2-.9-.1l9.9,9.8,3-3.1" fill="url(#linear-gradient)" />
	<path id="Fill-2" d="M19.12,30.48l4.1-2.2c.8-.5.8-1.2,0-1.7l-4.1-2.3-3.1,3.1,3.1,3.1" fill="url(#linear-gradient-2)" />
	<path id="path-6" d="M6.23,17.68c-.4.1-.6.4-.6,1v17.5c0,.6.2.9.6,1l9.9-9.8-9.9-9.7" fill="url(#linear-gradient-3)" />
	<path id="path-9" d="M6.23,37.28c.3.1.6,0,.9-.1l12-6.6-3.1-3.1-9.8,9.8" fill="url(#linear-gradient-4)" />
	<path id="Fill-1" d="M82.42,31.79l-.9.9c-.2.1-.4.3-.6.3-.6.3-1.3.4-1.8.4-.6,0-1.5,0-2.5-.7-1.3-1-1.9-2.6-1.9-4,0-3,2.4-4.4,4.3-4.4.7,0,1.4.2,1.9.5.9.6,1.2,1.5,1.3,1.9l-4.4,1.8-1.5.1c.5,2.4,2.1,3.8,3.9,3.8.9,0,1.5-.3,2.2-.6-.1,0,0-.1,0,0h0ZM79.72,26.99c.4-.1.5-.2.5-.5,0-.8-.9-1.6-1.9-1.6-.8,0-2.2.6-2.2,2.7,0,.3,0,.7.1,1l3.5-1.6h0Z" fill="#fff" />
	<path id="Fill-2-2" data-name="Fill-2" d="M73.12,31.69c0,.7.1.9.8.9.3,0,.6.1,1,.1l-.8.4h-3.3c.4-.6.5-.6.5-1v-11.8h-1.5l1.4-.7h2.7c-.6.3-.8.6-.8,1.2v10.9" fill="#fff" />
	<path id="Fill-3" d="M67.92,25.09c.4.4,1.3,1.1,1.3,2.6,0,1.4-.8,2.1-1.6,2.7-.2.3-.5.5-.5.9s.3.7.5.8l.7.5c.8.7,1.6,1.4,1.6,2.7,0,1.8-1.7,3.6-5,3.6-2.7,0-4.1-1.3-4.1-2.7,0-.7.3-1.7,1.5-2.3,1.2-.7,2.8-.8,3.6-.9-.3-.3-.6-.7-.6-1.3,0-.3.1-.5.2-.7h-.6c-2,0-3.1-1.5-3.1-3,0-.9.4-1.9,1.2-2.6,1.1-.9,2.4-1.1,3.4-1.1h3.9l-1.2.8h-1.2ZM66.62,33.59h-.4c-.2,0-1.2,0-2,.3-.4.2-1.6.6-1.6,2s1.3,2.3,3.3,2.3c1.8,0,2.8-.9,2.8-2.1-.1-.9-.7-1.5-2.1-2.5h0ZM67.12,29.99c.4-.4.5-1.1.5-1.4,0-1.4-.8-3.5-2.4-3.5-.5,0-1,.2-1.3.6s-.4.9-.4,1.4c0,1.3.7,3.4,2.4,3.4.4,0,.9-.2,1.2-.5h0Z" fill="#fff" />
	<path id="Fill-4" d="M56.23,33.29c-3,0-4.6-2.4-4.6-4.5,0-2.5,2-4.6,4.9-4.6s4.5,2.2,4.5,4.5-1.7,4.6-4.8,4.6h0ZM58.62,31.79c.5-.6.6-1.4.6-2.1,0-1.7-.8-4.9-3.1-4.9-.6,0-1.3.2-1.7.6-.7.7-.9,1.5-.9,2.3,0,1.9.9,5,3.2,5,.7.1,1.4-.3,1.9-.9h0Z" fill="#fff" />
	<path id="Fill-5" d="M46.12,33.29c-3,0-4.6-2.4-4.6-4.5,0-2.5,2-4.6,4.9-4.6s4.5,2.2,4.5,4.5-1.7,4.6-4.8,4.6h0ZM48.52,31.79c.5-.6.6-1.4.6-2.1,0-1.7-.8-4.9-3.1-4.9-.6,0-1.2.2-1.7.6-.7.7-.9,1.5-.9,2.3,0,1.9.9,5,3.2,5,.7.1,1.5-.3,1.9-.9h0Z" fill="#fff" />
	<path id="Fill-6" d="M40.32,32.69l-2.5.6c-1,.2-1.9.3-2.9.3-4.9,0-6.8-3.7-6.8-6.5,0-3.5,2.6-6.7,7.2-6.7,1,0,1.9.1,2.7.4,1.3.4,1.9.8,2.3,1.1l-1.5,1.4-.6.1.5-.7c-.6-.6-1.7-1.7-3.8-1.7-2.8,0-4.9,2.2-4.9,5.3,0,3.4,2.4,6.5,6.3,6.5,1.1,0,1.7-.2,2.2-.4v-2.9l-2.7.2,1.4-.8h3.8l-.5.4q-.1.1-.2.3v3.1" fill="#fff" />
	<path id="Fill-7" d="M87.83,31.89v4.9h-1v-12.4h1v1.4c.6-.9,1.8-1.6,3.1-1.6,2.4,0,4,1.8,4,4.7s-1.6,4.7-4,4.7c-1.3,0-2.4-.7-3.1-1.7h0ZM93.82,28.79c0-2.2-1.1-3.8-3.1-3.8-1.2,0-2.4,1-2.9,1.8v4c.5.9,1.7,1.9,2.9,1.9,2,0,3.1-1.7,3.1-3.9h0Z" fill="#fff" />
	<polygon id="Fill-8" points="96.22 20.89 97.12 20.89 97.12 33.29 96.22 33.29 96.22 20.89" fill="#fff" />
	<path id="Fill-9" d="M107.82,35.99c.2.1.6.1.8.1.6,0,1-.2,1.4-1.1l.7-1.6-3.8-9h1.1l3.2,7.8,3.2-7.8h1.1l-4.6,10.9c-.5,1.1-1.2,1.7-2.3,1.7-.3,0-.7-.1-1-.1l.2-.9" fill="#fff" />
	<path id="Fill-10" d="M105.03,33.29c-.1-.3-.1-.6-.1-.8v-.7c-.3.5-.8.9-1.4,1.2s-1.2.5-1.9.5c-.9,0-1.7-.2-2.2-.7s-.8-1.1-.8-1.9.4-1.5,1.1-2,1.7-.8,2.9-.8h2.2v-1.1c0-.6-.2-1.1-.6-1.5s-1-.6-1.8-.6c-.7,0-1.3.2-1.7.5-.4.3-.7.8-.7,1.3h-1c0-.7.3-1.3.9-1.8s1.5-.8,2.5-.8,1.9.3,2.5.8,1,1.2,1,2.2v4.4c0,.3,0,.6.1.9,0,.3.1.6.2.9h-1.2ZM101.72,32.59c.8,0,1.4-.2,2-.5.6-.4,1-.8,1.2-1.4v-1.8h-2.2c-.9,0-1.6.2-2.1.6-.6.4-.8.9-.8,1.4s.2.9.5,1.2c.2.3.7.5,1.4.5h0Z" fill="#fff" />
	<path d="M32.1,9.5v-1.2h3.1v2.8c-.3.3-.7.5-1.3.8-.6.2-1.1.3-1.7.3-.7,0-1.4-.2-1.9-.5s-1-.8-1.2-1.3c-.3-.6-.4-1.2-.4-1.9s.2-1.4.5-2,.8-1,1.4-1.3c.5-.2,1-.4,1.7-.4.9,0,1.6.2,2,.6.3.5.7,1,.8,1.6l-1.4.3c-.1-.3-.3-.6-.6-.8-.3-.2-.6-.3-1-.3-.6,0-1.1.2-1.5.6s-.6,1-.6,1.8.2,1.5.6,1.9.9.6,1.5.6c.3,0,.6-.1.9-.2.3-.1.6-.3.8-.4v-1h-1.7Z" fill="#fff" />
	<path d="M36.5,12.1v-7h5.2v1.2h-3.8v1.6h3.5v1.1h-3.5v1.9h3.9v1.2s-5.3,0-5.3,0Z" fill="#fff" />
	<path d="M44.6,12.1v-5.8h-2.1v-1.2h5.6v1.2h-2.1v5.9h-1.4v-.1Z" fill="#fff" />
	<path d="M51.8,12.1v-7h1.4v7h-1.4Z" fill="#fff" />
	<path d="M56.1,12.1v-5.8h-2.1v-1.2h5.6v1.2h-2.1v5.9h-1.4v-.1Z" fill="#fff" />
	<path d="M63,8.6c0-.7.1-1.3.3-1.8.2-.4.4-.7.7-1,.3-.3.6-.5.9-.6.4-.2.9-.3,1.5-.3,1,0,1.9.3,2.5,1,.6.6.9,1.5.9,2.7,0,1.1-.3,2-.9,2.7s-1.4,1-2.5,1c-1,0-1.9-.3-2.5-1-.6-.7-.9-1.5-.9-2.7ZM64.5,8.6c0,.8.2,1.4.6,1.8.4.4.8.6,1.4.6s1-.2,1.4-.6c.4-.4.5-1,.5-1.8s-.2-1.4-.5-1.8-.9-.6-1.5-.6-1.1.2-1.4.6-.5,1-.5,1.8Z" fill="#fff" />
	<path d="M71,12.1v-7h1.4l2.9,4.7v-4.7h1.3v7h-1.4l-2.8-4.6v4.6h-1.4Z" fill="#fff" />
</svg>