<svg xmlns="http://www.w3.org/2000/svg" xmlns:xlink="http://www.w3.org/1999/xlink" viewBox="0 0 715 715"><defs><style>.cls-1,.cls-102,.cls-103,.cls-104,.cls-2{fill:none;}.cls-1{clip-rule:evenodd;}.cls-3{fill:url(#linear-gradient);}.cls-4{clip-path:url(#clip-path);}.cls-5{fill:#fab60a;}.cls-6{clip-path:url(#clip-path-2);}.cls-7,.cls-8{fill:#6c6d6e;}.cls-8{fill-rule:evenodd;}.cls-9{clip-path:url(#clip-path-3);}.cls-10{clip-path:url(#clip-path-4);}.cls-11{clip-path:url(#clip-path-5);}.cls-12{clip-path:url(#clip-path-6);}.cls-13{clip-path:url(#clip-path-7);}.cls-14{clip-path:url(#clip-path-8);}.cls-15{clip-path:url(#clip-path-9);}.cls-16{clip-path:url(#clip-path-10);}.cls-17{clip-path:url(#clip-path-11);}.cls-18{clip-path:url(#clip-path-12);}.cls-19{clip-path:url(#clip-path-13);}.cls-20{clip-path:url(#clip-path-14);}.cls-21{clip-path:url(#clip-path-15);}.cls-22{clip-path:url(#clip-path-16);}.cls-23{clip-path:url(#clip-path-17);}.cls-24{clip-path:url(#clip-path-18);}.cls-25{clip-path:url(#clip-path-19);}.cls-26{clip-path:url(#clip-path-20);}.cls-27{clip-path:url(#clip-path-21);}.cls-28{clip-path:url(#clip-path-22);}.cls-29{clip-path:url(#clip-path-23);}.cls-30{clip-path:url(#clip-path-24);}.cls-31{clip-path:url(#clip-path-25);}.cls-32{clip-path:url(#clip-path-26);}.cls-33{clip-path:url(#clip-path-27);}.cls-34{clip-path:url(#clip-path-28);}.cls-35{clip-path:url(#clip-path-29);}.cls-36{clip-path:url(#clip-path-30);}.cls-37{clip-path:url(#clip-path-31);}.cls-38{clip-path:url(#clip-path-32);}.cls-39{clip-path:url(#clip-path-33);}.cls-40{clip-path:url(#clip-path-34);}.cls-41{clip-path:url(#clip-path-35);}.cls-42{clip-path:url(#clip-path-36);}.cls-43{clip-path:url(#clip-path-37);}.cls-44{clip-path:url(#clip-path-38);}.cls-45{clip-path:url(#clip-path-39);}.cls-46{clip-path:url(#clip-path-40);}.cls-47{clip-path:url(#clip-path-41);}.cls-48{clip-path:url(#clip-path-42);}.cls-49{clip-path:url(#clip-path-43);}.cls-50{clip-path:url(#clip-path-44);}.cls-51{clip-path:url(#clip-path-45);}.cls-52{clip-path:url(#clip-path-46);}.cls-53{clip-path:url(#clip-path-47);}.cls-54{clip-path:url(#clip-path-48);}.cls-55{clip-path:url(#clip-path-49);}.cls-56{clip-path:url(#clip-path-50);}.cls-57{clip-path:url(#clip-path-51);}.cls-58{clip-path:url(#clip-path-52);}.cls-59{clip-path:url(#clip-path-53);}.cls-60{clip-path:url(#clip-path-54);}.cls-61{clip-path:url(#clip-path-55);}.cls-62{clip-path:url(#clip-path-56);}.cls-63{clip-path:url(#clip-path-57);}.cls-64{clip-path:url(#clip-path-58);}.cls-65{clip-path:url(#clip-path-59);}.cls-66{clip-path:url(#clip-path-60);}.cls-67{clip-path:url(#clip-path-61);}.cls-68{clip-path:url(#clip-path-62);}.cls-69{clip-path:url(#clip-path-63);}.cls-70{clip-path:url(#clip-path-64);}.cls-71{clip-path:url(#clip-path-65);}.cls-72{clip-path:url(#clip-path-66);}.cls-73{clip-path:url(#clip-path-67);}.cls-74{clip-path:url(#clip-path-68);}.cls-75{clip-path:url(#clip-path-69);}.cls-76{clip-path:url(#clip-path-70);}.cls-77{clip-path:url(#clip-path-71);}.cls-78{clip-path:url(#clip-path-72);}.cls-79{clip-path:url(#clip-path-73);}.cls-80{clip-path:url(#clip-path-74);}.cls-81{clip-path:url(#clip-path-75);}.cls-82{clip-path:url(#clip-path-76);}.cls-83{clip-path:url(#clip-path-77);}.cls-84{clip-path:url(#clip-path-78);}.cls-85{clip-path:url(#clip-path-79);}.cls-86{clip-path:url(#clip-path-80);}.cls-87{clip-path:url(#clip-path-81);}.cls-88{clip-path:url(#clip-path-82);}.cls-89{clip-path:url(#clip-path-83);}.cls-90{clip-path:url(#clip-path-84);}.cls-91{clip-path:url(#clip-path-85);}.cls-92{clip-path:url(#clip-path-86);}.cls-93{clip-path:url(#clip-path-87);}.cls-94{clip-path:url(#clip-path-88);}.cls-95{clip-path:url(#clip-path-89);}.cls-96{clip-path:url(#clip-path-90);}.cls-97{clip-path:url(#clip-path-91);}.cls-98{clip-path:url(#clip-path-92);}.cls-99{clip-path:url(#clip-path-93);}.cls-100{fill:#6b6d70;}.cls-101{clip-path:url(#clip-path-94);}.cls-102,.cls-103,.cls-104{stroke:#fcfcfc;}.cls-102{stroke-linecap:round;stroke-linejoin:round;}.cls-102,.cls-103{stroke-width:0.29px;}.cls-103,.cls-104{stroke-miterlimit:10;}.cls-104{stroke-width:0.72px;}.cls-105{clip-path:url(#clip-path-95);}.cls-106{fill:#fdf4e2;}.cls-107{clip-path:url(#clip-path-96);}.cls-108{fill:#b82126;}.cls-109{clip-path:url(#clip-path-97);}.cls-110{fill:#d7ab27;}.cls-111{clip-path:url(#clip-path-98);}.cls-112{clip-path:url(#clip-path-99);}.cls-113{clip-path:url(#clip-path-100);}.cls-114{clip-path:url(#clip-path-101);}.cls-115{clip-path:url(#clip-path-102);}.cls-116{clip-path:url(#clip-path-103);}.cls-117{clip-path:url(#clip-path-104);}.cls-118{clip-path:url(#clip-path-105);}.cls-119{clip-path:url(#clip-path-106);}.cls-120{clip-path:url(#clip-path-107);}.cls-121{clip-path:url(#clip-path-108);}.cls-122{clip-path:url(#clip-path-109);}.cls-123{clip-path:url(#clip-path-110);}.cls-124{clip-path:url(#clip-path-111);}.cls-125{clip-path:url(#clip-path-112);}.cls-126{clip-path:url(#clip-path-113);}.cls-127{clip-path:url(#clip-path-114);}.cls-128{clip-path:url(#clip-path-115);}.cls-129{clip-path:url(#clip-path-116);}.cls-130{clip-path:url(#clip-path-117);}.cls-131{clip-path:url(#clip-path-118);}.cls-132{clip-path:url(#clip-path-119);}.cls-133{clip-path:url(#clip-path-120);}.cls-134{clip-path:url(#clip-path-121);}</style><linearGradient id="linear-gradient" x2="715" y2="715" gradientUnits="userSpaceOnUse"><stop offset="0" stop-color="#fefefe"/><stop offset="1" stop-color="#ededed"/></linearGradient><clipPath id="clip-path"><path class="cls-1" d="M172.19,261.65a1.89,1.89,0,1,1-2.27-1.42,1.89,1.89,0,0,1,2.27,1.42"/></clipPath><clipPath id="clip-path-2"><polygon class="cls-1" points="192.3 287.82 192.31 287.82 192.3 287.81 192.3 287.82 192.3 287.82"/></clipPath><clipPath id="clip-path-3"><path class="cls-1" d="M200.2,309.67c.36.06.49-.16.36-.5l-.36.08c.23.15.09.24,0,.42"/></clipPath><clipPath id="clip-path-4"><path class="cls-1" d="M195.88,308.29h0"/></clipPath><clipPath id="clip-path-5"><path class="cls-1" d="M190.27,304.52a3.07,3.07,0,0,0,1.11.26c-.15-.33-.94-.64-1.11-.26"/></clipPath><clipPath id="clip-path-6"><path class="cls-1" d="M187.78,302.23l-.22-.33-.08.15c.1.16.07.28.3.18"/></clipPath><clipPath id="clip-path-7"><path class="cls-1" d="M192.2,303.35c-.25-.17-.54-.47-.86-.34.08-.43-1.66-1.17-1.95-1.32a3.59,3.59,0,0,0-1.37-.46,1.3,1.3,0,0,0-.91.23c-.18.15-.3.38-.52.45.59.1.81-.6,1.55-.32l-.22.1c.44.53,1.22.26,1.75.6.27.17.18.6.57.62s.5.32.16.54a3.34,3.34,0,0,0,1.8-.1"/></clipPath><clipPath id="clip-path-8"><path class="cls-1" d="M195.33,304.69c.3-.4-.3-.61-.63-.63l.2-.16c-.5,0-1.9-.88-2.31-.23.41-.09.43.47.72.71-.34.39-.78-.22-1.1.14.52.46,1.29-.2,1.73.5,0-.62,1.06-.72,1.38-.32"/></clipPath><clipPath id="clip-path-9"><path class="cls-1" d="M196.08,304.44l.07.32c.88.13.86-.4-.07-.32"/></clipPath><clipPath id="clip-path-10"><polygon class="cls-1" points="199.45 305.67 199.44 305.84 199.3 305.79 199.39 305.99 199.59 305.83 199.45 305.67 199.45 305.67"/></clipPath><clipPath id="clip-path-11"><path class="cls-1" d="M199.87,306.67h0"/></clipPath><clipPath id="clip-path-12"><path class="cls-1" d="M189.53,299.93c0,.43.26.61.46,1,0-.27-.16-1-.46-1"/></clipPath><clipPath id="clip-path-13"><path class="cls-1" d="M192.65,302.56c-.15.14-.23,0-.29.29.21,0,.33,0,.29-.29"/></clipPath><clipPath id="clip-path-14"><polygon class="cls-1" points="190.93 300.39 190.88 300.32 190.93 300.39 190.93 300.39"/></clipPath><clipPath id="clip-path-15"><path class="cls-1" d="M191.18,301h0"/></clipPath><clipPath id="clip-path-16"><path class="cls-1" d="M191.36,288.41c-.22-.19-.94,0-1,.32a2.09,2.09,0,0,0,1-.32"/></clipPath><clipPath id="clip-path-17"><path class="cls-1" d="M196,281.55a1.44,1.44,0,0,0-1.38-.65c.55.23.68.73,1.38.65"/></clipPath><clipPath id="clip-path-18"><path class="cls-1" d="M194.89,283.69a1.89,1.89,0,0,0,.92.62.39.39,0,0,1,.22-.5c-.35.12-1.06.2-1-.35l-.09.23"/></clipPath><clipPath id="clip-path-19"><path class="cls-1" d="M186.39,268.42a.81.81,0,0,0,.77-.6.63.63,0,0,0-.77.6"/></clipPath><clipPath id="clip-path-20"><path class="cls-1" d="M187.92,269.29a1.81,1.81,0,0,0,.26-.91l-.32,0c-.05.33-.17.64.06.94"/></clipPath><clipPath id="clip-path-21"><path class="cls-1" d="M187.8,274.43l-.38.32.26-.08-.32.39c.26,0,.27,0,.44-.23l0,.43a.93.93,0,0,0,0-.83"/></clipPath><clipPath id="clip-path-22"><path class="cls-1" d="M186.44,277.84l.51.33c0-.4-.19-.56-.51-.33"/></clipPath><clipPath id="clip-path-23"><path class="cls-1" d="M200.44,281.74c-.47.24-.65-.29-.3-.57-.41-.29-1,.19-1.29-.27l.21-.26c-.26-.2-.51-.09-.67.2a10.61,10.61,0,0,0,.54-1.71c-.74-.05-.87,1.16-1.05,1.69a2.41,2.41,0,0,0-.25,1c0,.24.18,0-.07.32s-.31.3-.19.7a2.31,2.31,0,0,1,1.42-.15c.4,0,.78.28.27.56.49.18.48-.65,1-.43l-.1.43.25-.25v.36c.47.1.39-.52.4-.87l-.26.08.09-.44a1,1,0,0,0-.3.47c-.26-.31,0-.64.27-.9"/></clipPath><clipPath id="clip-path-24"><path class="cls-1" d="M187.14,265.37a1.82,1.82,0,0,1-.69-1.49c-.82.84-.48,2-1.23,2.75l.52,0-.05.58c.63.08.63-.88,1.08-.88s.61.52.77.75c.29-.19.46-.34.23-.6s-.32-.83-.63-1.15"/></clipPath><clipPath id="clip-path-25"><path class="cls-1" d="M190.62,261.76c-.1-.35-.32-.48-.57-.18a1.24,1.24,0,0,0-.27,1.18.81.81,0,0,0,.84-1"/></clipPath><clipPath id="clip-path-26"><path class="cls-1" d="M195.68,264.1a.93.93,0,0,0-.09-1.2c-.26-.28-.77-1.07-1.1-1.18s-.7.14-1-.36a.73.73,0,0,1,.5-1.06c-.19-.27-.38-.47-.27-.81a1,1,0,0,0-.28-1c-.53-.59-.93-1.5-1.77-1.6a2.66,2.66,0,0,0,.09-1.18c-.36.15-.76-.19-1.09-.3s-1.24.61-1.46.8a2.57,2.57,0,0,0,.21-1.27c0-.42.35-.71.15-1.14-1.35.06-1.95,1.8-1.93,3-.73-1.05.29-2.48,1.15-3a1.82,1.82,0,0,0-2.13,1.14,6.8,6.8,0,0,0-.58,1.54c.19.53.19,1.1.41,1.62.32.73,1.05.86,1.73,1,.35.08.63.5.93.52s.55-.54.7-.76a2.33,2.33,0,0,0,.52,1.07c.25.32,0,.71-.11,1l.51-.42c.18.52.52,1,.66,1.51a2,2,0,0,1-.74,1.83c-.35.38.42.66,0,1.06s-1,0-1.4-.13c0,.39-.5.74-.54,1.16s.25.29.45.32l.47,0L190,266a4.15,4.15,0,0,1,1.15.65c.35.25.08.65.35.93a4.86,4.86,0,0,0,2.25,1.38c.2-.81-1-1.36-1.08-2.15.52.24.88.88,1.4,1.06s.75-.5.52-.86c-.34-.54-.34-1.12-.75-1.65a1.88,1.88,0,0,1-.26-1.59c.61.56.71,1.18,1.32,1.65a.75.75,0,0,1,.42-.69c.3-.13.26-.35.39-.61"/></clipPath><clipPath id="clip-path-27"><path class="cls-1" d="M191.05,255.26c.34-.88-.09-1.77-1.1-1.35-.16.25-.42.8-.22,1.11s1,0,1.32.25"/></clipPath><clipPath id="clip-path-28"><path class="cls-1" d="M185.36,251.52a2.77,2.77,0,0,0,.69.62c.09-.31.49-1.09.19-1.37s-.74.55-.88.76"/></clipPath><clipPath id="clip-path-29"><path class="cls-1" d="M187.22,252.52c.5.12,1.14.47,1.64.2s.49-.12,1,0c.78.14,1.29-1.68.11-1.77-.23,0-.5-.29-.74-.18a1.54,1.54,0,0,1-.59.21c-.55,0-.89-.38-.73-.88.07-.19-.1-.9-.32-.9-.53,0-.51-.6-1-.77a2.16,2.16,0,0,0-.13,1.29c.69-.27.85.41.67,1s-.88,1.63.12,1.87"/></clipPath><clipPath id="clip-path-30"><path class="cls-1" d="M189.05,246.78c.45.06.86-1,1.12-1.26.44-.42.81-.75.52-1.37-.15-.33.66-1.21,0-1.34s-.27-1.11-.17-1.57c-.58-.31-.55.53-.82.81a3.48,3.48,0,0,0-.62.81,1.41,1.41,0,0,0-.2,1,4.43,4.43,0,0,1-.5,1.75c-.27.77-.08,1.09.69,1.19"/></clipPath><clipPath id="clip-path-31"><path class="cls-1" d="M191.64,242.49c.4,0,.78-.18,1.18-.15a4.52,4.52,0,0,0,1.17-.15,8.39,8.39,0,0,1-1.52.74c-.42.19-.57.49-1,0-.11.18-.73.83-.51,1.06s.07,1.23-.11,1.59c-.32.65-1.64.79-.8,1.7-.51.06-1.38.46-.74,1a1.67,1.67,0,0,0-1.17,1.28,4.66,4.66,0,0,0,1.25.38c.2,0,.29-.26.51-.17a.62.62,0,0,0,.7-.12l0,.55c.36-.19,1.25-.6,1.28-1.1l-.12-.43c-.08-.31.23-.46.39-.65.31-.36.2-.61.76-.73s.56-.89.65-1.23a2,2,0,0,1,.86-1.42,3.3,3.3,0,0,0,1.28-1.14,14.68,14.68,0,0,1,1.53-1.56c.52-.52.67-1.15,1.19-1.63.15-.13,1.1-.89.67-1.13s-.68-.79-1.17-1a2.17,2.17,0,0,0-1.73-.12c-.25.09-.55-.14-.81-.09a2.53,2.53,0,0,0-1,.33c-.26.19-.47.43-.73.62s-.74.33-1,.63l-.35.53c-.35.16-.43-.21-.77.16s-.94,1-.77,1.57.27.63.83.66"/></clipPath><clipPath id="clip-path-32"><path class="cls-1" d="M188,243l-.36.48.34.33c0-.27,0-.53,0-.8"/></clipPath><clipPath id="clip-path-33"><path class="cls-1" d="M185.74,246.27c.4.07.24.39.21.78.3-.22,1.12,0,1.31-.28a1.42,1.42,0,0,0,0-1.55c-.14.29-.29.58-.44.87,0,0-.28.63-.33.44a2,2,0,0,1,.12-1.11,1,1,0,0,0,.07-.64c-.09-.26-.34-.21-.5-.37s-.46-.64-.77-.12c-.16.43.5.62.1,1s-.32.86.26,1"/></clipPath><clipPath id="clip-path-34"><path class="cls-1" d="M186.69,247.32c.25.33,1.11,1.1,1.27.25.12-.67-.89-.37-1.27-.25"/></clipPath><clipPath id="clip-path-35"><path class="cls-1" d="M184.46,247.89a4.53,4.53,0,0,1,.24-1.1c-.45,0-.71.91-.24,1.1"/></clipPath><clipPath id="clip-path-36"><path class="cls-1" d="M184.36,249.7c0-.34,0-1.21-.46-1.08a10.6,10.6,0,0,0-.16,1.93l.52-.25c0,.47-.17.85.38,1s.6-.54.71-.93.43-1,.21-1.39c-.51-.82-1.06.39-1.2.75"/></clipPath><clipPath id="clip-path-37"><polygon class="cls-1" points="183.42 250.94 183.4 250.38 183.07 250.87 183.42 250.94 183.42 250.94"/></clipPath><clipPath id="clip-path-38"><path class="cls-1" d="M184.61,252.73c-.36.36-.85-.05-1.2.28s-.16.78-.13,1.14a.62.62,0,0,0-.75,0,4.65,4.65,0,0,1,0,1c.6-.1.5,1.07.55,1.42.44-.33,1-.39,1.15-1s.46-1.23-.13-1.51a1.92,1.92,0,0,0,.53-1.37"/></clipPath><clipPath id="clip-path-39"><path class="cls-1" d="M184.14,245.51c.19-.64-1-.49-1.23-.13.3,0,1,.79,1.23.13"/></clipPath><clipPath id="clip-path-40"><path class="cls-1" d="M182.66,245.62c-.37.18-.41.16-.42.59.28,0,.38-.3.42-.59"/></clipPath><clipPath id="clip-path-41"><path class="cls-1" d="M182.77,247c.51-.24.58-.45.85-1-.37-.12-.7.17-1.08.22-.11.21-.24,1,.23.74"/></clipPath><clipPath id="clip-path-42"><path class="cls-1" d="M179.62,249.11l.17.24c.22-.29.41-.6.63-.9a1.41,1.41,0,0,0-.79.66"/></clipPath><clipPath id="clip-path-43"><path class="cls-1" d="M180.4,247.78l.18.41a4.66,4.66,0,0,0,.8-1.16c.21-.32.56-.31.32-.8-.31.46-.67.17-1.08.34-.59.24-1,.86-1.58,1.12-.09,1.28.8.82,1.36.08"/></clipPath><clipPath id="clip-path-44"><path class="cls-1" d="M180.39,250.74c-.44.19.19.79.63.56.21-.11.39-.28.61-.37s.6.11.88,0,.81-1,.72-1.23-.24-.39-.33-.61a1.55,1.55,0,0,1,.07-1,2.05,2.05,0,0,0-.91,1.95c-.88-.12-.08-1.36-.72-1.77s-1.29,1.2-1.54,1.52a1.41,1.41,0,0,1,.44.63l.43-.36c.13.43.05.57-.3.73"/></clipPath><clipPath id="clip-path-45"><path class="cls-1" d="M179.52,253.72c.08-.37.27-1-.29-.75a2.89,2.89,0,0,0-1.64,1.41l-.18.35.16.37c0,.23-.19.42-.16.66.07.7,1,.42,1.17,1.07l-1.26.13c-.16.71-.13.87.44,1.31l0,.65c.05.23.28.24.46.24a2.45,2.45,0,0,0,1.93-.64c.05.24.21,1,.57.94a1.47,1.47,0,0,0,.7-.33l.06-.5c.12-.16.4-.05.5-.29s-.09-.52-.28-.66a1.21,1.21,0,0,1-.45-1.39c.2-.56.15-1.22.38-1.76s.55-.74.64-1.21-.32-.68-.63-.35a7.7,7.7,0,0,0-.73,1.21c-.07-.14-.16-.61-.4-.55s-.44,0-.48-.32l-.55.4"/></clipPath><clipPath id="clip-path-46"><path class="cls-1" d="M177.11,254.62c.31-.37.42-.88.75-1.23s.89-.46,1.28-.75.14-.56.1-.91l-.09-.54c-.18-.13-.35-.09-.45-.32-.19-.46-.4-.38-.8-.18s-.48.54-.69,1a7.77,7.77,0,0,1-1,1.56c-.26.35-.07,1.24-.12,1.73.35-.23.71-.1,1-.41"/></clipPath><clipPath id="clip-path-47"><path class="cls-1" d="M161.24,266.78c.27,0,.34-.2.21-.46,0,.21-.14.29-.21.46"/></clipPath><clipPath id="clip-path-48"><path class="cls-1" d="M164,256.31c-.2.39.13.53,0,1,.22-.12.24-.67,0-1"/></clipPath><clipPath id="clip-path-49"><path class="cls-1" d="M163.12,260.61l0,.55a.28.28,0,0,0,0-.55"/></clipPath><clipPath id="clip-path-50"><path class="cls-1" d="M164.8,265.07l-.54.5c-.24.24-.18.46-.18.8.12-.15.5-.28.53-.49s.14-.53.18-.81"/></clipPath><clipPath id="clip-path-51"><path class="cls-1" d="M168.21,272.19a3.94,3.94,0,0,0,.24,2.28c0-.46-.09-.92,0-1.37s.2-.71-.22-.91"/></clipPath><clipPath id="clip-path-52"><path class="cls-1" d="M170.1,278.55c.17.24.12-.1.11-.21a9,9,0,0,0-.25-1c-.1-.31-.5-1.58-1-1.37a6.59,6.59,0,0,0,1.1,2.55"/></clipPath><clipPath id="clip-path-53"><path class="cls-1" d="M217.7,262.31a.7.7,0,0,0-.39-.76c-.34-.13-.36-.41-.44-.73a.49.49,0,0,1-.74,0c-.18.88-1.21.36-1.43,1.12l-.33-.23c.13.47,0,.73-.39.9-.13-.53-.27-1.07-.93-1,.14.34,0,.19-.21.28s-.09.71-.22.9c.45.13.62-.42,1-.12a4,4,0,0,1-.76,1c.72-.15,1.12.17.75.9.94-.18,1.76.26,2.58-.39.31-.25.52-.58.83-.83a1.47,1.47,0,0,0,.66-1"/></clipPath><clipPath id="clip-path-54"><path class="cls-1" d="M218.21,254.66h0"/></clipPath><clipPath id="clip-path-55"><polygon class="cls-1" points="213.39 249.81 212.95 249.39 213.02 249.96 213.39 249.81 213.39 249.81"/></clipPath><clipPath id="clip-path-56"><path class="cls-1" d="M277.14,237.84c.14.22.16.29.41.38-.05-.27-.17-.45-.41-.38"/></clipPath><clipPath id="clip-path-57"><path class="cls-1" d="M276.43,229.22c-.15-.27-.23-.51-.5-.64a3.1,3.1,0,0,0,.5.64"/></clipPath><clipPath id="clip-path-58"><path class="cls-1" d="M283.2,242c-.16-.21-2.17-2-1.49-2-.58-.53-1.2-1-1.79-1.49A12.19,12.19,0,0,0,278.3,237c.42,1.14,1.79,2,2.57,2.88a23.74,23.74,0,0,0,2.35,2.74c-.16-.21-.59-.92,0-.62"/></clipPath><clipPath id="clip-path-59"><path class="cls-1" d="M264.42,218.32a2.2,2.2,0,0,0-.9-.66,3.34,3.34,0,0,0,.9.66"/></clipPath><clipPath id="clip-path-60"><path class="cls-1" d="M260.35,224a.55.55,0,0,0,.65-.36,1.85,1.85,0,0,0-1.08-.31.62.62,0,0,0,.43.66"/></clipPath><clipPath id="clip-path-61"><path class="cls-1" d="M259.39,223.38l-.08.18.45.23c-.06-.25-.14-.28-.38-.41"/></clipPath><clipPath id="clip-path-62"><path class="cls-1" d="M259.26,221.11c-.87-.6-.58.23-1.34.23a1.9,1.9,0,0,0,1,.15c.13,0,.64-.18.35-.38"/></clipPath><clipPath id="clip-path-63"><path class="cls-1" d="M257.65,223.4c.27.06.65.29.91.1s-.1-.68-.12-.87l.3-.05a2.67,2.67,0,0,0-1-1c-.29-.17-.71.21-1,.16l.52.5-.81.07c.17.59.72.79,1.18,1.08"/></clipPath><clipPath id="clip-path-64"><path class="cls-1" d="M248.48,226.75a3,3,0,0,0-2-.53c0,.72,1.23,1.61,1.71,2.1-.16-.6.81-1.2.25-1.57"/></clipPath><clipPath id="clip-path-65"><path class="cls-1" d="M245.53,227.93a1.44,1.44,0,0,0,1.15-.22c.53-.36-.2-.66-.43-.9a1.24,1.24,0,0,0-.84-.52c-.42,0-.9.11-1.28-.14-.23-.15-.38-.39-.63-.5a7,7,0,0,0-1.21-.23,5.48,5.48,0,0,0,1,1.83c.38.64,1.65.43,2.29.69"/></clipPath><clipPath id="clip-path-66"><path class="cls-1" d="M241.6,243.78c.25,1,2.94,1.49,3.16.31-2.25-.35-2.47-2.69-2.64-4.59a7.35,7.35,0,0,1-.06-1.53,4.21,4.21,0,0,1,.53-1.17c.34-.69.55-1.78-.54-1.71-.33,0-.29.42-.25.66.07.43.12.68-.24,1s-.77.36-.86.9a7.61,7.61,0,0,1-.19,1.39c-.25.64.09.65.29,1.22.13.36,0,1.2.37,1.35s0,.85.22,1.28l.32.48c-.07.16-.14.21-.09.41"/></clipPath><clipPath id="clip-path-67"><path class="cls-1" d="M242.6,247c-.13.45.15.66.41,1,.69-.56.2-.85-.41-1"/></clipPath><clipPath id="clip-path-68"><path class="cls-1" d="M235,233.1c.51-.17.27-.83.72-1,.76-.25.26-.68-.12-1.08.28,0,.73-.18.6-.54s-.58-.34-.77-.46l.11,1.06c-.4.46-.44.57-.07,1.1-.52.21-.55.33-.48.9"/></clipPath><clipPath id="clip-path-69"><path class="cls-1" d="M234.84,231.78a.56.56,0,0,1-.58-.49c-.12-.43-.4-.56-.71-.84a1.44,1.44,0,0,0,.46,1.32c-.35.08-.54.32-.28.65.68-.07.75,0,1.11-.64"/></clipPath><clipPath id="clip-path-70"><polygon class="cls-1" points="234.11 233.36 234.57 233.02 234.02 232.89 234.11 233.36 234.11 233.36"/></clipPath><clipPath id="clip-path-71"><path class="cls-1" d="M232.43,234.3c.23.28.89,0,1-.3l-.34-.92c-.43-.25-.57.34-.72.61-.38-.86-.8,0-1,.49.53.18.69-.33,1.06.12"/></clipPath><clipPath id="clip-path-72"><path class="cls-1" d="M224.2,241.58c-.7,1.18.91,1.81,1.75,2.25-.17-.66-.17-1.33-.29-2-.1-.5-.39-1.11,0-1.54.24.31.57.54.81.86s.13.77.38.84c.81.22.78-.39,1-1a5.39,5.39,0,0,1-.94-.35,9.53,9.53,0,0,1-.94-.73,2.34,2.34,0,0,0-.89-.23c-.38-.07-.52-.53-.71-.82,1.09.34,2.48.52,2.47-1.06,0-.63-.41-.65-.9-.55s-.83,0-1.2.62l-.57-.43c-.27.41-.55.7-.18,1.18-.58,0-.62.09-.61.69a2.48,2.48,0,0,0-1.54.39c.44,1.13,1.08,2.33,2.37,1.9"/></clipPath><clipPath id="clip-path-73"><path class="cls-1" d="M221.86,264.2c-.28,0-.45.17-.46.44.31.11.43-.11.46-.44"/></clipPath><clipPath id="clip-path-74"><path class="cls-1" d="M224.91,265.54c-.09.21-.11.31.13.42l-.13-.42"/></clipPath><clipPath id="clip-path-75"><path class="cls-1" d="M223,268.15c-.39.33-.25.62-.32,1.05a1.39,1.39,0,0,0,.32-1.05"/></clipPath><clipPath id="clip-path-76"><path class="cls-1" d="M232.55,268.83c.14-.37-.43-.47-.6-.22.06.12.49.51.6.22"/></clipPath><clipPath id="clip-path-77"><path class="cls-1" d="M233.05,267.56a6.13,6.13,0,0,1-.52.58c.1.55.52.55.81.17-.34-.21.09-.42-.29-.75"/></clipPath><clipPath id="clip-path-78"><path class="cls-1" d="M232.78,269c.24.25.47.15.54-.19a.64.64,0,0,0-.54.19"/></clipPath><clipPath id="clip-path-79"><path class="cls-1" d="M235.75,264.62c-.46.25-.37.58-.12,1,.33-.34-.16-.59.12-1"/></clipPath><clipPath id="clip-path-80"><path class="cls-1" d="M236.87,263.75c.33.32.43-.14.6-.4-.33-.07-.57.05-.6.4"/></clipPath><clipPath id="clip-path-81"><polygon class="cls-1" points="236.88 262.93 236.99 263.29 237.24 263.05 236.88 262.93 236.88 262.93"/></clipPath><clipPath id="clip-path-82"><path class="cls-1" d="M223,269.29a.46.46,0,0,0,.62.09,1.27,1.27,0,0,0,0,.85l.23-.24a.83.83,0,0,1-.18.85l.32-.09.07.32.17-.49c.42.22.1.52.23.84.21.55.75-.08,1-.24-.19.37.08.81.49.61-.23.59.09,1.09-.75,1.06a.74.74,0,0,1,.07.54l.33-.07c.19.39-.56.95-.22,1.19l.58-.18c.33,0,.47.22.67-.19,0,.42-.24.38-.52.51s-.49,1-.66,1.25c.44.08.51-.53,1-.35-.23-.68.72-.43.94-.76s.58-.19.8-.25a.84.84,0,0,0,.68-.73l-.45.07c0-.4.37-.72.35-1.13s-.94-.28-.93-.06c-.17-.15-.3-.66-.44-.87a2.19,2.19,0,0,0-.87-.8c-.56-.33-.59-1.17-1.39-.81.22-.38.57-1,.37-1.49s-.93-.1-1.24.07c0-.2.56-1.22.08-1-.64.24-1.06.6-.87,1.43-.25-.06-.24,0-.44.13"/></clipPath><clipPath id="clip-path-83"><path class="cls-1" d="M224.12,271.65a.85.85,0,0,0-1.44.55l.31.07c0,.18-1.36.88-.53.88-.34.31.07.64.39.48-.1.32,0,1.08-.45,1.1.45,1.07,1.61-.15,2-.64s0-.86-.15-1.24.33-.74-.13-1.2"/></clipPath><clipPath id="clip-path-84"><path class="cls-1" d="M235.34,279.25a.6.6,0,0,1-.28.54.91.91,0,0,0,.58.81,4.32,4.32,0,0,0-.3-1.35"/></clipPath><clipPath id="clip-path-85"><path class="cls-1" d="M235.2,281.1c.07.33.51,1.38.82,1.47.26-.6.48-.92.08-1.57s-.49.13-.9.1"/></clipPath><clipPath id="clip-path-86"><path class="cls-1" d="M239.75,283c.72-.13,0-.69.27-1.33-.45.32-1.56.47-1.76.88a2.77,2.77,0,0,0,1.49.44"/></clipPath><clipPath id="clip-path-87"><path class="cls-1" d="M243.1,280.92c.33,0,.25.15.36.38s.49.15.68.33l.09-.32.33.13a5.56,5.56,0,0,1-.49-.61l.29-.05c-.3-.47-1.29-.62-1.25.14"/></clipPath><clipPath id="clip-path-88"><path class="cls-1" d="M245,282l.07.32c.38-.23,1.5,0,1.47-.67l-.24.24-.05-.18a2.24,2.24,0,0,1-1.25.3"/></clipPath><clipPath id="clip-path-89"><path class="cls-1" d="M250.87,279.46a8.37,8.37,0,0,1-1,1c.21.34.5.12.69-.09l.27-.3,0-.58"/></clipPath><clipPath id="clip-path-90"><path class="cls-1" d="M232.85,282.89c-.29-.17-.52,0-.64.29.21,0,.33,0,.54.1l.1-.39"/></clipPath><clipPath id="clip-path-91"><path class="cls-1" d="M247.08,280.63l.13.19a.91.91,0,0,0,.12-.53l-.25.34"/></clipPath><clipPath id="clip-path-92"><polygon class="cls-1" points="245.46 278.66 245.34 278.81 245.52 278.85 245.46 278.66 245.46 278.66"/></clipPath><clipPath id="clip-path-93"><path class="cls-1" d="M245.35,277.84c.22-.53.52-.92,1-.92a1.28,1.28,0,0,1,.36.06l-.24.17.11.17-1.26.53"/></clipPath><clipPath id="clip-path-94"><path class="cls-1" d="M255.3,229.17c.06.38.4.24.66.22-.3-.35-.26-.43-.66-.22"/></clipPath><clipPath id="clip-path-95"><path class="cls-1" d="M180.89,432.27a1.81,1.81,0,1,1-2.17-1.36,1.81,1.81,0,0,1,2.17,1.36"/></clipPath><clipPath id="clip-path-96"><path class="cls-1" d="M214.92,211.76c-.66.22-1.3.45-1.94.68a72.31,72.31,0,0,1,79.25,32.22q3.74-.8,7.5-1.42a72.3,72.3,0,0,0-84.81-31.48"/></clipPath><clipPath id="clip-path-97"><path class="cls-1" d="M217.89,204.11a72.76,72.76,0,0,0-35.05,25,74.9,74.9,0,0,1,119.29,13.75q2.43-.36,4.86-.66a73.09,73.09,0,0,0-89.09-38.1"/></clipPath><clipPath id="clip-path-98"><path class="cls-1" d="M269.8,346.33l-11.67,28.49h23.34L269.8,346.33Zm26.61,65.27-8-19.71H251.22l-8,19.71H223.49l37.66-88.49H279l37.66,88.49Z"/></clipPath><clipPath id="clip-path-99"><path class="cls-1" d="M372.6,353.73c0-8.28-5.77-12.55-15.19-12.55h-19.2v25.23h19.58c9.41,0,14.81-5,14.81-12.42v-.25Zm-.38,57.86L353.4,383.48H338.21v28.12H318.89V323.73h40.17c20.71,0,33.14,10.92,33.14,29V353c0,14.18-7.66,23.09-18.83,27.24l21.46,31.38Z"/></clipPath><clipPath id="clip-path-100"><path class="cls-1" d="M439.64,413.1c-25.85,0-45.06-20-45.06-45.18v-.25c0-25,18.83-45.44,45.81-45.44,16.57,0,26.49,5.52,34.64,13.56L462.73,350C456,343.82,449.05,340,440.27,340c-14.81,0-25.48,12.3-25.48,27.36v.25c0,15.06,10.42,27.61,25.48,27.61,10,0,16.19-4,23.09-10.29l12.3,12.43c-9,9.66-19.08,15.69-36,15.69"/></clipPath><clipPath id="clip-path-101"><path class="cls-1" d="M252.53,428l-13,29h26l-12.94-29Zm29,49.87h-6.91L268,462.77H237l-6.75,15.05h-6.59l26-57.35h6l26,57.35Z"/></clipPath><clipPath id="clip-path-102"><polygon class="cls-1" points="312.64 420.71 317.93 420.71 333.55 468.3 349.82 420.87 356.57 420.87 336.23 478.23 330.79 478.23 315.16 432.02 299.46 478.23 294.1 478.23 273.75 420.87 280.75 420.87 297.02 468.3 312.64 420.71 312.64 420.71"/></clipPath><clipPath id="clip-path-103"><path class="cls-1" d="M377.55,428l-13,29h26l-12.94-29Zm29,49.87h-6.92L393,462.77H362l-6.75,15.05h-6.59l26-57.35h6l26,57.35Z"/></clipPath><clipPath id="clip-path-104"><path class="cls-1" d="M434.58,426.81H417v23.1H434.5c8.54,0,14.64-4.39,14.64-11.8,0-7.08-5.36-11.31-14.56-11.31Zm15.21,51-16.52-22.13H417v22.13h-6.43V420.87h24.49c12.53,0,20.58,6.75,20.58,17,0,9.52-6.51,15.05-15.45,16.68l17.49,23.27Z"/></clipPath><clipPath id="clip-path-105"><path class="cls-1" d="M481.92,426.81H468.58v45.07h13.34c14.4,0,23.59-9.76,23.59-22.45s-9.19-22.62-23.59-22.62m0,51H462.15V420.87h19.77c17.9,0,30.26,12.28,30.26,28.39s-12.37,28.55-30.26,28.55"/></clipPath><clipPath id="clip-path-106"><path class="cls-1" d="M538.13,446.25c12.69,2.77,18.55,7.4,18.55,16.19,0,9.85-8.13,16.19-19.44,16.19-9,0-16.44-3-23.27-9.11l4-4.72c5.94,5.37,11.63,8.05,19.52,8.05,7.65,0,12.69-4,12.69-9.76,0-5.37-2.84-8.38-14.81-10.9-13.1-2.85-19.12-7.08-19.12-16.52,0-9.11,7.89-15.62,18.72-15.62a29.71,29.71,0,0,1,20,7l-3.74,5c-5.29-4.31-10.58-6.18-16.43-6.18-7.4,0-12.12,4.07-12.12,9.27,0,5.45,2.93,8.46,15.46,11.15"/></clipPath><clipPath id="clip-path-107"><rect class="cls-2" x="224.14" y="485.92" width="6.21" height="28.23"/></clipPath><clipPath id="clip-path-108"><polygon class="cls-1" points="256 514.15 242.33 496.21 242.33 514.15 236.2 514.15 236.2 485.92 241.93 485.92 255.15 503.31 255.15 485.92 261.28 485.92 261.28 514.15 256 514.15 256 514.15"/></clipPath><clipPath id="clip-path-109"><polygon class="cls-1" points="279.66 491.65 279.66 514.15 273.45 514.15 273.45 491.65 264.86 491.65 264.86 485.92 288.25 485.92 288.25 491.65 279.66 491.65 279.66 491.65"/></clipPath><clipPath id="clip-path-110"><polygon class="cls-1" points="291.8 514.15 291.8 485.92 313.09 485.92 313.09 491.45 297.97 491.45 297.97 497.17 311.27 497.17 311.27 502.7 297.97 502.7 297.97 508.63 313.29 508.63 313.29 514.15 291.8 514.15 291.8 514.15"/></clipPath><clipPath id="clip-path-111"><path class="cls-1" d="M334.86,495.56c0-2.66-1.86-4-4.88-4h-6.17v8.11h6.29c3,0,4.76-1.62,4.76-4v-.08Zm-.12,18.59-6.05-9h-4.88v9h-6.21V485.92H330.5c6.65,0,10.65,3.51,10.65,9.31v.08a8.77,8.77,0,0,1-6.05,8.75l6.9,10.08Z"/></clipPath><clipPath id="clip-path-112"><polygon class="cls-1" points="365.38 514.15 351.7 496.21 351.7 514.15 345.57 514.15 345.57 485.92 351.3 485.92 364.53 503.31 364.53 485.92 370.66 485.92 370.66 514.15 365.38 514.15 365.38 514.15"/></clipPath><clipPath id="clip-path-113"><path class="cls-1" d="M388.67,493.18l-3.75,9.15h7.5l-3.75-9.15Zm8.55,21-2.58-6.33H382.7l-2.58,6.33h-6.34l12.1-28.43h5.73l12.1,28.43Z"/></clipPath><clipPath id="clip-path-114"><polygon class="cls-1" points="416.01 491.65 416.01 514.15 409.8 514.15 409.8 491.65 401.21 491.65 401.21 485.92 424.6 485.92 424.6 491.65 416.01 491.65 416.01 491.65"/></clipPath><clipPath id="clip-path-115"><rect class="cls-2" x="428.46" y="485.92" width="6.21" height="28.23"/></clipPath><clipPath id="clip-path-116"><path class="cls-1" d="M462.78,500a8.58,8.58,0,0,0-8.55-8.87c-5,0-8.47,4-8.47,8.79V500a8.57,8.57,0,0,0,8.55,8.87c5,0,8.47-3.95,8.47-8.79V500Zm-8.55,14.6c-8.71,0-15-6.49-15-14.52V500c0-8,6.33-14.6,15-14.6s15,6.49,15,14.52V500c0,8-6.33,14.6-15,14.6Z"/></clipPath><clipPath id="clip-path-117"><polygon class="cls-1" points="493.42 514.15 479.75 496.21 479.75 514.15 473.62 514.15 473.62 485.92 479.35 485.92 492.57 503.31 492.57 485.92 498.7 485.92 498.7 514.15 493.42 514.15 493.42 514.15"/></clipPath><clipPath id="clip-path-118"><path class="cls-1" d="M516.72,493.18,513,502.34h7.5l-3.75-9.15Zm8.55,21-2.58-6.33H510.75l-2.58,6.33h-6.33l12.1-28.43h5.73l12.1,28.43Z"/></clipPath><clipPath id="clip-path-119"><polygon class="cls-1" points="534.94 485.92 534.94 514.15 555.22 514.15 555.22 508.51 541.15 508.51 541.15 485.92 534.94 485.92 534.94 485.92"/></clipPath><clipPath id="clip-path-120"><path class="cls-1" d="M441.67,296.36A157,157,0,1,0,216.51,514.15,157,157,0,0,1,441.29,296.68l.38-.32Z"/></clipPath><clipPath id="clip-path-121"><path class="cls-1" d="M441.32,296.28a157,157,0,0,0-225.58,217.8h.69A157,157,0,0,1,441.07,296.49l.25-.21Z"/></clipPath></defs><title>arc-awards</title><g id="Layer_2" data-name="Layer 2"><g id="Layer_1-2" data-name="Layer 1"><rect class="cls-3" width="715" height="715"/></g><g id="Layer_2-2" data-name="Layer 2"><g class="cls-4"><rect class="cls-5" x="163.45" y="255.18" width="13.79" height="13.79"/></g><g class="cls-6"><rect class="cls-7" x="187.3" y="282.81" width="10.01" height="10.01"/></g><path class="cls-8" d="M215.35,316.24c-.36-.17-.63,0-1,0a2.47,2.47,0,0,1-1-.06c-.44-.16-.75.07-1.15.21.15-1-2.66-1.44-2.49-.43-.46-.3.06-.78-.75-.84-.57,0-.44.6-.44,1-.1-.3-.33-.46-.56-.19-.1-.62.59-1.17.42-1.71l-.65-.44a5.14,5.14,0,0,0-.73-1,3.65,3.65,0,0,0-2.48-.87c-.36,0-.76.23-1.11,0s-.5-.57-.87-.4c.07-.63-1.13-1.22-1.61-.94.1-.76-1-.85-1.43-1.21l.44-.1a1.5,1.5,0,0,0-.89.09.92.92,0,0,1-.71.23,2.49,2.49,0,0,0-1.15-.17c-.57.11-.48-.2-.87-.46s-.75,0-.83-.53l-.06.37-.31.22c-.33.22-.19.42,0,.72s-.1.78-.36.31c-.14-.24,0-.33,0-.56s-.19-.51-.31-.68c.48-.17.15-.78-.14-.46a1.59,1.59,0,0,1-.91.66c-.27.06-.67.14-.7.5s.22.37,0,.55a.77.77,0,0,0-.21.9,2.58,2.58,0,0,0-1.12-1c-.53-.15-.69.09-1.17.22-.79.19-1.47-.9-1.69-1.54-.34-.95,0-2.11-.9-2.78-.7-.52-1.69.24-2.34-.41.4-.32.13-1,.12-1.45l.15.28a2.49,2.49,0,0,0,0-1c0-.34.25-.76.18-1-.12-.54-1.17-.26-1.46-.12s-.16,1.12-.38,1.43-.38-.05-.72.05-.58.21-.91,0a4.26,4.26,0,0,1-1.37-1.81,3.86,3.86,0,0,1-.41-2.13,7.69,7.69,0,0,0-.06-1.44c-.05-.34-.24-.7-.11-1a1.3,1.3,0,0,1,.61-.65c.46-.17.11-.42.35-.65l0,.29a.84.84,0,0,1,.86-.12l.51.09c.14.16.21.44.44.49s.53-.19.75.16c.11-.21-.33-.38-.1-.76-.24.05-.61,0-.44-.33a.87.87,0,0,0,1,0c.13.5.59,0,.9.26s.33.67.84.38,1,1.21,1,1.58l.14,0c-.14.53.5,1.51.89,1.8.76.58.3-1.27.21-1.5a6.49,6.49,0,0,1-.86-2.53c0-1.35,1.54-1.76,2.17-2.72h-.21c.28-.23.75-.87-.06-.72.25-.21.54-.18.65.18a5.79,5.79,0,0,1-.53-1.14c-.1-.3,0-.63-.33-.81l.24.09c-.12-.36-.24-.81.11-1,0,.3-.09,1.11.26,1.17,0,.21-.07.42-.1.62.42-.68.23-1.06.06-1.8a1.48,1.48,0,0,1,.32.41,1.17,1.17,0,0,0,.36-.66c.06-.29-.21-.54,0-.77s1.19-.2,1.22-.71c.21.15.13,0,.34.07V288l.32-.2c-.46,0-.55-.67-.43-1s.77-.66.85-1.18c.3.33,1-.25.89-.63a1.27,1.27,0,0,0,1-.44v.27l.32-.07c-.27.29-.75.47-.86.89s.13.78.49.47a7,7,0,0,1,1-.81,4.33,4.33,0,0,0,1.55-1.14c-.51-.18-.2-.55-.51-.84-.12.37-.41.68-.33,1.09-.37-.06-.73.08-1.09-.12a1.33,1.33,0,0,1-.7-1.52c-.32.26-.6,0-.75-.3.3,0,.8,0,.89-.36a.58.58,0,0,0-.46-.65c-.47-.1-.93.29-1.3.52-.61.39-.74,1.35-1.42,1.6a16.31,16.31,0,0,1,1.05-1.68,6.5,6.5,0,0,0,.63-.6l.29-.58c.65-.69,2,0,2.81-.16.64-.13.78-.68,1.3-1,.31-.19,1.31-.53,1.2-1.06s0-1.15-.58-1.2-.15-.68-.78-.54l.37-.35c-.27-.39-.94-.39-1.31-.64-.2-.13-.23-.43-.44-.59s-.47-.49-.28-.85,0-.61-.18-1.05a4.17,4.17,0,0,1-.54-1.1c-.22-.53-.5-1-.68-1.56-.14.21-.37.38-.45.64s.13.42,0,.67a2.09,2.09,0,0,1-1,1c-.24-.52-.78-.81-.78-1.44,0-.47,0-.92.08-1.38,0-.16-.77-.17-.92-.39l0-.48-.41-.53c-.35-.44-.67-.1-1.09-.23s-.79-.53-1.09-.1c-.2.27.15.57.15.85s-.22.49-.25.75l.12.5c0,.36.08,1.22-.33,1.41s-.25.51.09.78c.57.45.45,1.85.27,2.46a2.2,2.2,0,0,1-.93,1.07c-.39.27,0,.89,0,1.28s.27,1.05.13,1.35-.71.48-.56.92a4.56,4.56,0,0,1-1.05-1.73c-.23-.66.27-1.42,0-2.12-.16-.38-.62-.3-.94-.42a2.3,2.3,0,0,1-1.19-.89c-.38-.62-1.13-1.45-1.84-1,0-.43.21-2.18-.63-1.9a3.77,3.77,0,0,1,1-3.18A1,1,0,0,0,183,268c0-.19-.05-.4.15-.5.39-.19.57-.1.74-.55.07-.18.18-.8.39-.84h.54l.33-.48c.26-.4.29-.92.54-1.31s.6-.63.21-1c.53-.27.45.28.81.47s.79-.39,1-.63.63-.69.25-1.07.05-.94.29-1.33c.09-.16.36-.63.08-.73s-.48-.07-.43-.34c.1-.46-.69-.74-.85-.24s-.05,1.19-.24,1.74c-.1.27-.35.27-.51.46s0,.59-.44.72c-.24-.92.12-1.65-.11-2.57l-.54.82a4.74,4.74,0,0,0-.36-1.52c-.16-.24.11-.37.28-.53.35-.33-.15-1.65-.23-2-.12-.55.27-.89.23-1.41,0-.19.68-.24.81-.35s.93-1.11.83-1.34a.92.92,0,0,0-1.68.16,6.73,6.73,0,0,0-.22,1.18,4.86,4.86,0,0,1-.64,1.65,7.13,7.13,0,0,0-.66,1.32,1.75,1.75,0,0,0,.35,1.39c.15.3-.17.9-.22,1.24-.09.54-.66.79-.81,1.32-.7-.7.19-1.06.38-1.6s-.2-1-.38-1.46c-.21.34-.49.64-.73,1-.11.15.13.39.15.58a2,2,0,0,1-.27.85c-.47,1.31-1.83-1.17-1.94-1.7a2.06,2.06,0,0,0-1.17.48c-.17.18.18.69,0,1-.15-.16-.33-.53-.54-.61h-.43l-.54,0a1,1,0,0,0-.56-.36c.13-.47.82-.47.46-1.13-.19-.35-.63-.47-.84-.85-.32-.58-.59-1.68-1.21-.71-.32-.23,0-.63.07-.89l-.5.65c-.25-.42,0-1.29-.09-1.79-.2.33-.32.69-.7.81l.12-.57a3,3,0,0,0-1.22.66c0-.88-.79.1-.91.43a3.38,3.38,0,0,1-.27-1.22c0-.37-.34-.3-.36-.63s0-.6-.19-.8-.29-.14-.44-.49-.76-.81-.72-1.2a1.09,1.09,0,0,0-.16-.63c-.14-.34.09-.68,0-1-.41.53-1.17.12-1.59.67-.23.3-.63,1.12-1.1.68a6.22,6.22,0,0,0-.51,2.08c-.08.51,0,1.3-.47,1.64-.26-.25.14-1.45-.68-.63-.62.62-.21,1.57-.12,2.31l.4-.15c-.24.45-.32,1-.55,1.42-.2-.18-.36-.07-.47.14l0-.41c-.67.43-1.67,2.95-1.13,3.73l.24-.27a10.12,10.12,0,0,0-.34,1.42c.42,0,.37.55.3.81l.14-.27c.49.46-.21,1.32-.49,1.66s-1.51.59-1.56,1.23c.35-.19.77-.18,1.11-.33a6.23,6.23,0,0,0,.8-.61,3.77,3.77,0,0,0,.91-.82c.26-.35.06-.8.4-1.07a1.86,1.86,0,0,0,.46-.67c0-.09.66-.64.59-.36s-.31.38-.44.55c-.27.34-.22.89-.53,1.24.38.2.55-.47.86-.19a4,4,0,0,0,.39-1c.13.32,1,2.95,1.52,2.45a3.68,3.68,0,0,0,.25,2.13,6.89,6.89,0,0,1,0,2.28,11.53,11.53,0,0,0,.31-1.4,1.62,1.62,0,0,0-.07-.75l.26-.3a4.22,4.22,0,0,1-.25,1.69,1.06,1.06,0,0,0,.33-.47c0,.26,0,.5,0,.75l-.18-.27a.94.94,0,0,0-.27.77l.15,0a6.41,6.41,0,0,0,.1,1.79,4.86,4.86,0,0,0,.08-1.63c.2.23,0,1.89.53,1.68-.62.91-.15,2.53.15,3.53.07.25.78,2.4,1.18,2.08-.21.67.32,1.37,0,2l0-.15-.12.1c.42-.46-.26-.66-.46-1,0,.51-.1,1.8.31,2.11l-.26-.09c0,1.16-.39,2.27-.32,3.44s-.24,2.36.44,3.29V287a1,1,0,0,1,.15.58l-.15-.26a1.45,1.45,0,0,0,.16.62c.08.22,0,.42.07.63s.46.76.47,1.13.61.72.86,1.1a3.85,3.85,0,0,1,.47,1.43,9.51,9.51,0,0,0,.8,2.06c.07.14.63,1.52.09,1.13.23.25.29.65.56.85a1.48,1.48,0,0,1,.64.78c.11.29.07.61.25.88a6.23,6.23,0,0,1,.85,1.41c.44-.38-.23-.82-.43-1.13v-.35a3.14,3.14,0,0,0-.29-.8c-.62-1.38-1.7-2.8-1.66-4.37.8.6.88,1.73,1.33,2.57s1,1.93,1.62,2.85a8.46,8.46,0,0,1,1.53,2.61c.09.53-.18.67.19,1.17a8.59,8.59,0,0,0,1.15,1.17,16.47,16.47,0,0,0,2.22,1.72,2.18,2.18,0,0,0,1,.42c.51,0,.64-.35,1.16.08a14,14,0,0,0,1.54,1.4c.26.16,1.35.88,1.62.46l.21.27-.16,0a6.35,6.35,0,0,0,.95,1c.34.31.31.92.73,1.12l.11-.16c.22.25.67.44.81.74s.39.26.66.41.71.25.85.43.22.32.48.09c-.49-.29,0-1,.28-.84s.34.34.54.41c-.14.4.29.69.53.92s.21.71.3,1a6.84,6.84,0,0,0,.29.91c.32.66-.61.44-.31,1l-.19.06.17.25c-.21.08-.53.19-.5.48s0,.6-.21.75c.1.15.38.51.27.71l.48.45-.05-.28h.22c0,.37-.33.54-.48.83s.22.81.39,1,.67.46,1,.77a9.74,9.74,0,0,1,.87,1.15c.63.87,1.42,1.68,2.12,2.51a5.8,5.8,0,0,0,2.56,1.63c2,.83,2.51,2.73,3.11,4.71.27.9.66,1.79.84,2.69,0,.22.26.4.38.58"/><g class="cls-9"><rect class="cls-7" x="195.2" y="304.17" width="10.41" height="10.51"/></g><g class="cls-10"><rect class="cls-7" x="190.88" y="303.29" width="10.09" height="10.07"/></g><g class="cls-11"><rect class="cls-7" x="185.27" y="299.35" width="11.11" height="10.43"/></g><g class="cls-12"><rect class="cls-7" x="182.48" y="296.9" width="10.3" height="10.37"/></g><g class="cls-13"><rect class="cls-7" x="181.58" y="296.23" width="15.61" height="12.3"/></g><g class="cls-14"><rect class="cls-7" x="187.22" y="298.43" width="13.19" height="11.57"/></g><g class="cls-15"><rect class="cls-7" x="191.08" y="299.43" width="10.71" height="10.35"/></g><g class="cls-16"><rect class="cls-7" x="194.3" y="300.67" width="10.29" height="10.31"/></g><g class="cls-17"><rect class="cls-7" x="194.87" y="301.67" width="10.1" height="10.09"/></g><g class="cls-18"><rect class="cls-7" x="184.52" y="294.93" width="10.46" height="11.01"/></g><g class="cls-19"><rect class="cls-7" x="187.35" y="297.56" width="10.3" height="10.29"/></g><g class="cls-20"><rect class="cls-7" x="185.88" y="295.32" width="10.05" height="10.07"/></g><g class="cls-21"><rect class="cls-7" x="186.18" y="296.01" width="10.14" height="10.22"/></g><g class="cls-22"><rect class="cls-7" x="185.38" y="283.34" width="10.98" height="10.39"/></g><g class="cls-23"><rect class="cls-7" x="189.63" y="275.9" width="11.38" height="10.66"/></g><g class="cls-24"><rect class="cls-7" x="189.89" y="278.46" width="11.14" height="10.85"/></g><g class="cls-25"><rect class="cls-7" x="181.39" y="262.82" width="10.77" height="10.61"/></g><g class="cls-26"><rect class="cls-7" x="182.78" y="263.35" width="10.4" height="10.94"/></g><g class="cls-27"><rect class="cls-7" x="182.36" y="269.43" width="10.53" height="10.83"/></g><g class="cls-28"><rect class="cls-7" x="181.44" y="272.74" width="10.51" height="10.44"/></g><g class="cls-29"><rect class="cls-7" x="192.31" y="274.12" width="13.33" height="14.3"/></g><g class="cls-30"><rect class="cls-7" x="180.22" y="258.88" width="12.66" height="13.37"/></g><g class="cls-31"><rect class="cls-7" x="184.74" y="256.41" width="10.91" height="11.35"/></g><g class="cls-32"><rect class="cls-7" x="181.1" y="248.7" width="19.76" height="25.25"/></g><g class="cls-33"><rect class="cls-7" x="184.66" y="248.8" width="11.5" height="11.46"/></g><g class="cls-34"><rect class="cls-7" x="180.36" y="245.68" width="10.99" height="11.45"/></g><g class="cls-35"><rect class="cls-7" x="181.38" y="243.39" width="14.26" height="14.43"/></g><g class="cls-36"><rect class="cls-7" x="183.25" y="236.17" width="12.7" height="15.61"/></g><g class="cls-37"><rect class="cls-7" x="183.15" y="232.96" width="21.1" height="22.31"/></g><g class="cls-38"><rect class="cls-7" x="182.6" y="237.95" width="10.36" height="10.8"/></g><g class="cls-39"><rect class="cls-7" x="180.26" y="239.02" width="12.23" height="13.03"/></g><g class="cls-40"><rect class="cls-7" x="181.69" y="242.15" width="11.28" height="10.81"/></g><g class="cls-41"><rect class="cls-7" x="179.22" y="241.79" width="10.49" height="11.1"/></g><g class="cls-42"><rect class="cls-7" x="178.73" y="243.61" width="11.9" height="12.68"/></g><g class="cls-43"><rect class="cls-7" x="178.07" y="245.38" width="10.34" height="10.56"/></g><g class="cls-44"><rect class="cls-7" x="177.5" y="247.73" width="12.11" height="13.86"/></g><g class="cls-45"><rect class="cls-7" x="177.9" y="240.07" width="11.25" height="10.7"/></g><g class="cls-46"><rect class="cls-7" x="177.23" y="240.62" width="10.42" height="10.59"/></g><g class="cls-47"><rect class="cls-7" x="177.44" y="240.98" width="11.18" height="11.03"/></g><g class="cls-48"><rect class="cls-7" x="174.62" y="243.45" width="10.79" height="10.9"/></g><g class="cls-49"><rect class="cls-7" x="174.03" y="241.24" width="12.75" height="12.26"/></g><g class="cls-50"><rect class="cls-7" x="174.81" y="243.04" width="13.43" height="13.31"/></g><g class="cls-51"><rect class="cls-7" x="172.23" y="247.82" width="15.09" height="16.65"/></g><g class="cls-52"><rect class="cls-7" x="171.12" y="245.53" width="13.22" height="14.49"/></g><g class="cls-53"><rect class="cls-7" x="156.24" y="261.32" width="10.27" height="10.46"/></g><g class="cls-54"><rect class="cls-7" x="158.89" y="251.31" width="10.22" height="10.96"/></g><g class="cls-55"><rect class="cls-7" x="158.12" y="255.61" width="10.24" height="10.55"/></g><g class="cls-56"><rect class="cls-7" x="159.07" y="260.07" width="10.72" height="11.3"/></g><g class="cls-57"><rect class="cls-7" x="163.13" y="267.19" width="10.37" height="12.28"/></g><g class="cls-58"><rect class="cls-7" x="164" y="270.98" width="11.23" height="12.65"/></g><path class="cls-8" d="M198.77,241.15c.08.78-.62.45-.95.74a6.94,6.94,0,0,0-1.44,1.89l.77,0a1.68,1.68,0,0,1-1,1.74A4.06,4.06,0,0,0,194,247.1c.12.34.37.62.73.44a.82.82,0,0,0,.44.92c-.8.16-1.21.72-.34,1.22-.37.21-.27.63,0,.87.52.43.58-.11,1-.16a1.84,1.84,0,0,1,1.5.25l.61.38c.21.23.22.64.3.94a13.54,13.54,0,0,0,.31,1.63,3.48,3.48,0,0,1,.1,1.89c0,.25-.18,1.39,0,1.54s.8-.11.89-.39c.11.43.09.67.48.89s.26.45.32.72c-.22-.12-1.06-.6-1.23-.26a3.15,3.15,0,0,0-.21,1.34c.06,1,1.2,0,1.43-.32a3.18,3.18,0,0,1,.12,1.43c-.07.34-.25.2-.49.22-.75.06-.64,1.89-.63,2.39a1.64,1.64,0,0,0,.25,1.16,2.41,2.41,0,0,1,.43,1.61c0,.19.24.25.3.41a8.26,8.26,0,0,0,.3,1c.27.55.49,1.12.79,1.67a1.3,1.3,0,0,0,1,.79,1.15,1.15,0,0,1,.92.42c.64.77,1.16.21,1.14-.63a13.61,13.61,0,0,1,.28-1.48c0-.32-.24-.52-.05-.83a2.54,2.54,0,0,0,.25-2.73c.33.13.44,0,.57-.3.22-.44.75-.44,1.15-.6.94-.37,1.2-1.46,1.61-2.3s1.32-1.25,2.15-1.77a5.33,5.33,0,0,0,2.13-2.45c-.79.07-1-.36-1.66.23-.21-.46.41-.46.39-.88s-.34-.6.18-.81c.11.29.13.71.37.94a.55.55,0,0,0,.83-.15c.38-1.08-.78-1.8-1.44-2.34l1.14.32c.12-.44,0-1.32-.59-1.22l.41-.49c.16-.17.46-.21.57-.41s-.33-.56-.56-.57c.48-.31.92-.5.92-1.17l-.51.09c.11-.56.39-2.2-.49-2.34-.24,0-.52,0-.47-.33.1-.7.58-.64,1.13-.58.21-.82-.63-1.16-.7-1.85a6.91,6.91,0,0,0-.15-1.15c-.1-.39.23-.5.27-.84a8.43,8.43,0,0,1,1.38-3.69c.21-.35.35-.77-.12-1-.26-.13-1.06-.28-1.31-.08l-.32.51c-.13.25-.25.13-.47.16s-.49.58-.67.77a6,6,0,0,1-.91.72c.23-.7,1.14-1.67.78-2.38-.19.07-.52.07-.57.32-.09.41,0,.56-.49.67,0-.24,0-.48,0-.73l-1.35.25c.82-.78,2-.66,2.82-1.55a2.78,2.78,0,0,0-.61-.43c-.2-.09-.47-.07-.64-.22s-.55-.59-.86-.86c-.49-.43-1.84,0-2.37.17a7.26,7.26,0,0,0-1.4.74,4.05,4.05,0,0,0-1.6,1.24c-.27.46-.21.88-.82.91s-.62.44-.8.92a1.37,1.37,0,0,0-1.58-.26c-.66.28-1.59.59-1.51,1.51"/><g class="cls-59"><rect class="cls-7" x="207.61" y="255.77" width="15.1" height="13.71"/></g><g class="cls-60"><rect class="cls-7" x="213.21" y="249.44" width="10.12" height="10.22"/></g><g class="cls-61"><rect class="cls-7" x="207.95" y="244.39" width="10.44" height="10.57"/></g><g class="cls-62"><rect class="cls-7" x="272.14" y="232.82" width="10.41" height="10.4"/></g><g class="cls-63"><rect class="cls-7" x="270.93" y="223.57" width="10.5" height="10.64"/></g><g class="cls-64"><rect class="cls-7" x="273.3" y="232.03" width="14.93" height="15.62"/></g><g class="cls-65"><rect class="cls-7" x="258.51" y="212.66" width="10.9" height="10.66"/></g><g class="cls-66"><rect class="cls-7" x="254.92" y="218.38" width="11.08" height="10.68"/></g><g class="cls-67"><rect class="cls-7" x="254.31" y="218.38" width="10.45" height="10.41"/></g><g class="cls-68"><rect class="cls-7" x="252.93" y="215.89" width="11.42" height="10.62"/></g><g class="cls-69"><rect class="cls-7" x="251.48" y="216.55" width="12.27" height="12.03"/></g><g class="cls-70"><rect class="cls-7" x="241.52" y="221.22" width="12.13" height="12.1"/></g><g class="cls-71"><rect class="cls-7" x="237.28" y="220.42" width="14.59" height="12.56"/></g><g class="cls-72"><rect class="cls-7" x="235.4" y="230.09" width="14.36" height="19.68"/></g><g class="cls-73"><rect class="cls-7" x="237.56" y="242.04" width="10.78" height="10.97"/></g><g class="cls-74"><rect class="cls-7" x="230.01" y="225.04" width="11.26" height="13.06"/></g><g class="cls-75"><rect class="cls-7" x="228.54" y="225.45" width="11.3" height="11.97"/></g><g class="cls-76"><rect class="cls-7" x="229.02" y="227.89" width="10.55" height="10.47"/></g><g class="cls-77"><rect class="cls-7" x="226.37" y="228.01" width="12.03" height="11.4"/></g><g class="cls-78"><rect class="cls-7" x="216.84" y="232.2" width="16.01" height="16.63"/></g><g class="cls-79"><rect class="cls-7" x="216.41" y="259.2" width="10.46" height="10.46"/></g><g class="cls-80"><rect class="cls-7" x="219.84" y="260.54" width="10.19" height="10.42"/></g><g class="cls-81"><rect class="cls-7" x="217.69" y="263.15" width="10.33" height="11.05"/></g><g class="cls-82"><rect class="cls-7" x="226.95" y="263.48" width="10.63" height="10.46"/></g><g class="cls-83"><rect class="cls-7" x="227.53" y="262.56" width="10.81" height="11.02"/></g><g class="cls-84"><rect class="cls-7" x="227.78" y="263.77" width="10.54" height="10.33"/></g><g class="cls-85"><rect class="cls-7" x="230.42" y="259.62" width="10.33" height="10.96"/></g><g class="cls-86"><rect class="cls-7" x="231.87" y="258.33" width="10.6" height="10.53"/></g><g class="cls-87"><rect class="cls-7" x="231.88" y="257.93" width="10.35" height="10.36"/></g><g class="cls-88"><rect class="cls-7" x="218.03" y="262.71" width="15.82" height="18.19"/></g><g class="cls-89"><rect class="cls-7" x="217.2" y="266.42" width="12.34" height="13.74"/></g><g class="cls-90"><rect class="cls-7" x="230.06" y="274.25" width="10.58" height="11.35"/></g><g class="cls-91"><rect class="cls-7" x="230.2" y="275.8" width="11.12" height="11.77"/></g><g class="cls-92"><rect class="cls-7" x="233.25" y="276.68" width="11.84" height="11.33"/></g><g class="cls-93"><rect class="cls-7" x="238.1" y="275.39" width="11.45" height="11.24"/></g><g class="cls-94"><rect class="cls-7" x="240.05" y="276.61" width="11.54" height="10.67"/></g><g class="cls-95"><rect class="cls-7" x="244.86" y="274.46" width="11.01" height="11.14"/></g><g class="cls-96"><rect class="cls-7" x="227.22" y="277.82" width="10.64" height="10.46"/></g><g class="cls-97"><rect class="cls-7" x="242.08" y="275.29" width="10.25" height="10.53"/></g><g class="cls-98"><rect class="cls-7" x="240.34" y="273.66" width="10.18" height="10.19"/></g><path class="cls-8" d="M287.24,265.54l.2.07-.1-.34.26.09c-.09-.46.23-.56.3-1a10.9,10.9,0,0,0,.1-1.31l-.1-.36.11-.18-.07-.41a3.75,3.75,0,0,0-.38-1.16c.22-.1,0-.66-.06-.88s0-.63-.1-.77-.16-.54-.3-.83-.24-.18-.35,0a.31.31,0,0,1-.23.15c.17-.36.22-1.06-.3-1.07.39-.31-.39-.43-.53-.6-.39-.45-.51-.77-1.09-.72-.28,0-.32-2-.28-2.19h.13l-.16-.39c-.18.15-.3.36-.54.26-.07.21.12,1.28-.35.71-.16-.2-.36-.1-.57-.2s-.26-.36-.35-.62c.48,0,.09-.56.1-.78a3.72,3.72,0,0,0-.12-1.2l.3-.09c.17.12.16.23.21.44.12.46.34.57.42,1,0-.32-.05-.63,0-.92.08-.52.08-.6.58-.75.15.36.27,1.1.73,1.13l.12-.28.42.32c-.1.25.11.31.29.49a10.81,10.81,0,0,1,.78,1.14c0-.72.33-1.26-.19-1.93a4.08,4.08,0,0,0-.7-.83l-.57-.38-.44-.11c-.3-.23-.17-.52-.21-.83a1.91,1.91,0,0,0-.36-1.18c-.26-.32-.14-.71-.32-1l-.12-.91c.13.32.4.21.43-.07a2.61,2.61,0,0,0-.09-.8c-.15-.5-.44-1-.61-1.51-.35-1.08-.95-2.09-1.39-3.14a5.17,5.17,0,0,0-1-1.21,10,10,0,0,1-1.09-1.47l-.44-.43c-.28-.33-.3-.27-.71-.35l-.22-.13-.21.26a1.13,1.13,0,0,1,.23.8,1.79,1.79,0,0,0-.44-.59c-.09.23.09.41.21.6l-.56-.55c0,.3-.24.39-.43.16l-.26-.82c-.21-.5-.42-1-.67-1.45L275,234.13c-.12-.24-.24-1.22.21-1.07-.13-.19-.16-.29,0-.4l.16-.38-.33-.4c0-.25.35-.1.24-.43.32.05.27.42.58.5.09-.24-.23-.61-.08-.77s-.07-.65-.28-.36a6.73,6.73,0,0,1-1.73-2.61l.15,0-.11-.3a4.92,4.92,0,0,0,1,.84,4.86,4.86,0,0,1-.82-1.17c-.13-.46-.71-.64-.9-1.13.27,0,.95.85,1.18,1.05a6.58,6.58,0,0,1,.84,1.11c.35.46.73.91,1.07,1.38.17.23.34.47.5.71s.15.51.25.66l.52.48.3.49a11.08,11.08,0,0,0,1.07,1.09l2.74,2.28a6.89,6.89,0,0,0-.87-1.34c-.35-.43-.42-.84-.8-1.2a1.64,1.64,0,0,1-.47-.57c-.1-.27,0-.34-.17-.58-.28-.44-.84-.51-1.08-1.05l.2.06c-.13-.32-.47-.32-.64-.51s-.45-.66-.77-.63l.12.22a5.5,5.5,0,0,1-1-1c-.27-.29-.68-.51-.77-.93l.12,0-.39-.65.47.37c-.18-.25-.79-.85-.63-1.15l.44.1a11.65,11.65,0,0,1-1.26-1.52c-.33-.45-1.13-1.15-1.19-1.74l.18,0a7.21,7.21,0,0,0-1.82-1.11l0,.17-.39-.25-.15-.38a1.65,1.65,0,0,0-.44-.4l-2.19-1.28-1.73-1-.63.25-.16,1c.5.24,1.29.43,1.52,1-.31-.13-.5,0-.79-.19s-.32-.69-.59-.33l.67.63c-.42.21-.18.55-.21.89-.05.67-.48.16-.8,0s-.72-.33-.94,0-.13.3,0,.6l0,.54c-.17-.1-.81-.5-.8,0-.43,0-1.12-.65-1.31,0-.09.29-.35.18-.54.38l-.63.7.47.14c-.43.57.8.83,1.14,1-.22.26-.26.84-.63.79,0,.24.1.38.24.56a1.51,1.51,0,0,1-.9,0,5.84,5.84,0,0,1,1.19,1.19,1.78,1.78,0,0,1-1.24-.18c-.45-.16-.65-.55-1-.86a1.64,1.64,0,0,0-2.36.46,2.51,2.51,0,0,0,.89.48,1.05,1.05,0,0,1-.56.73c-.47.18-.48.08-.89-.24a.93.93,0,0,1-.61.42l-.13.71-.87-.35.55.34c-.16.32-.64.25-.94.28.19.38.22.37.63.45,0,.36,0,.86-.33,1.07-.17-.24-.36-.41-.35-.71a1.92,1.92,0,0,0-.19-.72,9.2,9.2,0,0,0-.75-1.94,2,2,0,0,0-3-.29l.29.3-.25.27-.53-.69c-.22,0-.58.42-.7.55l-.13-.69-.86.06.43,1.16c.11.31.49.47.75.65l-.41.4.54.25-.35.7-.37-.4c0,.22-.11.44-.16.66l-.32.37a2.06,2.06,0,0,1-.1,1.46,2.68,2.68,0,0,0,.23,1.24c.08.33.7.57.95.7-.47.59-.81,1.21-1.31,1.79a6,6,0,0,1,1.1.84c.22.23.35.12.66.06l.64.27c-.07.17-.1.45-.3.4a2.53,2.53,0,0,0-.62-.18,2.12,2.12,0,0,0-.54.05,1.49,1.49,0,0,1-.72,0l0,.41.71.07v.3l-.48-.08c-.34.79,1.08.61,1.49.77l-1,.26c-.35.09-.49-.13-.71-.44a2.9,2.9,0,0,0-.56-.75,1.88,1.88,0,0,0-.91-.38c0,.33.32.27.55.3s.42.42.49.63-.08.46.07.78.24.41.64.56c.61.24.67.69,1,1.18a4,4,0,0,0,.63.65c.18.16.47-.1.67-.19-.09.46-.07.49.23.86.15.18.65.42.67.63a4.17,4.17,0,0,0,.21,1c.08.25-.12.75-.18,1l-.68-.16a2.08,2.08,0,0,0,.14-1.12,5.34,5.34,0,0,0-.55-1.16c-.18-.43-.54-.18-.79-.47l-1.07-1.25c-.18-.21-.47-.74-.74-.85l-.6-.25-.34-.78c-.19-.41-.35-.63-.8-.61s-.33.06-.47-.26l-.49-.32a1.9,1.9,0,0,0,.44,1.75c.15.21.52.66.47.93a1,1,0,0,0,.18,1c.18.29.5.28.65.63s.28.61.67.58.49.33.78.4c.47.1.45.21.63.68a5.28,5.28,0,0,0-1.21-.22,2.3,2.3,0,0,1-.63,0,.61.61,0,0,0-.29.05.59.59,0,0,1-.28.05l-.64-.09a1.59,1.59,0,0,1-.55.16,5,5,0,0,1-1.43-.26c.09.42.07.44.46.58s.51,0,.76.18.66.25.65.58l-.18.41.25.35c-.44.16-.53-.19-.78-.53-.13.27-.19.87-.44.95-.48.14-.61.3-.48.8a1.52,1.52,0,0,1-.95-.68,15.49,15.49,0,0,1-1.2,2.53c-.16.27.61.58.2,1.05l-.53.12a1.07,1.07,0,0,0-.74-.15c0-.53,0-.55.36-.87-.16-.12-.63-.6-.87-.49a2.64,2.64,0,0,1-1,.27,1.69,1.69,0,0,1,1.12,1.25c.12.37.33.12.5.39a1.17,1.17,0,0,1,.23.87,2.75,2.75,0,0,0-.82.07l-.31.83-.16.68.87.69a2.84,2.84,0,0,1-.89.06,3.17,3.17,0,0,0-.75,0l-.26.09,0,.4c.38.19.46.28.83.12l.27.5-.53.25c-.2,0-.45-.19-.65-.23l-.6,0-.35-.67c-.26-.49-.29-.76-.79-.91a3.13,3.13,0,0,1-1.28-.67,7.85,7.85,0,0,0,1.56.21,2.52,2.52,0,0,0,.83-.12c.24-.05.53,0,.74-.08a1.18,1.18,0,0,0-.13-2.24c-1-.27-2.31-.84-3.38-.55-.36.09-.52.27-.72-.09l-.59-.12c-.38.56-.87.4-1.47.25.56-.12.57-.16.82-.7a7.77,7.77,0,0,0-1.76-.21l0,.85-.34-.44-.21.56-.3-.71a1.35,1.35,0,0,0-.29.83c-.41-.11-.69-.21-.78.35s-.14.84-.6,1l-.49.21a2.88,2.88,0,0,1-.09.7l-.36.41c.09.24.13.45.43.35l-.23.53-.19-.36-.16.39-.13-.63a4.66,4.66,0,0,1-.49,1l.38.2a1.4,1.4,0,0,0-.65,1,2.82,2.82,0,0,1,1.19-1.08,9.49,9.49,0,0,0-.43,3.28c0,.26,0,.53,0,.79s-.24.4-.26.62c-.06.58-.17,1.13-.29,1.7l-.37-.18c0,.28-.09.56-.14.84s-.32.18-.46.33l-.21.63c-.13.27-.27.53-.39.8l.21.27v.31c-.05.26.15.5.26.74a1.67,1.67,0,0,0,.45.53c.09.08,0,.52.16.72l.34-.21c-.3.93.32,1.17,1.14,1.07.27,0,.45-.57.54-.8l.2-.53.25-.08,0-.38c.6.29,1.07,1.21,1.48,1.74l.64.63c0,.43.31.53.41.94l.64-.22c-.33-.44-.06-.75.33-.9s.3-.46.21-.83c-.12-.52-.24-1.05-.36-1.58-.07-.3.33-.7.47-1l-.22-.1c.37-.71,0-.9-.62-1.2s-.62-.92-.78-1.51a2.62,2.62,0,0,1,.39-1.59,6.13,6.13,0,0,0,.41-.7c.08-.29,0-.57.16-.88l-.43-.15.07-.4-.13-.34c.17-.25.09-.66.37-.69s.51-.33.74-.35.57.34.7.61-.16.53-.17.81a2.52,2.52,0,0,1-.16.76c-.13.47-.6,1.42-.34,1.94a2.86,2.86,0,0,0,.53.77c.21.22.11.55.23.83.21.5,1.24.5,1.62.25s.8-.93,1.31-1.14.48-.16.92.06l.32-.18.36.31H240c-.17,0-.36,0-.42.14s-.16.65-.42.75a1.84,1.84,0,0,1-.74.17c-.27,0-.5.25-.72.4-.54.35-.3.75.05,1.17a.2.2,0,0,0,.21.08c.07,0,.15,0,.25.21s.33.54.21.82-.36.17-.61,0-.42-.21-.62-.08c-.41.28,0,1.18.12,1.54a1.59,1.59,0,0,1,.2.68c0,.29-.27.44-.27.67s.05.55-.22.64-.35,0-.59-.3l-.67.48-.34.5a2.09,2.09,0,0,0-.6.48c-.17.19-.49.08-.72.07l.16-.23-.29-.24c-.09.31-.32.29-.46.53s-.26.52-.61.6c0-.43-.2-.35-.54-.39l-.49-.36.06-1c0-.33.43-.26.17-.66l-.29.09-.24-1.07c-.35.22-.29.51-.62.71a.63.63,0,0,0-.22.74c.12.31.19.76.49.89s.34.55.59.78l-.12.22.26.16a.6.6,0,0,0-.09.61c-.3-.11-.61-.06-.72.26s-.67.13-.76.48.59.31.41.64-.43.08-.53-.28c-.31.17-.08.6-.16.89a2,2,0,0,1-.61,1.09l-.41.41c-.06.2.13.49.07.69-.17.5-.63.34-.59,1a.77.77,0,0,0-.58.17c-.19-.24-.25-.4-.55-.22a4.82,4.82,0,0,1,.54.84l-.64.26c-.08,0-.12,0-.17-.08a.17.17,0,0,0-.27,0l-.71.46c-.07.26.24.44.42.49l.32-.07.34.1c.36,0,.38,0,.71.2s.1.31.33.47.43.11.57.43a5.12,5.12,0,0,1,.25,1.49c.07.72-.32.72-.92.78a1.41,1.41,0,0,0-.61.27,1.09,1.09,0,0,1-.55,0h-.22a2.27,2.27,0,0,0-.68.2,1.13,1.13,0,0,1-.66,0c-.08.32-.08.37-.36.51s-.07.33,0,.46a3.84,3.84,0,0,1,.53,1.16,3,3,0,0,1,.1,1.25c-.11.27-.09,1.11.4.81a3.47,3.47,0,0,1,.15,1.09l.68-.21c.19-.16.53-.3.75-.07s.46.63.74.5.25-.49.5-.61a4.36,4.36,0,0,1,.83-.29c.46-.13.44-.14.6-.6s.39-.33.4-.72a1.5,1.5,0,0,1,.37-.71c-.52-.23-.51-.43-.35-.95a2,2,0,0,1,.7-1.26c.36-.31.6-.6.41-1l-.14-.56c.13-.18.24-.49.47-.49a3.83,3.83,0,0,1,.39,0c.35,0,.75.07.94-.12l.32-.51c.22-.22.35-.32.4-.63s1-.37,1.11-.11c.2.42.78.59.88,1,.36-.27.8.31,1.16.42a.43.43,0,0,0,.31,0,.62.62,0,0,1,.24,0c.21,0,.42.3.65.29a.3.3,0,0,1,.24.13c.06.06.12.13.21.13.35,0,.35,0,.55.28l.33.57a1.52,1.52,0,0,0,0,.69c.48-.07.17-.61.21-.84l.21-.27c-.09-.27-.1-.26-.37-.34v-.72h.52c.18.06.05.3.32.24.21-.62-1.41-.71-1.74-.77l0-.31a1.27,1.27,0,0,1-1.23,0l-.34-.46A1.39,1.39,0,0,0,237,278l-.48-.29c-.13-.23,0-.43-.25-.59s.32-.78.61-.72a.54.54,0,0,0,.32.62l.08-.47a1.25,1.25,0,0,1,.85.68c.15.39.67.3,1,.36a10.88,10.88,0,0,1,1,.41c.3.09.94.11,1,.44s.11,1,.53,1.1.61.55.89.76.64.2,1,0a.2.2,0,0,1,.26,0,.23.23,0,0,0,.2.06,1,1,0,0,1,.65.08l-.16-.42h.36c-.32.06-.24-.21-.44-.27a1,1,0,0,1-.62-.3l-.53-.4-.21-.52c.24.13.33.23.58.13s0-.33-.11-.38c.21,0,.27-.1.32-.29l.49-.22c.21-.07.29-.14.48,0l.38-.08a1.62,1.62,0,0,0,0,1l.42-.24a.8.8,0,0,0,.35.77h-.36c0,.31.21.3.43.3h.16c.1,0,.09.34.38.35l-.07.32.53-.22,0,.22a1.22,1.22,0,0,1,.61,0c.47,0,1,.06.78-.61.23-.06.65-.18.86,0,.4.3.47,0,.81-.16l.39-.7c.45,0,.53,0,.72-.43.19.2,0,.26,0,.48l.19.2,0,.3.34.73,0,.46c0,.52.08,1,.12,1.56s-.44,1.37-1,1.05c0,.34-.24.31-.32,0a1.45,1.45,0,0,0-.78.46,2.82,2.82,0,0,1-2,.73l-.86.22c-.27-.12-.28-.19-.65-.07a1.32,1.32,0,0,1-.79,0,1.07,1.07,0,0,0-1,.11.93.93,0,0,0-.4,1.38.54.54,0,0,1-.22.77.9.9,0,0,1-.74,0,1.41,1.41,0,0,0-.48-.1c-.35,0-.72.21-1.06,0s-.35-.43-.86-.44c-.68,0-1.87.51-2.31-.12-.11.07-.61.19-.61-.13s.36-.61.23-1.06-.41-.35-.52-.66l.2-.51-.33.29c-.22-.52-.58-.26-.87,0a6.33,6.33,0,0,1-1.72.7c-.73.33-1.51.63-2.26.92a1.46,1.46,0,0,0-.71.63c-.17.24-.44.35-.63.58s-.34.46-.61.54a6.9,6.9,0,0,0-.89.18.88.88,0,0,1-.6-.06c-.3-.1-.58-.2-.72.13s0,1.1-.3,1.53-.81.81-1,1.52a1.48,1.48,0,0,0-.05.81c.09.3.3.49.27.82a2.65,2.65,0,0,1-.71,1.39c-.18.18-.47.21-.68.35s-.11.54-.2.8-.43.53-.51.91-.06.73-.16,1.08a8.23,8.23,0,0,0-.47,1.86c0,.31.83,1.31.72,1.39s.17.33.25.47a2.44,2.44,0,0,1,.29,1.06c0,.58.1,1.31-.37,1.71,0,0,49.87-55.44,61.74-37.65"/><g class="cls-99"><rect class="cls-100" x="240.35" y="271.92" width="11.38" height="10.92"/></g><g class="cls-101"><rect class="cls-7" x="250.3" y="224.05" width="10.66" height="10.38"/></g><path class="cls-102" d="M162.09,305.57l137.13-46m-65.68,31.59L207.67,214"/><line class="cls-103" x1="158.87" y1="280.61" x2="287.04" y2="237.61"/><path class="cls-102" d="M165.88,251.44l98.22-32.95m-51.57-5.69c17.52,7.67,32.78,35.35,41.77,64.24m22.23-13.38c-9.69-25.77-30.57-47.33-60-51.54m-13.15,3.75c-11.44,20.4-2.16,62.61,13,94.85m-17.39,15c-23.27-30.72-28-78.95,1.83-109"/><path class="cls-104" d="M297.66,255.37a72.32,72.32,0,1,0-108.79,86.25"/><g class="cls-105"><rect class="cls-106" x="172.31" y="425.86" width="13.63" height="13.63"/></g><g class="cls-107"><rect class="cls-108" x="207.98" y="203.05" width="96.75" height="46.6"/></g><g class="cls-109"><rect class="cls-110" x="177.83" y="195.36" width="134.14" height="52.5"/></g><g class="cls-111"><rect class="cls-108" x="218.49" y="318.11" width="103.13" height="98.49"/></g><g class="cls-112"><rect class="cls-108" x="313.89" y="318.73" width="85.94" height="97.86"/></g><g class="cls-113"><rect class="cls-108" x="389.58" y="317.23" width="91.08" height="100.87"/></g><g class="cls-114"><rect class="cls-7" x="218.64" y="415.47" width="67.92" height="67.35"/></g><g class="cls-115"><rect class="cls-7" x="268.75" y="415.71" width="92.82" height="67.51"/></g><g class="cls-116"><rect class="cls-7" x="343.67" y="415.47" width="67.93" height="67.35"/></g><g class="cls-117"><rect class="cls-7" x="405.58" y="415.87" width="57.1" height="66.94"/></g><g class="cls-118"><rect class="cls-7" x="457.15" y="415.87" width="60.04" height="66.94"/></g><g class="cls-119"><rect class="cls-7" x="508.97" y="415.06" width="52.71" height="68.57"/></g><g class="cls-120"><rect class="cls-110" x="219.14" y="480.92" width="16.21" height="38.23"/></g><g class="cls-121"><rect class="cls-110" x="231.2" y="480.92" width="35.08" height="38.23"/></g><g class="cls-122"><rect class="cls-110" x="259.86" y="480.92" width="33.39" height="38.23"/></g><g class="cls-123"><rect class="cls-110" x="286.79" y="480.92" width="31.5" height="38.23"/></g><g class="cls-124"><rect class="cls-110" x="312.59" y="480.92" width="34.4" height="38.23"/></g><g class="cls-125"><rect class="cls-110" x="340.57" y="480.92" width="35.09" height="38.23"/></g><g class="cls-126"><rect class="cls-110" x="368.79" y="480.72" width="39.93" height="38.43"/></g><g class="cls-127"><rect class="cls-110" x="396.21" y="480.92" width="33.39" height="38.23"/></g><g class="cls-128"><rect class="cls-110" x="423.46" y="480.92" width="16.21" height="38.23"/></g><g class="cls-129"><rect class="cls-110" x="434.27" y="480.44" width="40.01" height="39.2"/></g><g class="cls-130"><rect class="cls-110" x="468.62" y="480.92" width="35.08" height="38.23"/></g><g class="cls-131"><rect class="cls-110" x="496.83" y="480.72" width="39.93" height="38.43"/></g><g class="cls-132"><rect class="cls-110" x="529.94" y="480.92" width="30.28" height="38.23"/></g><g class="cls-133"><rect class="cls-108" x="159.6" y="235.52" width="287.07" height="283.63"/></g><g class="cls-134"><rect class="cls-110" x="172.17" y="249" width="274.15" height="270.08"/></g></g></g></svg>