<svg xmlns="http://www.w3.org/2000/svg" xmlns:xlink="http://www.w3.org/1999/xlink" viewBox="0 0 715 715"><defs><style>.cls-1{fill:url(#linear-gradient);}.cls-2{fill:#0083a8;}.cls-3{fill:#0082a8;}.cls-4{fill:#0183a9;}.cls-5{fill:#010101;}.cls-6{fill:#939598;}.cls-7{fill:#959799;}.cls-8{fill:#949699;}.cls-9{fill:#96989b;}.cls-10{fill:#929497;}.cls-11{fill:#070707;}.cls-12{fill:#030303;}.cls-13{fill:#fdfdfd;}.cls-14{fill:#101010;}.cls-15{fill:#363636;}.cls-16{fill:#2a2a2a;}.cls-17{fill:#2f2f2f;}.cls-18{fill:#252525;}.cls-19{fill:#231f20;}.cls-20{fill:#dbdbdc;}.cls-21{fill:#0083a9;}.cls-22{fill:#88c4d6;}.cls-23{fill:#fefefe;}.cls-24{fill:#fafafa;}.cls-25{fill:#fafafb;}.cls-26{fill:#f8f8f8;}.cls-27{fill:#fbfbfb;}</style><linearGradient id="linear-gradient" x2="715" y2="715" gradientUnits="userSpaceOnUse"><stop offset="0" stop-color="#fefefe"/><stop offset="1" stop-color="#ededed"/></linearGradient></defs><title>creativity-awards</title><g id="Layer_2" data-name="Layer 2"><g id="Layer_1-2" data-name="Layer 1"><rect class="cls-1" width="715" height="715"/></g><g id="Layer_2-2" data-name="Layer 2"><path d="M154.56,463c4.5-.15,8.82-.92,12.67-3.44a6.93,6.93,0,0,0,.68-.41c3-2.5,2.82-4.68-.56-6.58a27.05,27.05,0,0,0-11.56-3.44c-.85-.43-1.8,0-2.67-.29-.64-.47-1.89.56-2.13-.88,1.25-.62,2.55-.28,3.84-.18,5,.64,9.93,1.43,14.2,4.42a5.51,5.51,0,0,1,2.33,3.36c1.38,5.41.26,8-4.68,10.43a27.81,27.81,0,0,1-8.86,2.57c-.34,0-.73-.06-.83.43H144.91c-1.77-.46-3.53-.94-5.3-1.38a21.48,21.48,0,0,1-7.06-3.44c-2.65-1.84-1.61-4.55-1.8-7.39A25.49,25.49,0,0,0,147.47,463,26.3,26.3,0,0,0,154.56,463Z"/><path class="cls-2" d="M330.16,391.32c-9.76,0-19.53,0-29.29,0-1.46,0-2.08-.14-2.07-1.9.09-17.16.06-34.32.06-51.48.35-.35.8-.26,1.22-.26h29.21a2.26,2.26,0,0,1,1,.16l0,0a51.16,51.16,0,0,1,0,8.65l-.05,0c-6.28.34-12.57.05-18.85.16a4.68,4.68,0,0,0-2.31.2c-.85.47-.44,1.28-.45,1.93,0,2.8.08,5.6-.06,8.4-.09,1.74.36,2.39,2.22,2.3,3.37-.16,6.74,0,10.12,0,5.88,0,5.91,0,5.86,6,0,1,.44,2.16-.43,3.08-5.06.24-10.13,0-15.2.12a4.24,4.24,0,0,0-2.3.21,76.86,76.86,0,0,0,0,12.93c1.61.48,3.25.18,4.88.21,5.36.1,10.72-.11,16.08.11l.41.12A26.32,26.32,0,0,1,330.16,391.32Z"/><path class="cls-3" d="M494.61,337.93c0,2.76-1.3,5.2-2.07,7.76-4.44,14.75-9,29.48-13.42,44.23-.31,1-.76,1.41-1.77,1.39-1.72,0-3.44,0-5.17,0a1.42,1.42,0,0,1-1.59-1.08c-.75-3.28-1.86-6.44-2.87-9.63-1.6-5-3-10.14-4.55-15.18-2.72-8.63-5.06-17.38-8.08-25.92-.22-.61-.37-1.24.31-1.71a67.33,67.33,0,0,1,9.89.11q4.52,16,9,32a17.29,17.29,0,0,0,.82,2L484.3,338A36.85,36.85,0,0,1,494.61,337.93Z"/><path class="cls-2" d="M219.86,392.2h-7.19c-.68-.45-1.5,0-2.19-.34-6.68-1.1-11.24-5-12.2-13-.14-9.62-.17-19.23,0-28.85.63-7.38,5.49-12,13.05-13a82.1,82.1,0,0,1,9.45,0,15.84,15.84,0,0,1,11.8,8.19c.86,1.46.88,2.37-.86,3.08a35,35,0,0,0-5,2.42c-1.77,1.08-2.74.79-3.62-1.14a5.67,5.67,0,0,0-4-3.4,16.78,16.78,0,0,0-5.72,0c-3.13.53-4.7,2-5.1,4.74a2.34,2.34,0,0,0-.21,1.46q0,12.17,0,24.35a2.51,2.51,0,0,0,.19,1.47c.43,2.77,1.77,4.22,4.31,4.67a24.36,24.36,0,0,0,7,0,7,7,0,0,0,3.7-3.6c.74-1.58,1.66-2,3.21-1.12,1.87,1,3.76,2,5.7,2.86,1.15.51,1.26,1.07.72,2.14-2.3,4.57-5.69,7.75-10.82,8.83C221.37,392.2,220.55,391.77,219.86,392.2Z"/><path class="cls-2" d="M418.7,338v8.48c-2.24.61-4.52.11-6.78.28-1.2.09-2.42-.22-3.6.2-.85.57-.42,1.45-.43,2.16q0,19.71,0,39.41c0,2.78,0,2.78-2.87,2.79-1.72,0-3.46-.12-5.17,0s-1.84-.49-1.84-1.93c.05-13.28,0-26.56,0-39.84,0-.89.31-1.89-.58-2.6-2.54-.49-5.11-.09-7.66-.23a6.53,6.53,0,0,1-2.54-.19h0a39.79,39.79,0,0,1,0-8.63h0a1.64,1.64,0,0,1,.82-.19h29.65A1.23,1.23,0,0,1,418.7,338Z"/><path class="cls-2" d="M530,338a5.48,5.48,0,0,1,2.33-.29c9,0,18,.05,26.93,0,1.93,0,2.62.57,2.38,2.45-.26,2.11.92,4.81-.54,6.2s-4,.36-6,.39c-4.4.06-4.4,0-4.4,4.47,0,12.57-.05,25.13.05,37.7,0,2.08-.65,2.62-2.57,2.46a27.81,27.81,0,0,0-4.95,0c-1.88.17-2.26-.62-2.25-2.34.06-13.07,0-26.14,0-39.21,0-3.06,0-3.06-3-3.06-2.08,0-4.17,0-6.25,0-1.26,0-1.85-.37-1.78-1.73s0-3,0-4.52Z"/><path class="cls-2" d="M441.84,391.32c-2.47,0-4.95,0-7.42,0-.67,0-1.43.29-2-.37a4.18,4.18,0,0,1-.12-1.49q0-24.92,0-49.85a2.93,2.93,0,0,1,.2-1.68h0a53.78,53.78,0,0,1,9.5-.07l.06.06a5.41,5.41,0,0,1,.13,1.92q0,24.77,0,49.54C442.2,390,442.57,390.78,441.84,391.32Z"/><path class="cls-4" d="M516.19,337.89c.06.71.17,1.42.17,2.14q0,24.5,0,49a17.85,17.85,0,0,1-.2,1.91c-3.07.83-6.21.11-9.3.4-.73-.55-.35-1.32-.36-2,0-6.23,0-12.47,0-18.7-.06-10.35.06-20.7,0-31.06a4.22,4.22,0,0,1,.14-1.7l.05,0a53.28,53.28,0,0,1,9.5,0Z"/><path d="M143.53,434.06c.55-7.66,3.12-14.82,5.58-22a6.23,6.23,0,0,0-.46-5.27c-2-3.83-3.94-7.65-6-11.45-2.72-5.08-5.39-10.19-8.28-15.17a69.31,69.31,0,0,1-7-17.51,40.61,40.61,0,0,1-.67-6.26,6.32,6.32,0,0,1,0-2.57c.31-1.42-.11-2.94.61-4.31.36,0,.63,0,.38.46-.85,7.57,2.1,14.1,5.59,20.5,5,9.25,10.91,18.08,14.89,27.9,1,2.51,1.85,5.09,2.94,8.1a113.57,113.57,0,0,0,3.77-13.56,45,45,0,0,0,.81-6c.26-4-.92-7.74-2.24-11.43a80.8,80.8,0,0,0-8.11-15.63c-.27-.45-.29-.79.36-.86,7,9.48,13.23,19.26,12.14,31.83-.47.83,0,1.78-.32,2.63C156,404.74,152,415.28,148.72,426c-1.58,5.17-3.63,10.23-3.83,15.73a8.65,8.65,0,0,0,0,4,11,11,0,0,0,3.16,8,5.72,5.72,0,0,0,6,2c-1.45,1.81-3.38,1.9-5.33.32-3-2.38-4.11-5.77-5-9.27-.81-3.34-.33-6.77-.51-10.15C143.69,435.85,143.19,434.9,143.53,434.06Z"/><path class="cls-5" d="M156.15,302.15a36,36,0,0,0-5.21,22.33,38.33,38.33,0,0,0,4.44,14.23c1.45,2.82,3,5.59,4.5,8.37a16.15,16.15,0,0,1,.87,14c-1-.4-.52-1.06-.32-1.68a34.41,34.41,0,0,0-.55-7.17c-1-5.09-4-9.23-6.59-13.54a33.38,33.38,0,0,1-5-12.93,43.46,43.46,0,0,1,0-6.88c.78-6.49,3.67-12.06,7.41-17.28C156.08,301.57,156.28,301.7,156.15,302.15Z"/><path class="cls-6" d="M405.76,404.73c1.52-.32,2.35.45,3,1.73,1.39,2.74,2.86,5.44,4.29,8.16.16.3.25.68.93.63,0-2.75,0-5.51,0-8.27,0-.92-.6-2.3,1.32-2.26,1.74,0,1.23,1.28,1.23,2.15,0,4.89,0,9.77,0,14.66a2.91,2.91,0,0,1-2.57,0c-2.15-3.35-3.45-7.18-6-10.64v3.41c.27,2.07,0,4.15.13,6.23,0,.89-.25,1.32-1.22,1.29-.81,0-1.39-.11-1.37-1.14C405.7,415.33,405.34,410,405.76,404.73Z"/><path class="cls-6" d="M312.69,421.64l-6.07-11.06v11a3.06,3.06,0,0,1-2.58-.08c0-4.88,0-9.77.07-14.65,0-.72-.58-1.84.81-2.07,1.14-.19,1.67.52,2.14,1.4a96.87,96.87,0,0,0,5.48,9.53v-3.23a37.07,37.07,0,0,1,.14-7.72h2.15c.41,5.34.15,10.69.14,16C315,422.39,313.57,421.63,312.69,421.64Z"/><path class="cls-6" d="M214.8,404.73a2.54,2.54,0,0,1,3,1.7c1.48,3.07,3.21,6,4.84,9,.35.06.53-.11.52-.44-.07-2.15.26-4.31-.19-6.45,0-.64,0-1.29,0-1.93,0-.87-.31-1.91,1.24-1.94s1.29,1,1.29,1.85q0,7.5,0,15c-.87.21-1.75.49-2.56-.17l-5.29-10.16c-1,.23-.53,1-.54,1.56-.05,2.58,0,5.16,0,7.73,0,.94-.37,1.29-1.28,1.24-.68,0-1.32,0-1.3-1C214.7,415.43,214.26,410.08,214.8,404.73Z"/><path class="cls-6" d="M382.83,408.22a3.79,3.79,0,0,1,3.15-3.57,14.56,14.56,0,0,1,4.26,0,5.21,5.21,0,0,1,3.12,3.55,80.8,80.8,0,0,1,0,9.86c-1.42,3.51-4,4.78-7.62,3.73a4,4,0,0,1-2.9-3.29A86.1,86.1,0,0,1,382.83,408.22Z"/><path class="cls-6" d="M431.64,418.09a4.26,4.26,0,0,0-.87,2.94c-.81,1.24-1.93.7-3,.51.06-2.53,1.43-4.71,1.94-7.14a77.62,77.62,0,0,1,2.61-8.25c.23-.71.31-1.54,1.47-1.44s1.18.79,1.41,1.57c1.53,5.1,3.09,10.19,4.64,15.28a5,5,0,0,1-2.53.13c-.91-1-.55-2.57-1.47-3.59A8.44,8.44,0,0,0,431.64,418.09Z"/><path class="cls-6" d="M484.72,421.41c1.6-5.31,3.23-10.61,4.76-15.94.24-.85.76-.66,1.28-.74.93-.14,1.18.42,1.41,1.19,1.36,4.55,2.77,9.08,4.17,13.62a12.48,12.48,0,0,0,.49,1.16c-.32,2.08-1.69.79-2.64.82L493,418.07a9,9,0,0,0-4.27,0,5.11,5.11,0,0,0-1,3.33A3,3,0,0,1,484.72,421.41Z"/><path class="cls-6" d="M335.53,421.4l-1-3.31a8.85,8.85,0,0,0-4.25,0c-1,.95-.89,2.28-1.24,3.46-.95-.07-2.34,1.26-2.64-.84,1.48-5,3-10,4.44-15,.23-.81.79-.88,1.45-1,1-.12,1.21.65,1.41,1.29,1.34,4.34,2.64,8.7,4,13,.25.8.56,1.59.85,2.38A3,3,0,0,1,335.53,421.4Z"/><path class="cls-6" d="M261.77,419.32a45.67,45.67,0,0,0,4.85.09c1.73-.14,2.3.54,2,2.15a38.11,38.11,0,0,1-9.9-.12c0-4.88.11-9.75,0-14.63,0-1.79.6-2.21,2.23-2.11a38.35,38.35,0,0,0,5.59,0c1.74-.14,2.37.5,2.09,2.16-1.82.5-3.68.21-5.51.21-1.16,0-1.62.27-1.64,1.54,0,3.24-.1,3.22,3.12,3.26a6.32,6.32,0,0,1,2.74.19h0a2.33,2.33,0,0,1,0,2.15l-5.57.12A11.58,11.58,0,0,0,261.77,419.32Z"/><path class="cls-7" d="M451.11,413.28c0-2.37,0-4.74,0-7.11,0-.94.19-1.46,1.3-1.47s1.27.56,1.27,1.47c0,3.66.08,7.33,0,11-.06,1.73.34,2.52,2.22,2.3a38.1,38.1,0,0,1,3.88,0c.75,0,1.24.18,1.23,1.07s-.27,1.3-1.08,1.31q-4,.05-8,0c-1,0-.75-.87-.76-1.44C451.09,418,451.11,415.65,451.11,413.28Z"/><path class="cls-8" d="M346.74,406.7c-.08-1.48.44-2.16,2.09-2a33.08,33.08,0,0,0,5.76,0c1.78-.15,2.28.58,2,2.17-1.08.63-2.34-.15-3.42.46,0,4.13-.17,8.25-.11,12.38,0,1.5-.34,2.33-2,2.25-1.14-.44-.72-1.44-.74-2.23-.15-4.14.23-8.29-.21-12.43h0C349.12,406.65,347.76,407.65,346.74,406.7Z"/><path class="cls-6" d="M243.73,407.32l-.09,14.14a3.32,3.32,0,0,1-2.58.16l-.05-.06c-.35-4.12-.12-8.25-.12-12.37,0-1.45-.14-2.32-1.92-2.11-2.06.25-1.65-1.13-1.38-2.34,2.49,0,5,.12,7.47,0,1.77-.11,2.28.57,2,2.17C246,407.49,244.79,406.71,243.73,407.32Z"/><path class="cls-9" d="M368.29,404.73c2.07-.39,2.54.61,2.49,2.51-.12,4.06-.14,8.12,0,12.18.07,1.84-.48,2.67-2.33,2.53-.55-.22-.39-.71-.39-1.11q0-7.54,0-15.08A1.55,1.55,0,0,1,368.29,404.73Z"/><path class="cls-10" d="M199.68,421.54c0-5,0-10,0-15.05,0-1,0-1.83,1.41-1.78s1.18.95,1.18,1.78q0,7.53,0,15.05A3.4,3.4,0,0,1,199.68,421.54Z"/><path class="cls-11" d="M167.58,297.81l-.09.09.14-.05Z"/><path class="cls-12" d="M129.07,292.73c1.66-2.8,8.2-2.31,9.77-.54.76.86,1.44,1.79.6,2.84s-1.9.78-2.9.14a2.76,2.76,0,0,1-.68-.52C134.09,292.48,132.06,291.17,129.07,292.73Z"/><path class="cls-13" d="M247.46,337.88c0,1.72-.11,3.43-.11,5.15q0,22.78,0,45.57a4.77,4.77,0,0,0,.35,2.73c-.88-.41-.59-1.23-.59-1.89q0-24.85,0-49.71C247.11,339.09,247,338.42,247.46,337.88Z"/><path class="cls-13" d="M441.84,391.32a3.31,3.31,0,0,0,.36-1.87q0-25.15,0-50.3c0-.43-.07-.85-.11-1.28.59.68.35,1.51.35,2.27q0,24.42,0,48.85C442.42,389.79,442.85,390.76,441.84,391.32Z"/><path class="cls-13" d="M432.52,337.89q0,23.6-.06,47.2c0,1.94,0,3.88,0,5.82-.55-.61-.34-1.37-.34-2.06q0-24.36,0-48.72C432.1,339.38,431.82,338.53,432.52,337.89Z"/><path class="cls-13" d="M330.34,337.85c-7.86,0-15.72-.13-23.57-.13-2.63,0-5.28-.3-7.9.23.45-.67,1.14-.48,1.76-.48h28.11C329.29,337.47,329.89,337.36,330.34,337.85Z"/><path class="cls-13" d="M418.7,338a11.34,11.34,0,0,0-1.68-.25q-14.26,0-28.51,0a9.63,9.63,0,0,0-1.27.17c.57-.64,1.33-.41,2-.41q13.74,0,27.48,0C417.42,337.47,418.2,337.21,418.7,338Z"/><path class="cls-13" d="M214.8,404.73q0,7.72-.08,15.43c0,.88.1,1.55,1.24,1.5s1.09-.69,1.09-1.45q0-4.39-.07-8.79c0-1,.22-1.14.72-.19-.78,2.87-.17,5.8-.33,8.69-.06,1.12.09,2.12-1.59,2.09s-1.45-1-1.45-2c0-4.5,0-9,0-13.5C214.34,405.89,214.16,405.2,214.8,404.73Z"/><path class="cls-14" d="M127.68,350l-.38-.46c.75-2.52,1.76-4.84,4.07-6.39a3.1,3.1,0,0,1,1.57-.51c.77-.06,1.85-.09,1.89.81s-1,.42-1.59.48a4.76,4.76,0,0,0-3.35,2.35C129.06,347.46,128.41,348.76,127.68,350Z"/><path class="cls-13" d="M198.28,350v28.85c-.43-.48-.31-1.08-.31-1.64q0-12.78,0-25.57C198,351.06,197.83,350.47,198.28,350Z"/><path class="cls-13" d="M405.76,404.73q0,7.71-.1,15.42c0,.87.09,1.55,1.24,1.52S408,420.8,408,420c0-1.93,0-3.85,0-5.78.76,2.22.19,4.5.31,6.76,0,.89-.64,1-1.33,1s-1.64.17-1.61-.89C405.54,415.63,404.86,410.16,405.76,404.73Z"/><path class="cls-13" d="M208.27,378.08a4,4,0,0,1-.33-2.08q0-11.56,0-23.12a3.5,3.5,0,0,1,.35-2.07Q208.28,364.44,208.27,378.08Z"/><path class="cls-13" d="M269.94,337.78l-22.41,0a1.81,1.81,0,0,1,1.41-.36q9.89,0,19.79,0A5.18,5.18,0,0,1,269.94,337.78Z"/><path class="cls-13" d="M257,390.93c0-6.58.05-13.16.12-19.73,0-.74-.34-1.58.36-2.22,0,6.58,0,13.17,0,19.75C257.44,389.47,257.75,390.31,257,390.93Z"/><path class="cls-13" d="M329.87,382.19l-19.59,0c-.48,0-1,.17-1.37-.36,6.23,0,12.45,0,18.68,0C328.35,381.89,329.17,381.65,329.87,382.19Z"/><path class="cls-13" d="M309.17,346.94c3.12-.5,6.26-.14,9.38-.22,3.93-.09,7.86-.1,11.79-.14-.6.57-1.35.36-2,.37Q318.73,347,309.17,346.94Z"/><path class="cls-13" d="M237.6,404.73c-.29,1.4-.16,2.49,1.71,2.21,1.54-.23,1.75.61,1.73,1.9-.06,4.24,0,8.47,0,12.71-.79-1.63-.29-3.36-.35-5-.09-2.49-.08-5,0-7.49,0-1.3-.41-1.81-1.72-1.73C236.71,407.43,236.88,406.2,237.6,404.73Z"/><path class="cls-13" d="M312.69,421.64c1.77.32,2.34-.38,2.28-2.18-.15-4.91-.11-9.82-.14-14.73.58.51.4,1.19.4,1.82q0,6.68,0,13.36C315.23,422.16,315.05,422.27,312.69,421.64Z"/><path class="cls-13" d="M267.37,412.06c-1.5,0-3-.08-4.5,0-1.11,0-1.6-.35-1.49-1.48a7.71,7.71,0,0,0,0-1.71c-.2-1.52.44-2,1.93-1.93,1.78.1,3.57,0,5.36-.05-1.59.94-3.33.45-5,.41s-2,.75-2,2.2.13,2.31,1.93,2.22C264.88,411.61,266.22,411.19,267.37,412.06Z"/><path class="cls-13" d="M308.92,368.94c.36-.51.9-.36,1.38-.36l16.12,0c-1.13.67-2.38.3-3.56.31C318.22,369,313.57,368.94,308.92,368.94Z"/><path class="cls-13" d="M368.29,404.73c0,5.74-.34,11.48.17,17.22-.6-.21-.62-.72-.62-1.23q0-7.42,0-14.84A1.24,1.24,0,0,1,368.29,404.73Z"/><path class="cls-13" d="M350.19,407.28c.76,2.14.23,4.35.33,6.52s0,4.13,0,6.2c0,.71-.08,1.44.6,1.94-1.26-.06-1-1-1-1.75C350.16,415.89,350.18,411.59,350.19,407.28Z"/><path class="cls-13" d="M355.74,381.44a75.29,75.29,0,0,1,12.66,0Z"/><path class="cls-13" d="M408.32,346.93c2.53-.48,5.09-.1,7.64-.22a8,8,0,0,0,2.74-.27c-.86,1-2,.45-3,.48C413.25,347,410.79,346.94,408.32,346.93Z"/><path class="cls-13" d="M387.24,346.54c2.63.38,5.28.06,7.91.19.76,0,1.57-.25,2.29.23-2.72,0-5.45,0-8.17,0C388.58,346.94,387.81,347.17,387.24,346.54Z"/><path class="cls-13" d="M494.61,337.93a40,40,0,0,0-10.31.11.83.83,0,0,1,.83-.55C488.29,337.73,491.49,336.88,494.61,337.93Z"/><path class="cls-13" d="M382.83,408.22q0,5.14,0,10.29A31.17,31.17,0,0,1,382.83,408.22Z"/><path class="cls-13" d="M393.38,418.06q0-4.93,0-9.86A28.8,28.8,0,0,1,393.38,418.06Z"/><path class="cls-13" d="M465.29,337.89a77,77,0,0,0-9.89-.11A27,27,0,0,1,465.29,337.89Z"/><path class="cls-13" d="M258.77,421.43a57.15,57.15,0,0,0,9.9.12A20.87,20.87,0,0,1,258.77,421.43Z"/><path class="cls-13" d="M442,337.82a60.62,60.62,0,0,0-9.5.07A23.52,23.52,0,0,1,442,337.82Z"/><path class="cls-13" d="M516.18,337.88a60,60,0,0,0-9.5,0A23.34,23.34,0,0,1,516.18,337.88Z"/><path class="cls-13" d="M220.78,336.92l-9.45,0A27.47,27.47,0,0,1,220.78,336.92Z"/><path class="cls-13" d="M330.16,391.32a28,28,0,0,0,.12-9A15.7,15.7,0,0,1,330.16,391.32Z"/><path class="cls-13" d="M330.39,346.53a58.62,58.62,0,0,0,0-8.65A20.52,20.52,0,0,1,330.39,346.53Z"/><path class="cls-13" d="M387.23,337.89a43.74,43.74,0,0,0,0,8.63A18.29,18.29,0,0,1,387.23,337.89Z"/><path class="cls-13" d="M257.48,369a17.82,17.82,0,0,1,8.06,0Z"/><path class="cls-13" d="M366.09,338c-2.56-.55-5.14-.25-7.71-.18C361,337.34,363.54,337,366.09,338Z"/><path class="cls-13" d="M223,408.57c.62,2.28.18,4.6.25,6.9,0,.07-.19.21-.29.21s-.19-.15-.29-.23C223.36,413.19,222.75,410.86,223,408.57Z"/><path class="cls-13" d="M312.68,404.73l-.14,7.72A15.9,15.9,0,0,1,312.68,404.73Z"/><path class="cls-13" d="M154.56,463a17.58,17.58,0,0,1-7.08,0Z"/><path class="cls-13" d="M148.25,318.93l0,6.88A14.92,14.92,0,0,1,148.25,318.93Z"/><path class="cls-13" d="M219.58,382.76a14.74,14.74,0,0,1-7,0Z"/><path class="cls-13" d="M283,356.41l0-6A11.37,11.37,0,0,1,283,356.41Z"/><path class="cls-13" d="M213.39,346.06a15.46,15.46,0,0,1,5.72,0Z"/><path class="cls-15" d="M156.15,302.15l-.49-.5c0-.89.66-1.32,1.35-1.7.37-.1.58,0,.4.41A4.19,4.19,0,0,1,156.15,302.15Z"/><path class="cls-13" d="M261.77,419.32a6.94,6.94,0,0,1,0-5Q261.77,416.83,261.77,419.32Z"/><path class="cls-13" d="M390.24,404.65H386A5.5,5.5,0,0,1,390.24,404.65Z"/><path class="cls-16" d="M145.69,359l-.36.86c-.38-.66-1.17-1.12-1.18-2.15A1.65,1.65,0,0,1,145.69,359Z"/><path class="cls-13" d="M330.27,418.08a6.48,6.48,0,0,1,4.25,0Z"/><path class="cls-13" d="M431.64,418.09a6.22,6.22,0,0,1,4.22,0Z"/><path class="cls-13" d="M488.7,418.1a6.57,6.57,0,0,1,4.27,0Z"/><path class="cls-17" d="M160.43,359.45c.23.54-.2,1.2.32,1.68-.12.49-.34,1-.92.8s-.11-.62.07-1A11.29,11.29,0,0,0,160.43,359.45Z"/><path class="cls-18" d="M157.41,300.36,157,300a1.14,1.14,0,0,1,.83-1.3h.88Z"/><path class="cls-19" d="M160.79,297.34c-2.84-1.14-5.61-2.49-8.47-3.58s-6,.45-7.9,3.15c-2.16,1.72-4.86,3.47-7.53,3.39-3.08-.1-6-.69-8-3.36a4.46,4.46,0,0,1-.2-2.93c.13-.38.57-.8-.16-.91-.35,0-.7.21-.67.78.08,1.3-.17,2.62.32,3.89a11.91,11.91,0,0,0,3.36,4.46c2.29,2,6.61,3,9.41.16a32.87,32.87,0,0,0,4.28-6,8.42,8.42,0,0,1,6.2-.89c2.25.79,4.56,1.49,6.41,3.12a.59.59,0,0,0,.88,0,12.69,12.69,0,0,1,3.38.59,6.18,6.18,0,0,0,5.4-1.34C165.17,298.87,162.95,298.21,160.79,297.34Z"/><path class="cls-19" d="M167.62,297.86l0-.07,0,0Z"/><path class="cls-19" d="M166.1,294.3l0,0a41,41,0,0,0-9.44-5.07c-9.76-3.78-20.16-4.58-30.32-6.47-6.32-1.17-12.68-2.15-18-6.19l-.06-.06c-1.76-2.45-4.5-5.89-4.68-6.31-.23-.68.46-1.69-.87-2.17.09,1-.28,1.88.36,2.68.25.63,5.27,8.05,6.6,8.29,0,0,0,0,0,0,7.56,5.35,16.35,7.37,25.24,8.81,5.5.89,11.05,1.5,16.54,2.51,5.15,1,10.26,2.11,14.79,5a3.68,3.68,0,0,1,1.39,2.58C168.75,297.38,166.84,294.83,166.1,294.3Z"/><path class="cls-13" d="M494.18,421.53c.95-.07,2.21.9,2.64-.82C496.95,422.18,496.32,422.38,494.18,421.53Z"/><path class="cls-13" d="M326.39,420.7c.42,1.72,1.7.75,2.64.84C326.87,422.37,326.26,422.18,326.39,420.7Z"/><path class="cls-13" d="M144.88,445.78a6.86,6.86,0,0,1,0-4Z"/><path class="cls-13" d="M154.82,447.77l-3.84.18C152.22,447,153.52,447.3,154.82,447.77Z"/><path class="cls-13" d="M346.74,406.7c1.08.6,2.41-.19,3.46.6C349,407.07,347.72,407.92,346.74,406.7Z"/><path class="cls-13" d="M427.78,421.54c1,.13,2.13.44,3-.51C430,422.8,428.87,421.94,427.78,421.54Z"/><path class="cls-13" d="M353.21,407.32c1.05-.79,2.3-.14,3.42-.46C355.59,407.78,354.34,407.12,353.21,407.32Z"/><path class="cls-13" d="M243.73,407.32c1-.8,2.27-.13,3.37-.46C246.08,407.77,244.85,407.12,243.73,407.32Z"/><path class="cls-13" d="M289,421.42a4.19,4.19,0,0,0,3,0A2,2,0,0,1,289,421.42Z"/><path class="cls-13" d="M152.35,259.41v-3A3.22,3.22,0,0,1,152.35,259.41Z"/><path class="cls-13" d="M335.53,421.4a4.32,4.32,0,0,0,3,0A2,2,0,0,1,335.53,421.4Z"/><path class="cls-13" d="M150.57,254.54a2.5,2.5,0,0,1,.34.2c-.15,1,.21,2.06-.37,3Z"/><path class="cls-13" d="M484.72,421.41a4.25,4.25,0,0,0,3,0A2,2,0,0,1,484.72,421.41Z"/><path class="cls-14" d="M152.36,256.41l-1-3a2.34,2.34,0,0,0-.77-1.37c-.15-.7-.53-1-1.63-.5,1,0,.74.75,1.23,1a3.65,3.65,0,0,1,.41,2.05.22.22,0,0,0,.17.2c-.1,1,.23,2-.2,3a17.09,17.09,0,0,1-2.69,7.44A35.54,35.54,0,0,1,141,273a37.65,37.65,0,0,1-10.76,6.29,6.22,6.22,0,0,0-1.06.19,11.88,11.88,0,0,0-3.21.59,5.5,5.5,0,0,0,2.36,0,6.4,6.4,0,0,0,.94-.12c1.17-.16,2.26-.36,2.5-.41l.59-.12a25.71,25.71,0,0,0,14.67-8c3.21-3.42,4.44-7.61,5.28-12A9.5,9.5,0,0,0,152.36,256.41Z"/><path class="cls-13" d="M281.17,421.61a6,6,0,0,0,2.58-.16A1.9,1.9,0,0,1,281.17,421.61Z"/><path class="cls-13" d="M304,421.48a5.18,5.18,0,0,0,2.58.08A1.84,1.84,0,0,1,304,421.48Z"/><path class="cls-13" d="M157.51,393.51a6.49,6.49,0,0,1,.32-2.63C157.75,391.76,158.13,392.7,157.51,393.51Z"/><path class="cls-13" d="M414,421.48a4.9,4.9,0,0,0,2.57,0A1.8,1.8,0,0,1,414,421.48Z"/><path class="cls-13" d="M437.32,421.68l2.53-.13A2.12,2.12,0,0,1,437.32,421.68Z"/><path class="cls-13" d="M126.7,353.86v2.57A2.33,2.33,0,0,1,126.7,353.86Z"/><path class="cls-13" d="M143.53,434.06a6.09,6.09,0,0,1-.33,2.61C143.29,435.8,142.9,434.86,143.53,434.06Z"/><path class="cls-13" d="M241.07,421.62a6,6,0,0,0,2.58-.16A1.9,1.9,0,0,1,241.07,421.62Z"/><path class="cls-13" d="M199.68,421.54a6.16,6.16,0,0,0,2.59,0A1.92,1.92,0,0,1,199.68,421.54Z"/><path class="cls-13" d="M153.12,448.83a5.17,5.17,0,0,1,2.67.29C154.89,449.05,154,449.41,153.12,448.83Z"/><path class="cls-13" d="M223,421.4a4.43,4.43,0,0,0,2.56.17C224.65,422.13,223.78,422.34,223,421.4Z"/><path class="cls-13" d="M267.33,414.21l0-2.15A1.41,1.41,0,0,1,267.33,414.21Z"/><path class="cls-13" d="M210.47,391.87a4.56,4.56,0,0,1,2.19.34C211.93,392.14,211.12,392.48,210.47,391.87Z"/><path class="cls-19" d="M144.88,246.46a3.4,3.4,0,0,0-2.25.84c-3.29,3.06-5.86,6.52-6,11.26a4.89,4.89,0,0,0,0,3.86,15.77,15.77,0,0,0,1.79,6.06,2.39,2.39,0,0,0,.87,1.75,2.83,2.83,0,0,0,1,1.7c.27-1-.4-1.51-.6-2.15-.43-.67-.1-1.6-.76-2.19-.09-1.87-.77-3.7-.34-5.61.6-.73.24-1.59.31-2.39h0c.33-5.32,2.22-9.8,6.9-12.78l2.32-.53C147,246.15,145.87,245.68,144.88,246.46Z"/><path class="cls-13" d="M219.86,392.2a4.64,4.64,0,0,1,2.23-.33C221.41,392.48,220.61,392.14,219.86,392.2Z"/><path class="cls-13" d="M291.6,410.74q0-1,0-2.1A1.63,1.63,0,0,1,291.6,410.74Z"/><path class="cls-3" d="M597.3,379.05c0,3.45-.07,6.9,0,10.34,0,1.56-.53,2-2,1.92a44.8,44.8,0,0,0-5.6,0c-1.7.12-2.24-.45-2.22-2.17.09-6.61,0-13.22.06-19.82a9,9,0,0,0-1.15-4.5c-4.39-8.14-8.72-16.31-13.06-24.47-1.29-2.42-1.16-2.65,1.48-2.66,2.23,0,4.46.07,6.68,0a2.63,2.63,0,0,1,2.82,1.77c2.25,4.8,4.59,9.57,6.93,14.32.29.58.35,1.57,1.3,1.48.74-.07.86-.91,1.13-1.46,2.33-4.76,4.67-9.52,6.92-14.32a2.63,2.63,0,0,1,2.8-1.79c2.29.09,4.6,0,6.89,0s2.46.32,1.4,2.32c-3.57,6.71-6.93,13.54-10.8,20.07-2.77,4.68-4.26,9.44-3.64,14.86A36.17,36.17,0,0,1,597.3,379.05Z"/><path class="cls-6" d="M577.78,413c0-2.3,0-4.6,0-6.89,0-1,.32-1.43,1.36-1.39,1.51.06,3,0,4.52,0,2.87.17,4.49,1.82,4.56,4.68q.1,3.88,0,7.76c-.08,2.73-1.56,4.21-4.26,4.43-6.16.49-6.16.49-6.16-5.61Q577.78,414.51,577.78,413Z"/><path class="cls-6" d="M554.86,413.15c0-2.29,0-4.59,0-6.88,0-1,.24-1.61,1.43-1.55,1.5.07,3,0,4.51,0a4.66,4.66,0,0,1,3.08,8,1.92,1.92,0,0,0-.55,2.55c.56,1.47,1.09,3,1.55,4.46.18.58,1,1.39-.07,1.78a1.65,1.65,0,0,1-2.41-1c-.53-1.63-1.26-3.21-1.66-4.87s-1.48-1.51-2.63-1.4c-1.41.14-.82,1.28-.87,2-.09,1.21,0,2.43,0,3.65,0,.85.18,1.8-1.21,1.75s-1.1-1.05-1.11-1.85C554.84,417.59,554.86,415.37,554.86,413.15Z"/><path class="cls-6" d="M537.35,417.85c-1.81-.47-2.64.38-2.91,2.11-.11.71-.09,1.64-1.24,1.71s-2,0-1.48-1.56c1.49-4.71,2.91-9.44,4.34-14.17.23-.74.53-1.27,1.47-1.23s1,.59,1.23,1.22q2.15,7.09,4.31,14.18c.15.5.64,1.2-.2,1.44s-1.59.45-2.11-.44a2.63,2.63,0,0,1-.37-1C540.17,418.26,539.26,417.39,537.35,417.85Z"/><path class="cls-6" d="M604.38,422a4.66,4.66,0,0,1-3.94-1.32c-.41-.46-1.46-.93-.56-1.69.61-.52,1.45-1.42,2.33-.18a2.86,2.86,0,0,0,2.91,1,2.45,2.45,0,0,0,2.22-1.77,2.09,2.09,0,0,0-1.07-2.56c-1.21-.77-2.52-1.36-3.78-2a4.63,4.63,0,0,1-2.66-5,3.8,3.8,0,0,1,2.73-3.53c2.17-.58,4.44-.7,6.29,1,.44.41,1.08,1,.35,1.61-.56.46-1.26,1.08-2.11.41-.34-.26-.59-.72-1-.85-1.29-.46-2.61-.55-3.44.79s-.21,2.35,1,3.05c1.05.61,2.19,1.08,3.24,1.68,2.63,1.51,3.53,3.6,2.77,6.32C609.16,420.95,607.33,422,604.38,422Z"/><path class="cls-6" d="M521.87,404.75c-1.1-.14-1.67.21-1.86,1.45-.48,3.11-1.14,6.19-1.72,9.29l-.11.8c0,.05.08.09.13.08.28-.06-.06.24-.1,0l0-.06,0,.18a1.42,1.42,0,0,1-.64-1.4h0l-2.13-8.61c-.41-.58-.17-1.72-1.29-1.69s-1,1.19-1.27,1.91c-.4,1.19-.65,2.44-1,3.66a35.65,35.65,0,0,1-1.53,6.63l-.94-5.32h0L508.29,406c-.22-1.14-.95-1.45-2-1.3s-1,1.09-.79,1.64c.85,2.4,1,4.95,1.66,7.37.79,1.93.85,4,1.46,6,.22.72-.06,1.84,1.28,1.9s1.41-.88,1.66-1.8c.81-3.1,1.67-6.19,2.67-9.85,1,3.73,1.83,6.89,2.68,10,.19.72.13,1.62,1.31,1.62s1.32-.78,1.51-1.68c.93-4.48,1.93-9,2.85-13.44C522.67,405.92,523.24,404.92,521.87,404.75Z"/><path class="cls-20" d="M518.17,416.3h0Z"/><path class="cls-21" d="M283.64,389c-2.44-6.71-4.71-13.48-7.13-20.19-.58-1.6-.56-2.77,1-3.82,3-2.06,4.63-5.12,5.52-8.6a32.86,32.86,0,0,0,0-6c-.5-1.54-.89-3.13-1.53-4.61-2.17-5-6.52-7-11.5-8-7.47-.13-14.94-.21-22.41,0l-.06.06a2.78,2.78,0,0,0-.13,1.06q0,25.52,0,51c0,.46-.25,1,.37,1.34,3.09-.29,6.22.43,9.29-.4.44-.65.23-1.39.23-2.08,0-5.71,0-11.43,0-17.14a5.4,5.4,0,0,1,.22-2.73h0a29.1,29.1,0,0,1,8.06,0,7,7,0,0,1,.91,1.41c1.65,4.72,3.24,9.47,4.88,14.19.74,2.12,1,4.8,2.47,6.18,1.65,1.56,4.51.34,6.82.56.43,0,.86,0,1.29,0C283.79,391.51,284.34,390.94,283.64,389Zm-16.34-29.5c-1.36,0-2.72,0-4.42,0s-4,.81-5.29-.35-.36-3.8-.48-5.77c-.1-1.71,0-3.44,0-5.16,0-1.12.46-1.54,1.54-1.53,3,0,6-.11,9,0,3.46.18,5.83,3.13,5.7,6.79A6,6,0,0,1,267.3,359.52Z"/><path class="cls-21" d="M381.54,388.86c-3.77-12.36-7.59-24.71-11.36-37.08-1.4-4.59-2.73-9.2-4.09-13.8-2.56-.61-5.14-.26-7.71-.18-1.24,2.21-1.61,4.72-2.37,7.09-2.45,7.61-4.6,15.31-6.91,23-2.21,7.33-4.42,14.66-6.78,21.93-.45,1.38,0,1.5,1,1.5a58.84,58.84,0,0,1,6.23,0c2.3.25,3.18-.62,3.76-2.82.63-2.39.8-5,2.41-7.08a81.81,81.81,0,0,1,12.66,0c1.27,1.84,1.58,4,2.07,6.11.88,3.75.78,3.77,4.54,3.77h4.73C382.12,391.28,382.25,391.17,381.54,388.86Zm-17.12-16.65a43.81,43.81,0,0,0-4.52,0c-1.59.09-1.8-.62-1.46-2,1.17-4.58,2.28-9.18,3.42-13.77.48-.29.57.15.77.41,1,4.46,2,8.95,3.17,13.38C366.16,371.71,366,372.29,364.43,372.22Z"/><path class="cls-22" d="M362.63,356.89l-.77-.41c0-.34-.1-.84.43-.69S362.68,356.47,362.63,356.89Z"/><path class="cls-6" d="M290.75,418.47c-1.5-2.79-1.74-5.4.85-7.73a4.13,4.13,0,0,0,0-2.1c-.66-2.64-2.45-3.85-5.08-3.9-1.77,0-3.55,0-5.32,0q-.05,8.41-.11,16.81h0l0,.06a3.31,3.31,0,0,0,2.58-.16c0-1.79-.06-3.57,0-5.36,0-.75-.44-1.83,1-1.88,1.11,0,1.87.13,2.23,1.42.55,2,1.31,3.86,2,5.79a2.91,2.91,0,0,0,3,0A27.1,27.1,0,0,0,290.75,418.47Zm-5.1-6.42c-2.47.22-1.9-1.42-2-3.24-.08-.87-.2-2.08,1.88-1.92s3.58,1,3.6,2.55S287.78,411.87,285.66,412.05Z"/><path class="cls-23" d="M390.74,413.31c0,1.36,0,2.72,0,4.08a2.28,2.28,0,0,1-2.48,2.37c-1.58.06-2.73-.65-2.79-2.29-.11-2.86-.09-5.72,0-8.58.06-1.63,1.22-2.07,2.69-2.07s2.51.57,2.57,2.19C390.78,410.45,390.74,411.88,390.74,413.31Z"/><path class="cls-24" d="M434.07,410.15c.32,1.16.64,2.33,1,3.49.5,1.86.18,2.17-1.8,1.94-.76-.09-1-.31-.79-1.06.41-1.47.77-3,1.16-4.44Z"/><path class="cls-25" d="M491.1,409.89l1.1,4.31c.12.46.48,1.1-.18,1.26a5.23,5.23,0,0,1-2.29-.06c-.49-.11-.32-.73-.22-1.11.38-1.49.81-3,1.22-4.46Z"/><path class="cls-26" d="M332.35,409.21c.58,2.15,1,3.64,1.37,5.13.1.4.22,1-.28,1.09a6.08,6.08,0,0,1-2.3,0c-.53-.11-.29-.69-.18-1.09C331.36,412.83,331.77,411.34,332.35,409.21Z"/><path class="cls-13" d="M580.11,413.15c0-1.29,0-2.57,0-3.86,0-1.06-.41-2.36,1.51-2.39,2.48,0,3.89.55,4,2.23a77.54,77.54,0,0,1,0,8.14c-.15,2.53-2.22,2-3.89,2.19-1.9.16-1.59-1.12-1.6-2.24C580.11,415.87,580.11,414.51,580.11,413.15Z"/><path class="cls-27" d="M557.18,409.11c-.12-1.17-.18-2.39,2-2.22,2.44.19,3.63.91,3.57,2.69S561.59,412,559.2,412C557.18,412,557.18,412,557.18,409.11Z"/><path class="cls-26" d="M537.5,409.48a36.5,36.5,0,0,0,1.1,4.14c.85,2.1-.4,2-1.81,2-.76,0-1-.27-.82-1,.34-1.24.62-2.49,1-3.73A12.88,12.88,0,0,1,537.5,409.48Z"/></g></g></svg>