<svg xmlns="http://www.w3.org/2000/svg" xmlns:xlink="http://www.w3.org/1999/xlink" viewBox="0 0 715 715"><defs><style>.cls-1{fill:url(#linear-gradient);}.cls-2{fill:#010202;}</style><linearGradient id="linear-gradient" x2="715" y2="715" gradientUnits="userSpaceOnUse"><stop offset="0" stop-color="#fefefe"/><stop offset="1" stop-color="#ededed"/></linearGradient></defs><title>galaxy-awards</title><g id="Layer_2" data-name="Layer 2"><g id="Layer_1-2" data-name="Layer 1"><rect class="cls-1" width="715" height="715"/><g id="Page-1"><g id="LACP_Galaxy_Awards" data-name="LACP Galaxy Awards"><path id="Fill-2" class="cls-2" d="M175.74,388.3c20.27,0,30.33-18.17,30.33-31.17,0-16.77-13.14-31.44-30.33-31.44s-30.19,14.68-30.19,31.44,12.86,31.17,30.19,31.17Zm39.55-5c0,8.25,0,18.59-7,28-9.64,13.42-27.25,14.11-30.33,14.11-10.9,0-32.14-4.19-39.13-28.09h10.34c2.52,6.29,10.06,19.29,28.65,19.29,12.86,0,27.67-7.41,27.67-28.51v-6.71h-.28c-5.73,10.9-18.31,15.79-29.49,15.79-20.12,0-40-15.65-40-39.69a40.24,40.24,0,0,1,40-40.53c7,0,20.69,2.1,29.49,15.65h.28v-13.7h9.78Z"/><path id="Fill-4" class="cls-2" d="M269.8,388.3a30.72,30.72,0,0,0,30.61-31.17c0-16.77-13-31.44-30.61-31.44-16.77,0-31.31,12.16-31.31,31.58,0,17,12.58,31,31.31,31Zm39.83,7h-9.78V381.87h-.28c-8.39,12.58-21.8,15.23-29.77,15.23-24,0-41.09-18.31-41.09-40.25,0-20.4,16.07-40,41.09-40,8.25,0,21.66,2.65,29.77,15.37h.28V318.84h9.78Z"/><path id="Fill-6" class="cls-2" d="M390.68,388.3a30.72,30.72,0,0,0,30.61-31.17c0-16.77-13-31.44-30.61-31.44-16.77,0-31.31,12.16-31.31,31.58,0,17,12.58,31,31.31,31Zm39.83,7h-9.78V381.87h-.28c-8.39,12.58-21.8,15.23-29.77,15.23-24,0-41.09-18.31-41.09-40.25,0-20.4,16.07-40,41.09-40,8.25,0,21.66,2.65,29.77,15.37h.28V318.84h9.78Z"/><polygon id="Fill-8" class="cls-2" points="465.16 356.43 439.02 318.84 450.76 318.84 470.89 348.33 490.87 318.84 502.75 318.84 476.62 356.43 502.75 395.29 491.15 395.29 470.89 364.68 450.62 395.29 439.02 395.29 465.16 356.43"/><polygon id="Fill-10" class="cls-2" points="538 392.77 508.23 318.84 518.57 318.84 542.89 379.77 568.89 318.84 579.23 318.84 534.93 422.12 524.72 422.12 538 392.77"/><path id="Fill-12" class="cls-2" d="M256.76,418.82c-4.72,0-7.14,4.07-7.14,7.66a7.18,7.18,0,0,0,7.14,7.4c4,0,7-3.12,7-7.58,0-5-3.59-7.49-7-7.49Zm12.46,19.56h-5.28v-3a11.89,11.89,0,0,1-8.4,3.76c-6.19,0-11.68-4.94-11.68-12.94,0-7.36,5.37-12.68,12-12.68a10.26,10.26,0,0,1,8,3.85h.09v-3h5.28Z"/><polygon id="Fill-14" class="cls-2" points="288.71 414.37 294.86 414.37 299.23 429.04 299.32 429.04 303.25 414.37 307.84 414.37 311.73 429.04 311.82 429.04 316.24 414.37 322.38 414.37 313.59 438.38 310.05 438.38 305.55 422.8 305.46 422.8 300.92 438.38 297.37 438.38 288.71 414.37"/><path id="Fill-16" class="cls-2" d="M353,418.82c-4.72,0-7.14,4.07-7.14,7.66a7.18,7.18,0,0,0,7.14,7.4c4,0,7-3.12,7-7.58,0-5-3.59-7.49-7-7.49Zm12.46,19.56h-5.28v-3a11.89,11.89,0,0,1-8.4,3.76c-6.19,0-11.68-4.94-11.68-12.94,0-7.36,5.37-12.68,12-12.68a10.25,10.25,0,0,1,8,3.85h.09v-3h5.28Z"/><path id="Fill-18" class="cls-2" d="M387.54,414.37h5.28v2.12h.09c1.08-1.56,2.16-2.94,5.15-2.94h.48v5.58c-5.24.22-5.24,4.33-5.24,5.75v13.51h-5.76Z"/><path id="Fill-20" class="cls-2" d="M429.55,433.89c4.32,0,7.1-3.9,7.1-7.53a7.37,7.37,0,0,0-7.1-7.53c-4.29,0-7.1,4-7.1,7.36a7.39,7.39,0,0,0,7.1,7.71Zm12.42,4.5h-5.28v-2.94h-.09c-1.08,1.73-3.59,3.72-7.66,3.72a12.82,12.82,0,0,1,0-25.62,9.18,9.18,0,0,1,7.27,2.94V406.36H442Z"/><path id="Fill-22" class="cls-2" d="M473.42,420.9a2.23,2.23,0,0,0-2.29-2.08,2.11,2.11,0,0,0-2.21,2.08c0,1.38,1,1.68,4.07,2.68s6.71,2.34,6.71,7.19a8.23,8.23,0,0,1-8.4,8.4,9.17,9.17,0,0,1-7.18-3.16,8.88,8.88,0,0,1-1.82-5.19h5.89c.26,1.08.78,3.07,3.16,3.07a2.45,2.45,0,0,0,2.6-2.43c0-1.77-1.3-2.21-5.41-3.59-2.72-.91-5.36-2.94-5.36-6.88,0-4.68,4.2-7.44,8-7.44A7.73,7.73,0,0,1,479,420.9Z"/><polygon id="Fill-1" class="cls-2" points="326.63 395.29 336.41 395.29 336.41 275.84 326.63 275.84 326.63 395.29"/></g></g></g></g></svg>