<svg xmlns="http://www.w3.org/2000/svg" xmlns:xlink="http://www.w3.org/1999/xlink" viewBox="0 0 715 715"><defs><style>.cls-1{fill:url(#linear-gradient);}.cls-10,.cls-12,.cls-2,.cls-4,.cls-6,.cls-8{fill:none;stroke-linejoin:round;stroke-width:0.02px;}.cls-2{stroke:#000;}.cls-3{fill:#fff;}.cls-4{stroke:#fff;}.cls-5{fill:#b0d1f0;}.cls-6{stroke:#b0d1f0;}.cls-7{fill:#4263ba;}.cls-8{stroke:#4263ba;}.cls-9{fill:#039;}.cls-10{stroke:#039;}.cls-11{fill:#def2fc;}.cls-12{stroke:#def2fc;}.cls-13{isolation:isolate;}</style><linearGradient id="linear-gradient" x2="715" y2="715" gradientUnits="userSpaceOnUse"><stop offset="0" stop-color="#fefefe"/><stop offset="1" stop-color="#ededed"/></linearGradient></defs><title>lacp-spotlights</title><g id="Layer_2" data-name="Layer 2"><g id="Layer_1-2" data-name="Layer 1"><rect class="cls-1" width="715" height="715"/><g id="Page-1"><g id="LACP_Spotlight_Awards" data-name="LACP Spotlight Awards"><path id="Fill-1" d="M488.2,297v80.61h31.36V349.38h29l6.5-.29,5.92-.89,5.32-1.33,4.58-1.92,4.14-2.52,2.81-2.36,2.36-2.81,1.78-3,1.33-3.4.74-3.7.3-4-.3-4-.74-3.7-1.33-3.4L580.22,309l-2.36-2.66L575,303.83l-4.14-2.36-4.58-1.92L561,298.06l-5.92-.74-6.5-.3Zm31.36,17.31h17l3.55.14,3,.3,2.36.74,1.78.74,1.18,1.18,1,1.48.45,1.93.14,2.22-.14,2.22-.59,1.92-.89,1.48-1.18,1.18-1.78.74-2.36.74-3,.29-3.55.15h-17Z"/><path id="Stroke-2" class="cls-2" d="M536.58,314.33h-17v17.46h17l3.55-.15,3-.3,2.36-.74,1.78-.74,1.18-1.18.89-1.48.59-1.92.14-2.22-.14-2.22-.44-1.93-1-1.48-1.18-1.18-1.78-.74-2.36-.74-3-.3Zm-48.37,63.31V297h60.36l6.51.3,5.92.74,5.32,1.48,4.58,1.92,4.14,2.36,2.82,2.52,2.36,2.66,1.78,3.11,1.33,3.4.74,3.7.3,4-.3,4-.74,3.7L582,334.3l-1.78,3-2.36,2.81L575,342.43l-4.14,2.51-4.58,1.92L561,348.2l-5.92.89-6.51.3h-29v28.25Z"/><polygon id="Fill-3" points="446.93 295.1 439.98 295.69 433.62 296.88 427.85 298.36 422.67 300.43 417.93 302.79 413.79 305.61 410.09 308.86 406.99 312.56 404.47 316.7 402.55 321.29 401.22 326.17 400.33 331.63 400.03 337.4 400.33 343.18 401.22 348.5 402.55 353.52 404.47 358.11 406.99 362.11 410.09 365.8 413.79 369.06 417.93 372.02 422.67 374.38 427.85 376.3 433.62 377.93 439.98 378.97 446.93 379.56 454.32 379.85 462.02 379.56 469.12 378.82 475.63 377.63 481.69 376.01 487.02 373.94 491.9 371.28 496.04 368.17 499.75 364.62 502.7 360.63 505.07 356.19 506.84 351.31 508.03 345.98 471.93 345.98 471.04 348.94 469.71 351.6 468.08 353.97 466.02 355.74 463.65 357.23 460.83 358.26 457.73 358.85 454.32 359 450.48 358.85 447.08 358.11 443.97 357.08 441.31 355.45 438.94 353.52 437.02 351.01 435.54 348.2 434.5 345.09 433.91 341.4 433.62 337.4 433.91 333.41 434.5 329.71 435.54 326.46 437.02 323.65 438.94 321.13 441.31 319.21 443.97 317.58 447.08 316.4 450.48 315.81 454.32 315.51 458.02 315.81 461.28 316.55 464.24 317.73 466.75 319.51 468.68 321.73 470.3 324.24 471.34 327.35 471.93 330.9 507.73 330.9 507.14 325.27 505.81 320.25 503.74 315.51 500.93 311.23 497.38 307.52 493.24 304.12 488.21 301.32 482.73 299.1 476.52 297.18 469.86 295.99 462.32 295.1 454.32 294.95 446.93 295.1"/><polygon id="Stroke-4" class="cls-2" points="471.93 330.9 471.34 327.35 470.3 324.24 468.68 321.73 466.75 319.51 464.24 317.73 461.28 316.55 458.02 315.81 454.32 315.51 450.48 315.81 447.08 316.4 443.97 317.58 441.31 319.21 438.94 321.13 437.02 323.65 435.54 326.46 434.5 329.71 433.91 333.41 433.62 337.41 433.91 341.4 434.5 345.09 435.54 348.2 437.02 351.01 438.94 353.52 441.31 355.45 443.97 357.08 447.08 358.11 450.48 358.85 454.32 359 457.73 358.85 460.83 358.26 463.65 357.22 466.01 355.74 468.08 353.97 469.71 351.6 471.04 348.94 471.93 345.99 508.03 345.99 506.84 351.31 505.07 356.19 502.7 360.62 499.75 364.62 496.04 368.17 491.9 371.28 487.02 373.94 481.69 376.01 475.63 377.64 469.12 378.82 462.02 379.56 454.32 379.85 446.93 379.56 439.98 378.97 433.62 377.93 427.85 376.31 422.67 374.38 417.94 372.02 413.79 369.06 410.1 365.8 406.99 362.1 404.47 358.11 402.55 353.52 401.22 348.5 400.33 343.17 400.04 337.41 400.33 331.63 401.22 326.16 402.55 321.28 404.47 316.7 406.99 312.56 410.1 308.86 413.79 305.61 417.94 302.79 422.67 300.43 427.85 298.36 433.62 296.88 439.98 295.69 446.93 295.1 454.32 294.95 462.32 295.1 469.86 295.99 476.51 297.17 482.73 299.09 488.2 301.32 493.24 304.13 497.38 307.52 500.93 311.22 503.74 315.51 505.81 320.25 507.14 325.27 507.73 330.9 471.93 330.9"/><path id="Fill-5" d="M488.2,346H508l-1.19,5.32-1.77,4.88-2.36,4.43-3,4L496,368.17l-4.14,3.11-1.78,1-1.92,1Zm0-44.67,2.51,1.33,2.52,1.48,4.14,3.4,3.55,3.7,2.81,4.29,2.07,4.73,1.33,5,.59,5.62H488.2Z"/><path id="Stroke-6" class="cls-2" d="M488.2,346H508l-1.19,5.32-1.77,4.88-2.36,4.43-3,4L496,368.17l-4.14,3.11-1.78,1-1.92,1Zm0-44.67,2.51,1.33,2.52,1.48,4.14,3.4,3.55,3.7,2.81,4.29,2.07,4.73,1.33,5,.59,5.62H488.2Z"/><path id="Fill-7" d="M363.79,349.83h20l-9.61-28.25ZM320,377.64,355.07,297h39.64l32.54,80.61H393.38l-2.66-7.84H356.4l-2.81,7.84Z"/><path id="Stroke-8" class="cls-2" d="M363.79,349.83h20l-9.61-28.25ZM320,377.64,355.07,297h39.64l32.54,80.61H393.38l-2.66-7.84H356.4l-2.81,7.84Z"/><polygon id="Fill-9" points="426.66 375.86 421.78 374.08 417.49 371.72 413.79 369.06 410.1 365.8 406.99 362.1 404.47 358.11 402.55 353.52 401.22 348.5 400.33 343.17 400.04 337.41 400.19 332.23 400.93 327.5 401.96 322.91 403.44 318.77 426.66 375.86"/><polygon id="Stroke-10" class="cls-2" points="426.66 375.86 421.78 374.08 417.49 371.72 413.79 369.06 410.1 365.8 406.99 362.1 404.47 358.11 402.55 353.52 401.22 348.5 400.33 343.17 400.04 337.41 400.19 332.23 400.93 327.5 401.96 322.91 403.44 318.77 426.66 375.86"/><polygon id="Fill-11" points="264.23 377.63 264.23 297.03 295.44 297.03 295.44 355.6 344.71 355.6 344.71 377.63 264.23 377.63"/><polygon id="Stroke-12" class="cls-2" points="264.23 377.63 264.23 297.03 295.44 297.03 295.44 355.6 344.71 355.6 344.71 377.63 264.23 377.63"/><polygon id="Fill-13" points="329.62 355.6 344.7 355.6 344.7 377.63 320 377.63 329.62 355.6"/><polygon id="Stroke-14" class="cls-2" points="329.62 355.6 344.7 355.6 344.7 377.63 320 377.63 329.62 355.6"/><polygon id="Fill-15" class="cls-3" points="329.62 355.6 344.7 355.6 344.7 377.63 320 377.63 329.62 355.6"/><polygon id="Stroke-16" class="cls-4" points="329.62 355.6 344.7 355.6 344.7 377.63 320 377.63 329.62 355.6"/><polygon id="Fill-17" class="cls-3" points="329.62 355.6 344.7 355.6 344.7 377.63 320 377.63 329.62 355.6"/><polygon id="Stroke-18" class="cls-4" points="329.62 355.6 344.7 355.6 344.7 377.63 320 377.63 329.62 355.6"/><polygon id="Fill-19" class="cls-3" points="329.62 355.6 344.7 355.6 344.7 377.63 320 377.63 329.62 355.6"/><polygon id="Stroke-20" class="cls-4" points="329.62 355.6 344.7 355.6 344.7 377.63 320 377.63 329.62 355.6"/><polygon id="Fill-21" class="cls-3" points="329.62 355.6 344.7 355.6 344.7 377.63 320 377.63 329.62 355.6"/><polygon id="Stroke-22" class="cls-4" points="329.62 355.6 344.7 355.6 344.7 377.63 320 377.63 329.62 355.6"/><polygon id="Fill-23" class="cls-3" points="426.66 375.86 421.78 374.08 417.49 371.72 413.79 369.06 410.1 365.8 406.99 362.1 404.47 357.96 402.55 353.52 401.22 348.5 400.33 343.17 400.04 337.41 400.19 332.23 400.93 327.5 401.96 322.91 403.44 318.77 426.66 375.86"/><polygon id="Stroke-24" class="cls-4" points="426.66 375.86 421.78 374.08 417.49 371.72 413.79 369.06 410.1 365.8 406.99 362.1 404.47 357.96 402.55 353.52 401.22 348.5 400.33 343.17 400.04 337.41 400.19 332.23 400.93 327.5 401.96 322.91 403.44 318.77 426.66 375.86"/><path id="Fill-25" class="cls-3" d="M426.66,375.86l-.89-.3-.74-.3h-.15l-2.36-1-2.37-1H420v-.15h-.15l-.14-.15h-.15l-.14-.15h-.15l-.15-.15H419l-.14-.15h-.15l-.15-.15h-.14v-.15h-.15l-.15-.15h-.15l-.15-.15-.15-.15h-.15l-.14-.15-.3-.15h-.15v-.15h-.14l-.15-.15h-.14V371h-.15l-.15-.15-.14-.15h-.15l-.15-.15-.15-.15h-.14l-.14-.15-.15-.15H415l-.15-.15-.14-.15h-.15v-.15h-.14l-.15-.15h-.14v-.15h-.15l-.15-.15v-.14l-3.69-3.25L407,362.1,404.47,358l-1.92-4.44-1.33-5-.89-5.32-.29-5.77v-1.63l.15-1.63v-1.92l.14-.3v-1.19l.15-.3v-.59l.14-.3v-.89l.15-.29v-.59l.15-.3v-.45l.14-.15v-.59l.15-.15v-.44l.14-.15V325l.15-.15v-.44l.14-.15v-.29l.15-.3v-.3l.15-.15v-.3l.14-.15v-.3l.15-.15v-.44l.15-.15v-.3h.15V321h.14v-.3l.15-.15v-.15l.15-.15v-.3l.15-.15v-.3l.15-.14v-.15l.15-.15v-.3Zm-6.95-3h-.15l-.14-.15Zm-1-.44-.15-.15h-.14Z"/><path id="Stroke-26" class="cls-4" d="M426.66,375.86l-.89-.3-.74-.3h-.15l-2.36-1-2.37-1H420v-.15h-.15l-.14-.15h-.15l-.14-.15h-.15l-.15-.15H419l-.14-.15h-.15l-.15-.15h-.14v-.15h-.15l-.15-.15h-.15l-.15-.15-.15-.15h-.15l-.14-.15-.3-.15h-.15v-.15h-.14l-.15-.15h-.14V371h-.15l-.15-.15-.14-.15h-.15l-.15-.15-.15-.15h-.14l-.14-.15-.15-.15H415l-.15-.15-.14-.15h-.15v-.15h-.14l-.15-.15h-.14v-.15h-.15l-.15-.15v-.14l-3.69-3.25L407,362.1,404.47,358l-1.92-4.44-1.33-5-.89-5.32-.29-5.77v-1.63l.15-1.63v-1.92l.14-.3v-1.19l.15-.3v-.59l.14-.3v-.89l.15-.29v-.59l.15-.3v-.45l.14-.15v-.59l.15-.15v-.44l.14-.15V325l.15-.15v-.44l.14-.15v-.29l.15-.3v-.3l.15-.15v-.3l.14-.15v-.3l.15-.15v-.44l.15-.15v-.3h.15V321h.14v-.3l.15-.15v-.15l.15-.15v-.3l.15-.15v-.3l.15-.14v-.15l.15-.15v-.3Zm-6.95-3h-.15l-.14-.15Zm-1-.44-.15-.15h-.14Z"/><polygon id="Fill-27" class="cls-3" points="426.66 375.86 421.78 374.08 417.49 371.72 413.79 369.06 410.1 365.8 406.99 362.1 404.47 357.96 402.55 353.52 401.22 348.5 400.33 343.17 400.04 337.41 400.19 332.23 400.93 327.5 401.96 322.91 403.44 318.77 426.66 375.86"/><polygon id="Stroke-28" class="cls-4" points="426.66 375.86 421.78 374.08 417.49 371.72 413.79 369.06 410.1 365.8 406.99 362.1 404.47 357.96 402.55 353.52 401.22 348.5 400.33 343.17 400.04 337.41 400.19 332.23 400.93 327.5 401.96 322.91 403.44 318.77 426.66 375.86"/><polygon id="Fill-29" class="cls-3" points="426.66 375.86 421.78 374.08 417.49 371.72 413.79 369.06 410.1 365.8 406.99 362.1 404.47 357.96 402.55 353.52 401.22 348.5 400.33 343.17 400.04 337.41 400.04 334.89 400.19 332.52 400.19 332.38 400.19 332.23 400.33 332.08 400.33 331.93 400.33 331.79 400.33 331.63 400.33 331.49 400.33 331.34 400.33 331.19 400.33 331.04 400.33 330.9 400.48 330.75 400.48 330.6 400.48 330.45 400.48 330.31 400.48 330.16 400.48 330.01 400.48 329.86 400.48 329.71 400.62 329.56 400.62 329.42 400.62 329.27 400.62 329.12 400.62 328.97 400.62 328.82 400.62 328.68 400.77 328.53 400.77 328.38 400.77 328.24 400.77 328.09 400.77 327.94 400.77 327.79 400.93 327.64 400.93 327.5 401.96 322.91 403.44 318.77 426.66 375.86"/><polygon id="Stroke-30" class="cls-4" points="426.66 375.86 421.78 374.08 417.49 371.72 413.79 369.06 410.1 365.8 406.99 362.1 404.47 357.96 402.55 353.52 401.22 348.5 400.33 343.17 400.04 337.41 400.04 334.89 400.19 332.52 400.19 332.38 400.19 332.23 400.33 332.08 400.33 331.93 400.33 331.79 400.33 331.63 400.33 331.49 400.33 331.34 400.33 331.19 400.33 331.04 400.33 330.9 400.48 330.75 400.48 330.6 400.48 330.45 400.48 330.31 400.48 330.16 400.48 330.01 400.48 329.86 400.48 329.71 400.62 329.56 400.62 329.42 400.62 329.27 400.62 329.12 400.62 328.97 400.62 328.82 400.62 328.68 400.77 328.53 400.77 328.38 400.77 328.24 400.77 328.09 400.77 327.94 400.77 327.79 400.93 327.64 400.93 327.5 401.96 322.91 403.44 318.77 426.66 375.86"/><path id="Fill-31" class="cls-3" d="M488.2,346H508l-1.19,5.32-1.77,4.88-2.36,4.43-3,4L496,368.17l-4.14,3.11-1.78,1-1.92,1Zm0-44.67,2.51,1.33,2.52,1.48,4.14,3.4,3.55,3.7,2.81,4.29,2.07,4.73,1.33,5,.59,5.62H488.2Z"/><path id="Stroke-32" class="cls-4" d="M488.2,346H508l-1.19,5.32-1.77,4.88-2.36,4.43-3,4L496,368.17l-4.14,3.11-1.78,1-1.92,1Zm0-44.67,2.51,1.33,2.52,1.48,4.14,3.4,3.55,3.7,2.81,4.29,2.07,4.73,1.33,5,.59,5.62H488.2Z"/><path id="Fill-33" class="cls-3" d="M488.2,346H508l-1.19,5.32-1.77,4.88-2.36,4.43-3,4L496,368.17l-4.14,3.11-1.78,1-1.92,1Zm0-44.67,2.51,1.33,2.52,1.48,4.14,3.4,3.55,3.7,2.81,4.29,2.07,4.73,1.33,5,.59,5.62H488.2Z"/><path id="Stroke-34" class="cls-4" d="M488.2,346H508l-1.19,5.32-1.77,4.88-2.36,4.43-3,4L496,368.17l-4.14,3.11-1.78,1-1.92,1Zm0-44.67,2.51,1.33,2.52,1.48,4.14,3.4,3.55,3.7,2.81,4.29,2.07,4.73,1.33,5,.59,5.62H488.2Z"/><path id="Fill-35" class="cls-3" d="M488.2,346H508l-.15.3v.44l-.14.3v.74l-.15.3v.15l-.14.29v.59l-.15.15v.59l-.14.15v.3l-.15.3V351l-.15.15v.3l-.14.3v.15l-.15.3v.3l-.14.15v.29l-.15.15v.3l-.15.15v.3L506,354l-.14.3v.3l-.15.15v.3l-.15.15-.14.3v.15l-.15.3V356l-.15.3-.15.15v.3l-.14.15-.15.15-.15.29v.15l-.14.3-.15.15v.3l-.14.14-.15.15-.14.3V359l-.15.3-.14.15-.15.15-.15.3V360l-.14.3-.15.15-.15.15-.15.3-.14.15-.15.15v.15l-.15.3-.14.14-.15.15-.14.3-.15.15-.14.15-.15.3-.14.15-.15.15-.15.15-.15.3-.15.15-.15.15-.15.15-.14.15-.15.3-.14.15-.15.15-.15.15-.15.15-.15.3-.14.15-.15.15-.14.15-.15.15-.3.15-.15.15-.15.29-.15.15-.14.15-.15.15-.14.15-.3.15-.15.15-.15.15-.14.15-.15.15-.3.15-.15.15-.14.3-.15.15-.3.15-.14.15-.15.15-.29.15-.15.15-.15.15-.3.15-.15.15-.14.15-.3.15h-.15l-.15.15-.3.15-.14.15-.15.15-.3.14-.15.15-.3.15-.14.15h-.15l-.14.15h-.15v.15l-.14.15H491v.15h-.29l-.14.15-.15.15-.15.15h-.15l-.15.15-.3.15h-.14l-.3.15-.15.15-.14.15h-.15l-.15.15h-.3l-.14.15Zm0-44.67.14.15h.3v.15h.15l.3.15.15.15h.14l.15.15h.14l.15.15H490l.15.15h.15l.15.15h.15l.14.15.29.15.15.15.3.15.45.3.44.3.15.15h.3V304h.15l.3.15,3.11,2.52,3,2.66.15.3.15.15.15.15.14.15.15.15.14.3.15.15.15.15.15.15.15.3.15.15.15.15.14.15.15.3.14.15.15.14.14.3.15.15.14.15.15.3.15.15v.15l.14.3.15.15.15.15.15.3.14.15v.15l.15.3.15.15.14.3.15.15v.15l.14.3.15.15.14.3v.15l.15.29.14.15v.3l.15.15.15.15v.3l.14.15.15.3v.15l.15.3.15.15v.3l.14.3v.15l.15.3v.15l.15.3.14.15v.3l.15.15v.29l.15.3V322l.15.15v.3l.14.3v.15l.15.3v.44l.14.3v.15l.15.3v.44l.15.3v.74l.14.3v.44l.15.3v1l.14.3v1l.15.3v1.33H488.2Z"/><path id="Stroke-36" class="cls-4" d="M488.2,346H508l-.15.3v.44l-.14.3v.74l-.15.3v.15l-.14.29v.59l-.15.15v.59l-.14.15v.3l-.15.3V351l-.15.15v.3l-.14.3v.15l-.15.3v.3l-.14.15v.29l-.15.15v.3l-.15.15v.3L506,354l-.14.3v.3l-.15.15v.3l-.15.15-.14.3v.15l-.15.3V356l-.15.3-.15.15v.3l-.14.15-.15.15-.15.29v.15l-.14.3-.15.15v.3l-.14.14-.15.15-.14.3V359l-.15.3-.14.15-.15.15-.15.3V360l-.14.3-.15.15-.15.15-.15.3-.14.15-.15.15v.15l-.15.3-.14.14-.15.15-.14.3-.15.15-.14.15-.15.3-.14.15-.15.15-.15.15-.15.3-.15.15-.15.15-.15.15-.14.15-.15.3-.14.15-.15.15-.15.15-.15.15-.15.3-.14.15-.15.15-.14.15-.15.15-.3.15-.15.15-.15.29-.15.15-.14.15-.15.15-.14.15-.3.15-.15.15-.15.15-.14.15-.15.15-.3.15-.15.15-.14.3-.15.15-.3.15-.14.15-.15.15-.29.15-.15.15-.15.15-.3.15-.15.15-.14.15-.3.15h-.15l-.15.15-.3.15-.14.15-.15.15-.3.14-.15.15-.3.15-.14.15h-.15l-.14.15h-.15v.15l-.14.15H491v.15h-.29l-.14.15-.15.15-.15.15h-.15l-.15.15-.3.15h-.14l-.3.15-.15.15-.14.15h-.15l-.15.15h-.3l-.14.15Zm0-44.67.14.15h.3v.15h.15l.3.15.15.15h.14l.15.15h.14l.15.15H490l.15.15h.15l.15.15h.15l.14.15.29.15.15.15.3.15.45.3.44.3.15.15h.3V304h.15l.3.15,3.11,2.52,3,2.66.15.3.15.15.15.15.14.15.15.15.14.3.15.15.15.15.15.15.15.3.15.15.15.15.14.15.15.3.14.15.15.14.14.3.15.15.14.15.15.3.15.15v.15l.14.3.15.15.15.15.15.3.14.15v.15l.15.3.15.15.14.3.15.15v.15l.14.3.15.15.14.3v.15l.15.29.14.15v.3l.15.15.15.15v.3l.14.15.15.3v.15l.15.3.15.15v.3l.14.3v.15l.15.3v.15l.15.3.14.15v.3l.15.15v.29l.15.3V322l.15.15v.3l.14.3v.15l.15.3v.44l.14.3v.15l.15.3v.44l.15.3v.74l.14.3v.44l.15.3v1l.14.3v1l.15.3v1.33H488.2Z"/><path id="Fill-37" class="cls-3" d="M488.2,346H508l-.15.3v.44l-.14.3v.74l-.15.3v.15l-.14.29v.59l-.15.15v.59l-.14.15v.3l-.15.3V351l-.15.15v.3l-.14.3v.15l-.15.3v.3l-.14.15v.29l-.15.15v.3l-.15.15v.3L506,354l-.14.3v.3l-.15.15v.3l-.15.15-.14.3v.15l-.15.3V356l-.15.3-.15.15v.3l-.14.15-.15.15-.15.29v.15l-.14.3-.15.15v.3l-.14.14-.15.15-.14.3V359l-.15.3-.14.15-.15.15-.15.3V360l-.14.3-.15.15-.15.15-.15.3-.14.15-.15.15v.15l-.15.3-.14.14-.15.15-.14.3-.15.15-.14.15-.15.3-.14.15-.15.15-.15.15-.15.3-.15.15-.15.15-.15.15-.14.15-.15.3-.14.15-.15.15-.15.15-.15.15-.15.3-.14.15-.15.15-.14.15-.15.15-.3.15-.15.15-.15.29-.15.15-.14.15-.15.15-.14.15-.3.15-.15.15-.15.15-.14.15-.15.15-.3.15-.15.15-.14.3-.15.15-.3.15-.14.15-.15.15-.29.15-.15.15-.15.15-.3.15-.15.15-.14.15-.3.15h-.15l-.15.15-.3.15-.14.15-.15.15-.3.14-.15.15-.3.15-.14.15h-.15v.15h-.14l-.15.15h-.14l-1.48.89-1.63.89Zm0-44.67,2.51,1.33,2.52,1.48,3.11,2.52,3,2.66.15.3.15.15.15.15.14.15.15.15.14.3.15.15.15.15.15.15.15.3.15.15.15.15.14.15.15.3.14.15.15.14.14.3.15.15.14.15.15.3.15.15v.15l.14.3.15.15.15.15.15.3.14.15v.15l.15.3.15.15.14.3.15.15v.15l.14.3.15.15.14.3v.15l.15.29.14.15v.3l.15.15.15.15v.3l.14.15.15.3v.15l.15.3.15.15v.3l.14.3v.15l.15.3v.15l.15.3.14.15v.3l.15.15v.29l.15.3V322l.15.15v.3l.14.3v.15l.15.3v.44l.14.3v.15l.15.3v.44l.15.3v.74l.14.3v.44l.15.3v1l.14.3v1l.15.3v1.33H488.2Z"/><path id="Stroke-38" class="cls-4" d="M488.2,346H508l-.15.3v.44l-.14.3v.74l-.15.3v.15l-.14.29v.59l-.15.15v.59l-.14.15v.3l-.15.3V351l-.15.15v.3l-.14.3v.15l-.15.3v.3l-.14.15v.29l-.15.15v.3l-.15.15v.3L506,354l-.14.3v.3l-.15.15v.3l-.15.15-.14.3v.15l-.15.3V356l-.15.3-.15.15v.3l-.14.15-.15.15-.15.29v.15l-.14.3-.15.15v.3l-.14.14-.15.15-.14.3V359l-.15.3-.14.15-.15.15-.15.3V360l-.14.3-.15.15-.15.15-.15.3-.14.15-.15.15v.15l-.15.3-.14.14-.15.15-.14.3-.15.15-.14.15-.15.3-.14.15-.15.15-.15.15-.15.3-.15.15-.15.15-.15.15-.14.15-.15.3-.14.15-.15.15-.15.15-.15.15-.15.3-.14.15-.15.15-.14.15-.15.15-.3.15-.15.15-.15.29-.15.15-.14.15-.15.15-.14.15-.3.15-.15.15-.15.15-.14.15-.15.15-.3.15-.15.15-.14.3-.15.15-.3.15-.14.15-.15.15-.29.15-.15.15-.15.15-.3.15-.15.15-.14.15-.3.15h-.15l-.15.15-.3.15-.14.15-.15.15-.3.14-.15.15-.3.15-.14.15h-.15v.15h-.14l-.15.15h-.14l-1.48.89-1.63.89Zm0-44.67,2.51,1.33,2.52,1.48,3.11,2.52,3,2.66.15.3.15.15.15.15.14.15.15.15.14.3.15.15.15.15.15.15.15.3.15.15.15.15.14.15.15.3.14.15.15.14.14.3.15.15.14.15.15.3.15.15v.15l.14.3.15.15.15.15.15.3.14.15v.15l.15.3.15.15.14.3.15.15v.15l.14.3.15.15.14.3v.15l.15.29.14.15v.3l.15.15.15.15v.3l.14.15.15.3v.15l.15.3.15.15v.3l.14.3v.15l.15.3v.15l.15.3.14.15v.3l.15.15v.29l.15.3V322l.15.15v.3l.14.3v.15l.15.3v.44l.14.3v.15l.15.3v.44l.15.3v.74l.14.3v.44l.15.3v1l.14.3v1l.15.3v1.33H488.2Z"/><polygon id="Fill-39" class="cls-5" points="136.27 381.04 247.52 381.04 247.52 293.62 136.27 293.62 136.27 381.04"/><polygon id="Stroke-40" class="cls-6" points="136.27 381.04 247.51 381.04 247.51 293.62 136.27 293.62 136.27 381.04"/><polygon id="Fill-42" class="cls-7" points="191.74 377.04 217.34 370.09 228.43 350.13 231.83 339.03 226.36 314.78 215.56 302.65 191.74 297.62 191.74 377.04"/><polygon id="Stroke-43" class="cls-8" points="191.74 377.04 217.34 370.09 228.43 350.13 231.83 339.03 226.36 314.78 215.56 302.65 191.74 297.62 191.74 377.04"/><polygon id="Fill-44" class="cls-9" points="166.29 316.4 167.93 316.11 169.7 314.62 172.66 314.62 174.88 313 179.02 312.85 179.76 313.74 182.72 313.3 185.68 315.07 182.87 316.55 177.25 314.62 177.09 315.51 179.17 316.55 179.02 317.59 180.21 318.62 177.39 320.1 177.98 323.8 182.43 325.42 184.49 324.98 182.72 320.84 184.35 319.51 187.75 318.91 191 317.59 191.74 319.21 193.66 323.8 189.82 324.09 187.6 326.02 188.64 328.38 184.94 329.42 182.72 330.75 184.49 333.56 184.79 337.25 182.57 339.18 184.64 342.73 183.6 342.88 180.65 339.62 173.84 337.99 171.18 341.99 173.25 343.76 175.91 343.03 176.95 341.84 177.98 342.88 178.28 346.43 182.57 348.65 183.46 346.72 187.6 344.65 195 345.83 200.02 350.86 203.72 351.9 201.8 353.82 198.84 355.6 198.1 358.71 197.66 358.71 195.44 361.37 194.26 363.59 193.22 364.32 192.19 365.95 189.97 367.43 188.34 368.91 187.31 368.76 187.16 366.1 186.27 363 186.42 361.81 185.53 361.66 187.01 357.81 186.86 356.19 184.49 356.04 182.27 354.56 182.43 353.67 180.35 352.2 180.5 350.71 181.98 350.13 179.02 347.46 172.66 345.39 169.55 344.5 168.37 341.55 165.85 338.59 163.93 337.85 166.59 341.55 166.44 342.14 165.11 341.11 163.34 337.99 162.6 335.93 160.97 334.15 161.57 332.97 161.86 331.94 163.49 329.86 162.45 326.9 161.86 323.8 163.04 320.1 165.26 317.59 166.29 316.4"/><polygon id="Stroke-45" class="cls-10" points="166.29 316.4 167.93 316.11 169.7 314.62 172.66 314.62 174.88 313 179.02 312.85 179.76 313.74 182.72 313.3 185.68 315.07 182.87 316.55 177.25 314.62 177.09 315.51 179.17 316.55 179.02 317.59 180.21 318.62 177.39 320.1 177.98 323.8 182.43 325.42 184.49 324.98 182.72 320.84 184.35 319.51 187.75 318.91 191 317.59 191.74 319.21 193.66 323.8 189.82 324.09 187.6 326.02 188.64 328.38 184.94 329.42 182.72 330.75 184.49 333.56 184.79 337.25 182.57 339.18 184.64 342.73 183.6 342.88 180.65 339.62 173.84 337.99 171.18 341.99 173.25 343.76 175.91 343.03 176.95 341.84 177.98 342.88 178.28 346.43 182.57 348.65 183.46 346.72 187.6 344.65 195 345.83 200.02 350.86 203.72 351.9 201.8 353.82 198.84 355.6 198.1 358.71 197.66 358.71 195.44 361.37 194.26 363.59 193.22 364.32 192.19 365.95 189.97 367.43 188.34 368.91 187.31 368.76 187.16 366.1 186.27 363 186.42 361.81 185.53 361.66 187.01 357.81 186.86 356.19 184.49 356.04 182.27 354.56 182.43 353.67 180.35 352.2 180.5 350.71 181.98 350.13 179.02 347.46 172.66 345.39 169.55 344.5 168.37 341.55 165.85 338.59 163.93 337.85 166.59 341.55 166.44 342.14 165.11 341.11 163.34 337.99 162.6 335.93 160.97 334.15 161.57 332.97 161.86 331.94 163.49 329.86 162.45 326.9 161.86 323.8 163.04 320.1 165.26 317.59 166.29 316.4"/><polygon id="Fill-46" class="cls-9" points="217.48 318.91 213.79 318.03 211.56 320.69 212.6 322.32 211.27 324.54 209.2 327.05 208.46 332.08 211.42 334.59 216.3 336.37 218.81 335.63 220.89 339.03 220.44 345.84 218.67 352.79 222.22 350.57 222.36 350.27 222.52 350.13 222.52 349.98 222.66 349.83 222.66 349.53 222.81 349.38 222.95 349.09 223.1 348.79 223.1 348.64 223.25 348.35 223.25 348.06 223.4 347.91 223.55 347.61 223.55 347.32 223.69 347.02 223.69 346.72 223.85 346.43 223.85 345.98 223.99 345.84 223.99 345.54 224.14 345.09 224.14 344.8 224.29 344.5 224.44 344.21 224.44 343.76 224.44 343.62 224.59 343.18 224.59 342.88 224.73 342.58 224.73 342.14 224.73 341.84 224.88 341.55 224.88 341.1 224.88 340.66 224.88 340.21 225.03 339.92 225.03 339.47 225.03 339.18 225.03 338.74 225.03 338.29 225.03 337.85 225.03 337.55 225.03 337.11 225.03 336.81 225.03 336.37 225.03 336.07 225.03 335.63 225.03 335.33 224.88 334.89 224.88 334.59 224.88 334.3 224.88 334 224.73 333.56 224.73 333.26 224.73 332.97 224.73 332.67 224.59 332.38 224.59 332.08 224.44 331.79 224.44 331.34 224.44 331.04 224.44 330.75 224.29 330.6 224.29 330.3 224.29 330.01 224.14 329.71 224.14 329.56 223.99 329.27 223.99 328.97 223.99 328.83 223.85 328.53 223.85 328.38 223.69 328.24 223.69 327.94 223.69 327.79 223.69 327.64 223.55 327.2 223.4 326.9 223.4 326.61 223.25 326.31 223.1 326.16 223.1 326.01 223.1 325.72 219.85 320.1 217.48 318.91"/><polygon id="Stroke-47" class="cls-10" points="217.48 318.91 213.79 318.03 211.56 320.69 212.6 322.32 211.27 324.54 209.2 327.05 208.46 332.08 211.42 334.59 216.3 336.37 218.81 335.63 220.89 339.03 220.44 345.84 218.67 352.79 222.22 350.57 222.36 350.27 222.52 350.13 222.52 349.98 222.66 349.83 222.66 349.53 222.81 349.38 222.95 349.09 223.1 348.79 223.1 348.64 223.25 348.35 223.25 348.06 223.4 347.91 223.55 347.61 223.55 347.32 223.69 347.02 223.69 346.72 223.85 346.43 223.85 345.98 223.99 345.84 223.99 345.54 224.14 345.09 224.14 344.8 224.29 344.5 224.44 344.21 224.44 343.76 224.44 343.62 224.59 343.18 224.59 342.88 224.73 342.58 224.73 342.14 224.73 341.84 224.88 341.55 224.88 341.1 224.88 340.66 224.88 340.21 225.03 339.92 225.03 339.47 225.03 339.18 225.03 338.74 225.03 338.29 225.03 337.85 225.03 337.55 225.03 337.11 225.03 336.81 225.03 336.37 225.03 336.07 225.03 335.63 225.03 335.33 224.88 334.89 224.88 334.59 224.88 334.3 224.88 334 224.73 333.56 224.73 333.26 224.73 332.97 224.73 332.67 224.59 332.38 224.59 332.08 224.44 331.79 224.44 331.34 224.44 331.04 224.44 330.75 224.29 330.6 224.29 330.3 224.29 330.01 224.14 329.71 224.14 329.56 223.99 329.27 223.99 328.97 223.99 328.83 223.85 328.53 223.85 328.38 223.69 328.24 223.69 327.94 223.69 327.79 223.69 327.64 223.55 327.2 223.4 326.9 223.4 326.61 223.25 326.31 223.1 326.16 223.1 326.01 223.1 325.72 219.85 320.1 217.48 318.91"/><polygon id="Fill-48" class="cls-5" points="191.74 345.39 195.15 345.84 200.02 350.72 203.72 352.05 201.5 354.12 198.99 355.6 198.25 358.7 197.51 358.85 195.29 361.36 194.26 363.58 192.19 365.95 191.74 366.39 191.74 345.39"/><polygon id="Stroke-49" class="cls-6" points="191.74 345.39 195.15 345.84 200.02 350.72 203.72 352.05 201.5 354.12 198.99 355.6 198.25 358.7 197.51 358.85 195.29 361.36 194.26 363.58 192.19 365.95 191.74 366.39 191.74 345.39"/><polygon id="Fill-50" class="cls-5" points="191.74 323.94 193.66 323.8 193.22 321.14 191.74 319.07 191.74 323.94"/><polygon id="Stroke-51" class="cls-6" points="191.74 319.06 191.74 323.94 193.66 323.8 193.22 321.14 191.74 319.06"/><polygon id="Fill-52" class="cls-5" points="191.59 304.27 192.48 304.27 193.37 304.27 194.11 304.42 195 304.42 195.73 304.57 196.63 304.57 197.36 304.72 198.25 304.87 199 305.01 199.88 305.31 200.62 305.46 201.35 305.75 202.1 305.9 202.84 306.2 203.58 306.64 204.32 306.79 205.06 307.08 205.79 307.52 206.54 307.82 207.28 308.27 208.02 308.56 208.61 309.01 209.2 309.45 209.94 309.89 210.68 310.33 211.27 310.78 211.86 311.22 212.6 311.81 213.05 312.26 213.79 312.85 214.38 313.44 214.96 313.88 215.41 314.48 216.01 315.07 216.45 315.66 217.04 316.25 217.48 316.85 217.93 317.58 218.37 318.18 218.96 318.92 219.26 319.51 219.7 320.1 220.15 320.84 220.59 321.58 220.89 322.17 221.33 322.91 221.62 323.65 221.92 324.39 222.22 325.13 222.51 326.02 222.81 326.61 223.1 327.49 223.25 328.23 223.55 328.97 223.69 329.86 223.84 330.6 223.99 331.49 224.14 332.23 224.28 332.97 224.44 333.86 224.44 334.74 224.44 335.63 224.58 336.52 224.58 337.26 224.58 338.14 224.44 339.03 224.44 339.77 224.44 340.66 224.28 341.4 224.14 342.28 223.99 343.17 223.84 343.91 223.69 344.8 223.55 345.54 223.25 346.28 223.1 347.17 222.81 347.91 222.51 348.64 222.22 349.38 221.92 350.13 221.62 350.87 221.33 351.6 220.89 352.34 220.59 352.94 220.15 353.67 219.7 354.42 219.26 355.01 218.96 355.74 218.37 356.49 217.93 357.08 217.48 357.67 217.04 358.26 216.45 358.85 216.01 359.44 215.41 360.03 214.96 360.62 214.38 361.22 213.79 361.66 213.05 362.25 212.6 362.85 211.86 363.29 211.27 363.73 210.68 364.17 209.94 364.76 209.2 365.06 208.61 365.51 208.02 365.8 207.28 366.25 206.54 366.69 205.79 367.14 205.06 367.43 204.32 367.73 203.58 368.02 202.84 368.32 202.1 368.61 201.35 368.76 200.62 369.06 199.88 369.35 199 369.5 198.25 369.65 197.36 369.65 196.63 369.94 195.73 369.94 195 370.09 194.11 370.24 193.37 370.24 192.48 370.24 191.59 370.39 191.59 378.97 221.03 369.2 232.87 341.1 228.43 318.02 216.3 302.06 191.59 295.25 191.59 304.27"/><polygon id="Stroke-53" class="cls-6" points="191.59 370.39 191.59 378.97 221.03 369.2 232.87 341.1 228.43 318.03 216.3 302.05 191.59 295.25 191.59 304.27 192.48 304.27 193.37 304.27 194.11 304.42 195 304.42 195.74 304.57 196.63 304.57 197.36 304.72 198.25 304.87 198.99 305.01 199.88 305.31 200.62 305.46 201.35 305.75 202.1 305.9 202.84 306.19 203.58 306.64 204.32 306.79 205.06 307.08 205.79 307.53 206.54 307.82 207.28 308.27 208.02 308.56 208.61 309.01 209.2 309.45 209.94 309.89 210.68 310.33 211.27 310.78 211.86 311.22 212.6 311.81 213.05 312.26 213.79 312.85 214.38 313.44 214.97 313.89 215.41 314.48 216 315.07 216.45 315.66 217.04 316.25 217.48 316.85 217.93 317.59 218.37 318.18 218.96 318.91 219.26 319.51 219.7 320.1 220.15 320.84 220.59 321.58 220.89 322.17 221.33 322.91 221.62 323.65 221.92 324.39 222.22 325.13 222.51 326.02 222.81 326.61 223.1 327.5 223.25 328.23 223.55 328.97 223.69 329.86 223.84 330.6 223.99 331.49 224.14 332.23 224.28 332.97 224.44 333.85 224.44 334.74 224.44 335.63 224.58 336.52 224.58 337.25 224.58 338.14 224.44 339.03 224.44 339.77 224.44 340.66 224.28 341.4 224.14 342.28 223.99 343.17 223.84 343.91 223.69 344.8 223.55 345.54 223.25 346.28 223.1 347.17 222.81 347.91 222.51 348.65 222.22 349.38 221.92 350.12 221.62 350.86 221.33 351.61 220.89 352.34 220.59 352.94 220.15 353.67 219.7 354.42 219.26 355 218.96 355.74 218.37 356.49 217.93 357.08 217.48 357.67 217.04 358.26 216.45 358.85 216 359.44 215.41 360.03 214.97 360.62 214.38 361.22 213.79 361.66 213.05 362.25 212.6 362.85 211.86 363.29 211.27 363.73 210.68 364.17 209.94 364.76 209.2 365.06 208.61 365.51 208.02 365.8 207.28 366.25 206.54 366.69 205.79 367.14 205.06 367.43 204.32 367.73 203.58 368.02 202.84 368.31 202.1 368.61 201.35 368.76 200.62 369.05 199.88 369.35 198.99 369.5 198.25 369.65 197.36 369.65 196.63 369.94 195.74 369.94 195 370.09 194.11 370.24 193.37 370.24 192.48 370.24 191.59 370.39"/><polygon id="Fill-54" class="cls-11" points="191.89 293.62 191.89 293.77 191.89 293.92 191.89 294.21 191.89 294.51 191.89 294.81 191.89 295.1 191.89 295.4 191.89 295.55 191.89 295.99 191.89 296.14 191.89 296.28 191.89 296.58 191.89 296.73 191.89 297.03 191.89 297.32 191.89 297.62 191.89 297.91 191.89 298.21 191.89 298.5 191.89 298.65 191.89 298.95 191.89 299.24 191.89 299.39 192.92 299.39 193.81 299.39 194.7 299.54 195.74 299.69 196.63 299.69 197.66 299.83 198.55 299.98 199.58 300.13 200.32 300.28 201.35 300.57 202.1 300.72 203.13 301.02 204.02 301.32 204.91 301.61 205.79 302.06 206.54 302.35 207.42 302.65 208.31 303.09 209.05 303.53 209.94 303.98 210.68 304.42 211.42 304.87 212.31 305.31 213.04 305.9 213.79 306.34 214.52 306.78 215.12 307.38 216.01 307.97 216.59 308.56 217.34 309.15 217.92 309.89 218.67 310.49 219.25 311.08 219.85 311.82 220.44 312.41 221.03 313.15 221.62 313.88 222.22 314.62 222.66 315.37 223.25 316.11 223.69 316.84 224.29 317.58 224.73 318.32 225.18 319.21 225.62 319.95 225.91 320.84 226.36 321.72 226.8 322.47 227.1 323.35 227.39 324.24 227.69 325.13 227.99 326.02 228.29 326.9 228.58 327.79 228.72 328.68 229.02 329.71 229.17 330.6 229.32 331.49 229.46 332.38 229.62 333.41 229.62 334.45 229.76 335.33 229.76 336.37 229.76 337.26 229.76 338.29 229.76 339.33 229.62 340.21 229.62 341.25 229.46 342.14 229.32 343.03 229.17 343.91 229.02 344.95 228.72 345.83 228.58 346.72 228.29 347.61 227.99 348.5 227.69 349.38 227.39 350.27 227.1 351.16 226.8 352.05 226.36 352.94 225.91 353.68 225.62 354.42 225.18 355.3 224.73 356.19 224.29 356.93 223.69 357.67 223.25 358.56 222.66 359.15 222.22 359.88 221.62 360.62 221.03 361.37 220.44 362.11 219.85 362.84 219.25 363.44 218.67 364.18 217.92 364.77 217.34 365.36 216.59 365.95 216.01 366.54 215.12 367.13 214.52 367.58 213.79 368.17 213.04 368.76 212.31 369.2 211.42 369.65 210.68 370.09 209.94 370.54 209.05 370.98 208.31 371.43 207.42 371.72 206.54 372.16 205.79 372.46 204.91 372.9 204.02 373.2 203.13 373.49 202.1 373.79 201.35 373.94 200.32 374.24 199.58 374.38 198.55 374.53 197.66 374.68 196.63 374.83 195.74 374.97 194.7 375.12 193.81 375.12 192.92 375.12 191.89 375.27 191.75 375.27 191.75 375.56 191.75 375.86 191.75 376.16 191.75 376.6 191.75 376.89 191.75 377.19 191.75 377.34 191.75 377.63 191.75 377.93 191.75 378.23 191.75 378.38 191.75 378.52 191.75 381.04 247.81 380.89 214.52 374.09 247.37 370.54 224.14 364.03 247.66 359.29 230.8 352.64 247.52 347.76 234.65 341.69 247.37 336.52 235.38 330.6 247.52 326.31 231.69 320.39 247.37 315.51 227.99 310.19 247.37 304.71 218.67 299.24 247.66 293.62 191.89 293.62"/><polygon id="Stroke-55" class="cls-12" points="191.89 293.62 247.66 293.62 218.67 299.24 247.37 304.72 227.99 310.19 247.37 315.51 231.69 320.39 247.52 326.31 235.38 330.6 247.37 336.52 234.64 341.69 247.52 347.76 230.8 352.64 247.66 359.29 224.14 364.03 247.37 370.54 214.52 374.09 247.81 380.89 191.75 381.04 191.75 378.52 191.75 378.38 191.75 378.23 191.75 377.93 191.75 377.63 191.75 377.34 191.75 377.19 191.75 376.9 191.75 376.6 191.75 376.16 191.75 375.86 191.75 375.56 191.75 375.27 191.89 375.27 192.92 375.12 193.81 375.12 194.7 375.12 195.74 374.97 196.63 374.82 197.66 374.68 198.55 374.53 199.59 374.38 200.32 374.23 201.35 373.94 202.1 373.79 203.13 373.49 204.02 373.2 204.91 372.9 205.79 372.46 206.53 372.17 207.42 371.72 208.31 371.43 209.05 370.98 209.94 370.54 210.68 370.09 211.42 369.65 212.31 369.2 213.04 368.76 213.79 368.17 214.52 367.58 215.12 367.14 216 366.54 216.59 365.95 217.33 365.36 217.92 364.76 218.67 364.17 219.25 363.44 219.85 362.85 220.44 362.11 221.03 361.37 221.62 360.62 222.22 359.88 222.66 359.15 223.25 358.56 223.69 357.67 224.29 356.93 224.73 356.19 225.18 355.3 225.62 354.41 225.91 353.67 226.35 352.94 226.8 352.05 227.1 351.16 227.39 350.27 227.69 349.38 227.99 348.5 228.28 347.61 228.58 346.72 228.72 345.83 229.02 344.95 229.17 343.91 229.32 343.03 229.47 342.14 229.62 341.25 229.62 340.21 229.76 339.33 229.76 338.29 229.76 337.26 229.76 336.37 229.76 335.33 229.62 334.45 229.62 333.41 229.47 332.38 229.32 331.49 229.17 330.6 229.02 329.71 228.72 328.68 228.58 327.79 228.28 326.9 227.99 326.02 227.69 325.13 227.39 324.24 227.1 323.35 226.8 322.47 226.35 321.73 225.91 320.84 225.62 319.95 225.18 319.21 224.73 318.32 224.29 317.59 223.69 316.85 223.25 316.11 222.66 315.37 222.22 314.62 221.62 313.89 221.03 313.15 220.44 312.41 219.85 311.81 219.25 311.08 218.67 310.49 217.92 309.89 217.33 309.15 216.59 308.56 216 307.97 215.12 307.38 214.52 306.79 213.79 306.34 213.04 305.9 212.31 305.31 211.42 304.87 210.68 304.42 209.94 303.98 209.05 303.53 208.31 303.09 207.42 302.64 206.53 302.35 205.79 302.05 204.91 301.61 204.02 301.31 203.13 301.02 202.1 300.72 201.35 300.57 200.32 300.28 199.59 300.13 198.55 299.99 197.66 299.84 196.63 299.69 195.74 299.69 194.7 299.54 193.81 299.39 192.92 299.39 191.89 299.39 191.89 299.24 191.89 298.95 191.89 298.65 191.89 298.5 191.89 298.21 191.89 297.91 191.89 297.62 191.89 297.32 191.89 297.03 191.89 296.73 191.89 296.58 191.89 296.28 191.89 296.14 191.89 295.99 191.89 295.55 191.89 295.4 191.89 295.11 191.89 294.81 191.89 294.51 191.89 294.21 191.89 293.92 191.89 293.77 191.89 293.62"/><polygon id="Fill-57" class="cls-11" points="167.19 302.06 155.05 318.03 150.62 341.1 162.45 369.2 191.89 378.97 191.89 370.39 191 370.24 190.12 370.24 189.22 370.24 188.49 370.09 187.6 369.94 186.86 369.94 185.98 369.65 185.23 369.65 184.5 369.5 183.6 369.35 182.72 369.06 182.13 368.76 181.24 368.61 180.5 368.32 179.76 368.02 179.02 367.73 178.28 367.43 177.54 367.13 176.8 366.69 176.06 366.25 175.47 365.8 174.73 365.51 173.99 365.06 173.4 364.77 172.81 364.18 172.06 363.73 171.48 363.29 170.88 362.85 170.29 362.25 169.7 361.66 169.11 361.22 168.66 360.63 168.07 360.03 167.48 359.44 167.04 358.85 166.44 358.26 166 357.67 165.41 357.07 165.11 356.48 164.52 355.74 164.08 355.01 163.63 354.42 163.19 353.67 162.9 352.93 162.45 352.34 162.16 351.6 161.86 350.86 161.57 350.13 161.12 349.38 160.97 348.64 160.67 347.91 160.38 347.17 160.23 346.28 159.94 345.54 159.79 344.8 159.64 343.91 159.5 343.18 159.34 342.28 159.2 341.4 159.05 340.66 159.05 339.77 158.9 339.03 158.9 338.14 158.9 337.26 158.9 336.52 158.9 335.63 159.05 334.74 159.05 333.86 159.2 332.97 159.34 332.23 159.5 331.49 159.64 330.6 159.79 329.86 159.94 328.97 160.23 328.24 160.38 327.5 160.67 326.61 160.97 326.01 161.12 325.13 161.57 324.39 161.86 323.65 162.16 322.91 162.45 322.17 162.9 321.58 163.19 320.84 163.63 320.1 164.08 319.51 164.52 318.91 165.11 318.18 165.41 317.58 166 316.85 166.44 316.25 167.04 315.66 167.48 315.07 168.07 314.47 168.66 313.89 169.11 313.44 169.7 312.85 170.29 312.26 170.88 311.81 171.48 311.23 172.06 310.78 172.81 310.33 173.4 309.89 173.99 309.45 174.73 309 175.47 308.57 176.06 308.27 176.8 307.82 177.54 307.52 178.28 307.08 179.02 306.79 179.76 306.64 180.5 306.2 181.24 305.9 182.13 305.75 182.72 305.46 183.6 305.31 184.5 305.01 185.23 304.86 185.98 304.72 186.86 304.57 187.6 304.57 188.49 304.42 189.22 304.42 190.12 304.27 191 304.27 191.89 304.27 191.89 295.25 167.19 302.06"/><polygon id="Stroke-58" class="cls-12" points="191.89 370.39 191.89 378.97 162.45 369.2 150.62 341.1 155.06 318.03 167.19 302.05 191.89 295.25 191.89 304.27 191 304.27 190.12 304.27 189.23 304.42 188.49 304.42 187.6 304.57 186.86 304.57 185.97 304.72 185.23 304.87 184.5 305.01 183.6 305.31 182.72 305.46 182.13 305.75 181.24 305.9 180.5 306.19 179.76 306.64 179.02 306.79 178.28 307.08 177.54 307.53 176.8 307.82 176.06 308.27 175.47 308.56 174.73 309.01 173.99 309.45 173.4 309.89 172.81 310.33 172.06 310.78 171.48 311.22 170.88 311.81 170.29 312.26 169.7 312.85 169.11 313.44 168.66 313.89 168.07 314.48 167.48 315.07 167.04 315.66 166.44 316.25 166 316.85 165.41 317.59 165.11 318.18 164.52 318.91 164.08 319.51 163.63 320.1 163.19 320.84 162.9 321.58 162.45 322.17 162.16 322.91 161.86 323.65 161.57 324.39 161.12 325.13 160.97 326.02 160.68 326.61 160.38 327.5 160.23 328.23 159.94 328.97 159.79 329.86 159.64 330.6 159.5 331.49 159.34 332.23 159.2 332.97 159.05 333.85 159.05 334.74 158.9 335.63 158.9 336.52 158.9 337.25 158.9 338.14 158.9 339.03 159.05 339.77 159.05 340.66 159.2 341.4 159.34 342.28 159.5 343.17 159.64 343.91 159.79 344.8 159.94 345.54 160.23 346.28 160.38 347.17 160.68 347.91 160.97 348.65 161.12 349.38 161.57 350.12 161.86 350.86 162.16 351.61 162.45 352.34 162.9 352.94 163.19 353.67 163.63 354.42 164.08 355 164.52 355.74 165.11 356.49 165.41 357.08 166 357.67 166.44 358.26 167.04 358.85 167.48 359.44 168.07 360.03 168.66 360.62 169.11 361.22 169.7 361.66 170.29 362.25 170.88 362.85 171.48 363.29 172.06 363.73 172.81 364.17 173.4 364.76 173.99 365.06 174.73 365.51 175.47 365.8 176.06 366.25 176.8 366.69 177.54 367.14 178.28 367.43 179.02 367.73 179.76 368.02 180.5 368.31 181.24 368.61 182.13 368.76 182.72 369.05 183.6 369.35 184.5 369.5 185.23 369.65 185.97 369.65 186.86 369.94 187.6 369.94 188.49 370.09 189.23 370.24 190.12 370.24 191 370.24 191.89 370.39"/><polygon id="Fill-59" class="cls-9" points="136.27 293.62 164.37 299.24 136.41 304.71 155.35 310.04 136.41 315.51 151.8 320.39 136.41 325.72 149.28 331.04 136.41 336.23 148.54 341.99 136.56 347.76 152.39 353.23 136.41 358.85 158.16 364.18 136.41 369.5 167.63 374.68 136.27 381.04 191.89 381.04 191.89 375.27 190.85 375.12 189.97 375.12 188.93 375.12 188.04 374.97 187.01 374.83 186.12 374.83 185.23 374.53 184.35 374.38 183.31 374.24 182.43 373.94 181.54 373.79 180.65 373.49 179.76 373.2 178.87 372.9 178.13 372.46 177.25 372.16 176.36 371.72 175.47 371.43 174.73 370.98 173.84 370.54 173.1 370.09 172.21 369.65 171.63 369.2 170.74 368.61 170 368.02 169.26 367.58 168.51 366.99 167.78 366.39 167.19 365.8 166.44 365.21 165.85 364.62 165.12 364.03 164.53 363.29 163.93 362.7 163.34 361.96 162.75 361.22 162.16 360.62 161.56 359.88 160.97 359.15 160.53 358.41 159.94 357.67 159.49 356.78 159.05 356.04 158.6 355.3 158.16 354.42 157.86 353.68 157.42 352.78 157.13 352.05 156.68 351.16 156.39 350.27 156.09 349.38 155.8 348.5 155.5 347.61 155.2 346.72 155.06 345.83 154.91 344.95 154.61 343.91 154.47 343.03 154.32 341.99 154.32 341.25 154.16 340.21 154.16 339.33 154.16 338.29 154.16 337.26 154.16 336.37 154.16 335.33 154.16 334.45 154.32 333.41 154.32 332.52 154.47 331.49 154.61 330.6 154.91 329.71 155.06 328.68 155.2 327.79 155.5 326.9 155.8 326.02 156.09 325.13 156.39 324.24 156.68 323.5 157.13 322.62 157.42 321.72 157.86 320.84 158.16 319.95 158.6 319.21 159.05 318.47 159.49 317.58 159.94 316.84 160.53 316.11 160.97 315.37 161.56 314.62 162.16 313.88 162.75 313.29 163.19 312.56 163.93 311.82 164.53 311.08 165.12 310.63 165.7 309.89 166.44 309.3 167.19 308.71 167.78 308.12 168.51 307.53 169.26 306.94 170 306.34 170.74 305.9 171.48 305.31 172.21 304.87 173.1 304.42 173.84 303.98 174.58 303.53 175.47 303.09 176.21 302.79 177.25 302.5 177.98 302.06 178.87 301.76 179.76 301.32 180.65 301.02 181.54 300.72 182.43 300.57 183.31 300.28 184.35 300.13 185.09 299.98 186.12 299.83 187.01 299.69 188.04 299.69 188.93 299.54 189.97 299.39 190.85 299.39 191.89 299.39 191.89 293.62 136.27 293.62"/><polygon id="Stroke-60" class="cls-10" points="191.89 293.62 191.89 299.39 190.86 299.39 189.97 299.39 188.93 299.54 188.04 299.69 187.01 299.69 186.12 299.84 185.09 299.99 184.34 300.13 183.31 300.28 182.42 300.57 181.53 300.72 180.65 301.02 179.76 301.31 178.87 301.76 177.99 302.05 177.24 302.5 176.21 302.79 175.47 303.09 174.58 303.53 173.84 303.98 173.1 304.42 172.21 304.87 171.48 305.31 170.74 305.9 170 306.34 169.26 306.94 168.52 307.53 167.78 308.12 167.19 308.71 166.44 309.3 165.71 309.89 165.11 310.63 164.52 311.08 163.93 311.81 163.19 312.56 162.75 313.3 162.16 313.89 161.57 314.62 160.97 315.37 160.53 316.11 159.94 316.85 159.5 317.59 159.05 318.47 158.6 319.21 158.17 319.95 157.86 320.84 157.42 321.73 157.13 322.61 156.68 323.5 156.38 324.24 156.09 325.13 155.8 326.02 155.5 326.9 155.2 327.79 155.06 328.68 154.9 329.71 154.61 330.6 154.46 331.49 154.31 332.52 154.31 333.41 154.16 334.45 154.16 335.33 154.16 336.37 154.16 337.26 154.16 338.29 154.16 339.33 154.16 340.21 154.31 341.25 154.31 341.99 154.46 343.03 154.61 343.91 154.9 344.95 155.06 345.83 155.2 346.72 155.5 347.61 155.8 348.5 156.09 349.38 156.38 350.27 156.68 351.16 157.13 352.05 157.42 352.79 157.86 353.67 158.17 354.41 158.6 355.3 159.05 356.04 159.5 356.78 159.94 357.67 160.53 358.41 160.97 359.15 161.57 359.88 162.16 360.62 162.75 361.22 163.34 361.96 163.93 362.7 164.52 363.29 165.11 364.03 165.85 364.62 166.44 365.21 167.19 365.8 167.78 366.39 168.52 366.99 169.26 367.58 170 368.02 170.74 368.61 171.63 369.2 172.21 369.65 173.1 370.09 173.84 370.54 174.73 370.98 175.47 371.43 176.36 371.72 177.24 372.17 178.13 372.46 178.87 372.9 179.76 373.2 180.65 373.49 181.53 373.79 182.42 373.94 183.31 374.23 184.34 374.38 185.23 374.53 186.12 374.82 187.01 374.82 188.04 374.97 188.93 375.12 189.97 375.12 190.86 375.12 191.89 375.27 191.89 381.04 136.27 381.04 167.63 374.68 136.41 369.5 158.17 364.17 136.41 358.85 152.39 353.23 136.56 347.76 148.55 341.99 136.41 336.23 149.29 331.05 136.41 325.72 151.8 320.39 136.41 315.51 155.35 310.04 136.41 304.72 164.38 299.24 136.27 293.62 191.89 293.62"/><g id="Spotligh-Awards" class="cls-13"><g class="cls-13"><path d="M167.49,449.94l4.29-.37a9.47,9.47,0,0,0,1.42,4.23,7.74,7.74,0,0,0,3.46,2.67,13.09,13.09,0,0,0,5.27,1,12.64,12.64,0,0,0,4.59-.77,6.37,6.37,0,0,0,3-2.12,4.92,4.92,0,0,0,1-2.94,4.47,4.47,0,0,0-.94-2.82,6.94,6.94,0,0,0-3.09-2,60.47,60.47,0,0,0-6.12-1.68,31.26,31.26,0,0,1-6.63-2.14,9.3,9.3,0,0,1-3.67-3.2,7.84,7.84,0,0,1-1.21-4.28,8.73,8.73,0,0,1,1.48-4.86,9.14,9.14,0,0,1,4.31-3.43,16.36,16.36,0,0,1,6.3-1.17,17.22,17.22,0,0,1,6.74,1.23,9.72,9.72,0,0,1,4.49,3.62,10.4,10.4,0,0,1,1.69,5.41l-4.36.33a7,7,0,0,0-2.38-4.92q-2-1.66-6-1.66-4.12,0-6,1.51a4.53,4.53,0,0,0-1.89,3.64,3.91,3.91,0,0,0,1.34,3q1.31,1.2,6.86,2.45a45.35,45.35,0,0,1,7.61,2.19,10.42,10.42,0,0,1,4.43,3.5,8.54,8.54,0,0,1,1.43,4.89,9.35,9.35,0,0,1-1.57,5.17,10.34,10.34,0,0,1-4.51,3.77,15.72,15.72,0,0,1-6.62,1.35,19.77,19.77,0,0,1-7.82-1.36,11,11,0,0,1-4.95-4.09A11.6,11.6,0,0,1,167.49,449.94Z"/><path d="M200.51,470.52V436.09h3.84v3.23a9.47,9.47,0,0,1,3.07-2.85,8.44,8.44,0,0,1,4.15-.95,9.84,9.84,0,0,1,5.63,1.64,10.07,10.07,0,0,1,3.68,4.63,16.9,16.9,0,0,1,1.24,6.55,16.64,16.64,0,0,1-1.37,6.88,10.34,10.34,0,0,1-4,4.69,10.23,10.23,0,0,1-5.5,1.63,7.94,7.94,0,0,1-3.79-.89,8.62,8.62,0,0,1-2.75-2.25v12.12Zm3.82-21.84q0,4.8,1.95,7.1a6,6,0,0,0,4.71,2.3,6.1,6.1,0,0,0,4.82-2.38q2-2.38,2-7.37,0-4.76-2-7.12a5.89,5.89,0,0,0-4.68-2.37,6.08,6.08,0,0,0-4.77,2.52Q204.33,443.87,204.33,448.68Z"/><path d="M225.63,448.54q0-6.91,3.84-10.24a11.58,11.58,0,0,1,7.83-2.77,11.17,11.17,0,0,1,8.39,3.36q3.26,3.36,3.26,9.29a16.47,16.47,0,0,1-1.44,7.56,10.2,10.2,0,0,1-4.2,4.28,12.21,12.21,0,0,1-6,1.52,11.19,11.19,0,0,1-8.45-3.35Q225.63,454.84,225.63,448.54Zm4.34,0q0,4.78,2.09,7.16a6.95,6.95,0,0,0,10.48,0q2.09-2.39,2.09-7.29,0-4.62-2.1-7a7,7,0,0,0-10.46,0Q230,443.75,230,448.54Z"/><path d="M263.11,457.21l.61,3.73a15.65,15.65,0,0,1-3.19.38,7.22,7.22,0,0,1-3.56-.73,4.07,4.07,0,0,1-1.78-1.91,15.1,15.1,0,0,1-.52-5V439.37h-3.09v-3.28h3.09v-6.16l4.2-2.53v8.7h4.24v3.28h-4.24v14.55a7.35,7.35,0,0,0,.22,2.32,1.76,1.76,0,0,0,.73.82,2.81,2.81,0,0,0,1.44.3A13.72,13.72,0,0,0,263.11,457.21Z"/><path d="M267.14,461V426.62h4.22V461Z"/><path d="M277.92,431.47v-4.85h4.22v4.85Zm0,29.51V436.09h4.22V461Z"/><path d="M287.79,463l4.1.61a3.91,3.91,0,0,0,1.43,2.77,7,7,0,0,0,4.29,1.17,7.53,7.53,0,0,0,4.52-1.17,5.77,5.77,0,0,0,2.16-3.28,27,27,0,0,0,.3-5.41,8.68,8.68,0,0,1-6.89,3.26,9.39,9.39,0,0,1-7.95-3.7,14.26,14.26,0,0,1-2.81-8.88,16.53,16.53,0,0,1,1.29-6.57,10.31,10.31,0,0,1,3.74-4.65,10.09,10.09,0,0,1,5.75-1.64,8.92,8.92,0,0,1,7.27,3.56v-3h3.89v21.52q0,5.81-1.18,8.24a8.66,8.66,0,0,1-3.75,3.83,13,13,0,0,1-6.32,1.41,11.91,11.91,0,0,1-7.2-2A6.78,6.78,0,0,1,287.79,463Zm3.49-15q0,4.9,1.95,7.15a6.42,6.42,0,0,0,9.75,0q2-2.24,2-7,0-4.57-2-6.89A6.27,6.27,0,0,0,298,439a6.09,6.09,0,0,0-4.78,2.29Q291.28,443.59,291.28,448.09Z"/><path d="M315.26,461V426.62h4.22v12.33a9.42,9.42,0,0,1,7.45-3.42,10.05,10.05,0,0,1,4.8,1.09,6.4,6.4,0,0,1,2.92,3,13.88,13.88,0,0,1,.88,5.58V461h-4.22V445.21q0-3.16-1.37-4.61a5.1,5.1,0,0,0-3.88-1.44,6.84,6.84,0,0,0-3.53,1,5.49,5.49,0,0,0-2.36,2.64,12.11,12.11,0,0,0-.7,4.59V461Z"/><path d="M349.41,461l13.2-34.36h4.9L381.56,461h-5.18l-4-10.41H358L354.24,461Zm9.91-14.11H371l-3.59-9.52q-1.64-4.34-2.44-7.12a43.8,43.8,0,0,1-1.85,6.56Z"/><path d="M388.38,461l-7.62-24.89h4.36l4,14.37,1.48,5.34q.09-.4,1.29-5.13l4-14.58h4.34l3.73,14.44,1.24,4.76,1.43-4.8,4.27-14.39h4.1L407.13,461h-4.38l-4-14.91-1-4.24-5,19.15Z"/><path d="M434.7,457.91a15.71,15.71,0,0,1-4.51,2.81,13,13,0,0,1-4.65.82,9,9,0,0,1-6.3-2,6.61,6.61,0,0,1-2.2-5.12,6.81,6.81,0,0,1,.83-3.34,6.89,6.89,0,0,1,2.18-2.43,10.25,10.25,0,0,1,3-1.38,30.15,30.15,0,0,1,3.75-.63,38.56,38.56,0,0,0,7.52-1.45q0-.87,0-1.1a4.66,4.66,0,0,0-1.2-3.63,7.06,7.06,0,0,0-4.8-1.43,7.45,7.45,0,0,0-4.39,1,6.37,6.37,0,0,0-2.1,3.69l-4.12-.56a10.22,10.22,0,0,1,1.85-4.28,8.12,8.12,0,0,1,3.73-2.51,16.62,16.62,0,0,1,5.65-.88,15,15,0,0,1,5.18.75,6.82,6.82,0,0,1,2.93,1.89A6.64,6.64,0,0,1,438.4,441a23.75,23.75,0,0,1,.21,3.89v5.63a59.7,59.7,0,0,0,.27,7.44,9.39,9.39,0,0,0,1.07,3h-4.41A8.94,8.94,0,0,1,434.7,457.91Zm-.35-9.42a31,31,0,0,1-6.89,1.59,15.94,15.94,0,0,0-3.68.84,3.67,3.67,0,0,0-1.66,1.37,3.73,3.73,0,0,0,.69,4.82,5.5,5.5,0,0,0,3.74,1.13,8.7,8.7,0,0,0,4.34-1.07,6.57,6.57,0,0,0,2.79-2.92,10.19,10.19,0,0,0,.68-4.22Z"/><path d="M445.1,461V436.09h3.8v3.77a10.3,10.3,0,0,1,2.68-3.49,4.68,4.68,0,0,1,2.71-.84,8.23,8.23,0,0,1,4.34,1.36l-1.45,3.91a6,6,0,0,0-3.09-.91,4,4,0,0,0-2.48.83A4.51,4.51,0,0,0,450,443a16.43,16.43,0,0,0-.7,4.92v13Z"/><path d="M477.28,461v-3.14a7.74,7.74,0,0,1-7,3.7,9.76,9.76,0,0,1-5.47-1.64,10.79,10.79,0,0,1-3.87-4.58,15.84,15.84,0,0,1-1.37-6.76,17.7,17.7,0,0,1,1.24-6.76,9.8,9.8,0,0,1,3.73-4.65,10,10,0,0,1,5.55-1.62,8.3,8.3,0,0,1,6.87,3.42V426.62h4.2V461Zm-13.34-12.42q0,4.78,2,7.15a6.08,6.08,0,0,0,4.76,2.37,6,6,0,0,0,4.7-2.26q1.93-2.26,1.93-6.9,0-5.11-2-7.5a6.06,6.06,0,0,0-4.85-2.39,5.85,5.85,0,0,0-4.7,2.3Q463.95,443.61,463.95,448.56Z"/><path d="M486.14,453.55l4.17-.66a5.83,5.83,0,0,0,2,3.84,6.82,6.82,0,0,0,4.49,1.34,6.59,6.59,0,0,0,4.31-1.18,3.54,3.54,0,0,0,1.41-2.78,2.56,2.56,0,0,0-1.24-2.25,18.3,18.3,0,0,0-4.31-1.43,39.35,39.35,0,0,1-6.43-2,6.14,6.14,0,0,1-3.64-5.71,6.41,6.41,0,0,1,.76-3.08,6.83,6.83,0,0,1,2.07-2.36,8.7,8.7,0,0,1,2.68-1.23,12.76,12.76,0,0,1,3.64-.5,14.41,14.41,0,0,1,5.14.84,7,7,0,0,1,3.27,2.29,8.93,8.93,0,0,1,1.45,3.86l-4.12.56a4.51,4.51,0,0,0-1.63-3,6,6,0,0,0-3.81-1.08,6.9,6.9,0,0,0-4.15,1,2.8,2.8,0,0,0-1.24,2.25,2.33,2.33,0,0,0,.52,1.48,3.72,3.72,0,0,0,1.62,1.13q.63.23,3.73,1.08a51.88,51.88,0,0,1,6.25,2,6.34,6.34,0,0,1,2.78,2.21,6.18,6.18,0,0,1,1,3.61,7.08,7.08,0,0,1-1.23,4,8,8,0,0,1-3.55,2.88,12.92,12.92,0,0,1-5.25,1q-4.85,0-7.39-2A9.37,9.37,0,0,1,486.14,453.55Z"/></g></g></g></g></g></g></svg>