<svg xmlns="http://www.w3.org/2000/svg" xmlns:xlink="http://www.w3.org/1999/xlink" viewBox="0 0 715 715"><defs><style>.cls-1{fill:url(#linear-gradient);}.cls-10,.cls-12,.cls-2,.cls-4,.cls-6,.cls-8{fill:none;stroke-linejoin:round;stroke-width:0.02px;}.cls-2{stroke:#000;}.cls-3{fill:#fff;}.cls-4{stroke:#fff;}.cls-5{fill:#b0d1f0;}.cls-6{stroke:#b0d1f0;}.cls-7{fill:#4263ba;}.cls-8{stroke:#4263ba;}.cls-9{fill:#039;}.cls-10{stroke:#039;}.cls-11{fill:#def2fc;}.cls-12{stroke:#def2fc;}.cls-13{isolation:isolate;}</style><linearGradient id="linear-gradient" x2="715" y2="715" gradientUnits="userSpaceOnUse"><stop offset="0" stop-color="#fefefe"/><stop offset="1" stop-color="#ededed"/></linearGradient></defs><title>lacp-vision</title><g id="Layer_2" data-name="Layer 2"><g id="Layer_1-2" data-name="Layer 1"><rect class="cls-1" width="715" height="715"/><g id="Page-1"><g id="LACP_Vision_Awards" data-name="LACP Vision Awards"><path id="Fill-1" d="M492,297v80.61h31.36V349.38h29l6.5-.29,5.92-.89,5.32-1.33,4.58-1.92,4.14-2.52,2.81-2.36,2.36-2.81,1.78-3,1.33-3.4.74-3.7.3-4-.3-4-.74-3.7-1.33-3.4L584,309l-2.36-2.66-2.81-2.51-4.14-2.36-4.58-1.92-5.32-1.48-5.92-.74-6.5-.3Zm31.36,17.31h17l3.55.14,3,.3,2.36.74,1.78.74,1.18,1.18,1,1.48.45,1.93.14,2.22-.14,2.22-.59,1.92-.89,1.48L551,329.86l-1.78.74-2.36.74-3,.29-3.55.15h-17Z"/><path id="Stroke-2" class="cls-2" d="M540.36,314.33h-17v17.46h17l3.55-.15,3-.3,2.36-.74,1.78-.74,1.18-1.18.89-1.48.59-1.92.14-2.22-.14-2.22-.44-1.93-1-1.48L551,316.25l-1.78-.74-2.36-.74-3-.3ZM492,377.63V297h60.36l6.51.3,5.92.74,5.32,1.48,4.58,1.92,4.14,2.36,2.82,2.52L584,309l1.78,3.11,1.33,3.4.74,3.7.3,4-.3,4-.74,3.7-1.33,3.4-1.78,3-2.36,2.81-2.82,2.37-4.14,2.51-4.58,1.92-5.32,1.33-5.92.89-6.51.3h-29v28.25Z"/><polygon id="Fill-3" points="450.71 295.1 443.76 295.69 437.4 296.88 431.63 298.36 426.45 300.43 421.72 302.79 417.57 305.61 413.88 308.86 410.77 312.56 408.26 316.7 406.34 321.29 405 326.17 404.11 331.63 403.82 337.4 404.11 343.18 405 348.5 406.34 353.52 408.26 358.11 410.77 362.11 413.88 365.8 417.57 369.06 421.72 372.02 426.45 374.38 431.63 376.3 437.4 377.93 443.76 378.97 450.71 379.56 458.11 379.85 465.8 379.56 472.9 378.82 479.41 377.63 485.48 376.01 490.8 373.94 495.69 371.28 499.83 368.17 503.53 364.62 506.49 360.63 508.85 356.19 510.62 351.31 511.81 345.98 475.72 345.98 474.82 348.94 473.5 351.6 471.87 353.97 469.8 355.74 467.43 357.23 464.62 358.26 461.51 358.85 458.11 359 454.26 358.85 450.86 358.11 447.76 357.08 445.1 355.45 442.73 353.52 440.8 351.01 439.32 348.2 438.29 345.09 437.7 341.4 437.4 337.4 437.7 333.41 438.29 329.71 439.32 326.46 440.8 323.65 442.73 321.13 445.1 319.21 447.76 317.58 450.86 316.4 454.26 315.81 458.11 315.51 461.81 315.81 465.07 316.55 468.02 317.73 470.53 319.51 472.46 321.73 474.09 324.24 475.13 327.35 475.72 330.9 511.51 330.9 510.92 325.27 509.59 320.25 507.52 315.51 504.71 311.23 501.16 307.52 497.02 304.12 491.99 301.32 486.51 299.1 480.3 297.18 473.64 295.99 466.1 295.1 458.11 294.95 450.71 295.1"/><polygon id="Stroke-4" class="cls-2" points="475.71 330.9 475.13 327.35 474.09 324.24 472.46 321.73 470.53 319.51 468.02 317.73 465.07 316.55 461.81 315.81 458.11 315.51 454.27 315.81 450.86 316.4 447.75 317.58 445.09 319.21 442.73 321.13 440.8 323.65 439.32 326.46 438.29 329.71 437.69 333.41 437.4 337.41 437.69 341.4 438.29 345.09 439.32 348.2 440.8 351.01 442.73 353.52 445.09 355.45 447.75 357.08 450.86 358.11 454.27 358.85 458.11 359 461.51 358.85 464.62 358.26 467.43 357.22 469.8 355.74 471.87 353.97 473.5 351.6 474.83 348.94 475.71 345.99 511.81 345.99 510.62 351.31 508.85 356.19 506.49 360.62 503.53 364.62 499.83 368.17 495.69 371.28 490.81 373.94 485.48 376.01 479.41 377.64 472.91 378.82 465.8 379.56 458.11 379.85 450.71 379.56 443.76 378.97 437.4 377.93 431.63 376.31 426.45 374.38 421.72 372.02 417.57 369.06 413.88 365.8 410.77 362.1 408.26 358.11 406.33 353.52 405 348.5 404.11 343.17 403.82 337.41 404.11 331.63 405 326.16 406.33 321.28 408.26 316.7 410.77 312.56 413.88 308.86 417.57 305.61 421.72 302.79 426.45 300.43 431.63 298.36 437.4 296.88 443.76 295.69 450.71 295.1 458.11 294.95 466.1 295.1 473.64 295.99 480.3 297.17 486.52 299.09 491.99 301.32 497.02 304.13 501.16 307.52 504.71 311.22 507.52 315.51 509.59 320.25 510.93 325.27 511.52 330.9 475.71 330.9"/><path id="Fill-5" d="M492,346h19.82l-1.19,5.32-1.77,4.88-2.36,4.43-3,4-3.71,3.55-4.14,3.11-1.78,1-1.92,1Zm0-44.67,2.51,1.33,2.52,1.48,4.14,3.4,3.55,3.7,2.81,4.29,2.07,4.73,1.33,5,.59,5.62H492Z"/><path id="Stroke-6" class="cls-2" d="M492,346h19.82l-1.19,5.32-1.77,4.88-2.36,4.43-3,4-3.71,3.55-4.14,3.11-1.78,1-1.92,1Zm0-44.67,2.51,1.33,2.52,1.48,4.14,3.4,3.55,3.7,2.81,4.29,2.07,4.73,1.33,5,.59,5.62H492Z"/><path id="Fill-7" d="M367.58,349.83h20l-9.61-28.25Zm-43.79,27.81L358.85,297h39.64L431,377.64H397.16l-2.66-7.84H360.18l-2.81,7.84Z"/><path id="Stroke-8" class="cls-2" d="M367.58,349.83h20l-9.61-28.25Zm-43.79,27.81L358.85,297h39.64L431,377.64H397.16l-2.66-7.84H360.18l-2.81,7.84Z"/><polygon id="Fill-9" points="430.44 375.86 425.56 374.08 421.27 371.72 417.57 369.06 413.88 365.8 410.77 362.1 408.26 358.11 406.33 353.52 405 348.5 404.11 343.17 403.82 337.41 403.97 332.23 404.71 327.5 405.74 322.91 407.22 318.77 430.44 375.86"/><polygon id="Stroke-10" class="cls-2" points="430.44 375.86 425.56 374.08 421.27 371.72 417.57 369.06 413.88 365.8 410.77 362.1 408.26 358.11 406.33 353.52 405 348.5 404.11 343.17 403.82 337.41 403.97 332.23 404.71 327.5 405.74 322.91 407.22 318.77 430.44 375.86"/><polygon id="Fill-11" points="268.01 377.63 268.01 297.03 299.23 297.03 299.23 355.6 348.49 355.6 348.49 377.63 268.01 377.63"/><polygon id="Stroke-12" class="cls-2" points="268.01 377.63 268.01 297.03 299.23 297.03 299.23 355.6 348.49 355.6 348.49 377.63 268.01 377.63"/><polygon id="Fill-13" points="333.4 355.6 348.49 355.6 348.49 377.63 323.79 377.63 333.4 355.6"/><polygon id="Stroke-14" class="cls-2" points="333.4 355.6 348.49 355.6 348.49 377.63 323.79 377.63 333.4 355.6"/><polygon id="Fill-15" class="cls-3" points="333.4 355.6 348.49 355.6 348.49 377.63 323.79 377.63 333.4 355.6"/><polygon id="Stroke-16" class="cls-4" points="333.4 355.6 348.49 355.6 348.49 377.63 323.79 377.63 333.4 355.6"/><polygon id="Fill-17" class="cls-3" points="333.4 355.6 348.49 355.6 348.49 377.63 323.79 377.63 333.4 355.6"/><polygon id="Stroke-18" class="cls-4" points="333.4 355.6 348.49 355.6 348.49 377.63 323.79 377.63 333.4 355.6"/><polygon id="Fill-19" class="cls-3" points="333.4 355.6 348.49 355.6 348.49 377.63 323.79 377.63 333.4 355.6"/><polygon id="Stroke-20" class="cls-4" points="333.4 355.6 348.49 355.6 348.49 377.63 323.79 377.63 333.4 355.6"/><polygon id="Fill-21" class="cls-3" points="333.4 355.6 348.49 355.6 348.49 377.63 323.79 377.63 333.4 355.6"/><polygon id="Stroke-22" class="cls-4" points="333.4 355.6 348.49 355.6 348.49 377.63 323.79 377.63 333.4 355.6"/><polygon id="Fill-23" class="cls-3" points="430.44 375.86 425.56 374.08 421.27 371.72 417.57 369.06 413.88 365.8 410.77 362.1 408.26 357.96 406.33 353.52 405 348.5 404.11 343.17 403.82 337.41 403.97 332.23 404.71 327.5 405.74 322.91 407.22 318.77 430.44 375.86"/><polygon id="Stroke-24" class="cls-4" points="430.44 375.86 425.56 374.08 421.27 371.72 417.57 369.06 413.88 365.8 410.77 362.1 408.26 357.96 406.33 353.52 405 348.5 404.11 343.17 403.82 337.41 403.97 332.23 404.71 327.5 405.74 322.91 407.22 318.77 430.44 375.86"/><path id="Fill-25" class="cls-3" d="M430.45,375.86l-.89-.3-.74-.3h-.15l-2.36-1-2.37-1h-.15v-.15h-.15l-.14-.15h-.15l-.14-.15h-.15l-.15-.15h-.15l-.14-.15h-.15l-.15-.15h-.14v-.15H422l-.15-.15h-.15l-.15-.15-.15-.15h-.15l-.14-.15-.3-.15h-.15v-.15h-.14l-.15-.15h-.14V371h-.15l-.15-.15-.14-.15h-.15l-.15-.15-.15-.15h-.14l-.14-.15-.15-.15h-.14l-.15-.15-.14-.15h-.15v-.15h-.14l-.15-.15h-.14v-.15h-.15l-.15-.15v-.14l-3.69-3.25-3.11-3.7L408.26,358l-1.92-4.44-1.33-5-.89-5.32-.29-5.77v-1.63l.15-1.63v-1.92l.14-.3v-1.19l.15-.3v-.59l.14-.3v-.89l.15-.29v-.59l.15-.3v-.45l.14-.15v-.59l.15-.15v-.44l.14-.15V325l.15-.15v-.44l.14-.15v-.29l.15-.3v-.3l.15-.15v-.3l.14-.15v-.3l.15-.15v-.44l.15-.15v-.3h.15V321h.14v-.3l.15-.15v-.15l.15-.15v-.3l.15-.15v-.3l.15-.14v-.15l.15-.15v-.3Zm-6.95-3h-.15l-.14-.15Zm-1-.44-.15-.15h-.14Z"/><path id="Stroke-26" class="cls-4" d="M430.45,375.86l-.89-.3-.74-.3h-.15l-2.36-1-2.37-1h-.15v-.15h-.15l-.14-.15h-.15l-.14-.15h-.15l-.15-.15h-.15l-.14-.15h-.15l-.15-.15h-.14v-.15H422l-.15-.15h-.15l-.15-.15-.15-.15h-.15l-.14-.15-.3-.15h-.15v-.15h-.14l-.15-.15h-.14V371h-.15l-.15-.15-.14-.15h-.15l-.15-.15-.15-.15h-.14l-.14-.15-.15-.15h-.14l-.15-.15-.14-.15h-.15v-.15h-.14l-.15-.15h-.14v-.15h-.15l-.15-.15v-.14l-3.69-3.25-3.11-3.7L408.26,358l-1.92-4.44-1.33-5-.89-5.32-.29-5.77v-1.63l.15-1.63v-1.92l.14-.3v-1.19l.15-.3v-.59l.14-.3v-.89l.15-.29v-.59l.15-.3v-.45l.14-.15v-.59l.15-.15v-.44l.14-.15V325l.15-.15v-.44l.14-.15v-.29l.15-.3v-.3l.15-.15v-.3l.14-.15v-.3l.15-.15v-.44l.15-.15v-.3h.15V321h.14v-.3l.15-.15v-.15l.15-.15v-.3l.15-.15v-.3l.15-.14v-.15l.15-.15v-.3Zm-6.95-3h-.15l-.14-.15Zm-1-.44-.15-.15h-.14Z"/><polygon id="Fill-27" class="cls-3" points="430.44 375.86 425.56 374.08 421.27 371.72 417.57 369.06 413.88 365.8 410.77 362.1 408.26 357.96 406.33 353.52 405 348.5 404.11 343.17 403.82 337.41 403.97 332.23 404.71 327.5 405.74 322.91 407.22 318.77 430.44 375.86"/><polygon id="Stroke-28" class="cls-4" points="430.44 375.86 425.56 374.08 421.27 371.72 417.57 369.06 413.88 365.8 410.77 362.1 408.26 357.96 406.33 353.52 405 348.5 404.11 343.17 403.82 337.41 403.97 332.23 404.71 327.5 405.74 322.91 407.22 318.77 430.44 375.86"/><polygon id="Fill-29" class="cls-3" points="430.44 375.86 425.56 374.08 421.27 371.72 417.57 369.06 413.88 365.8 410.77 362.1 408.26 357.96 406.33 353.52 405 348.5 404.11 343.17 403.82 337.41 403.82 334.89 403.97 332.52 403.97 332.38 403.97 332.23 404.11 332.08 404.11 331.93 404.11 331.79 404.11 331.63 404.11 331.49 404.11 331.34 404.11 331.19 404.11 331.04 404.11 330.9 404.26 330.75 404.26 330.6 404.26 330.45 404.26 330.31 404.26 330.16 404.26 330.01 404.26 329.86 404.26 329.71 404.41 329.56 404.41 329.42 404.41 329.27 404.41 329.12 404.41 328.97 404.41 328.82 404.41 328.68 404.56 328.53 404.56 328.38 404.56 328.24 404.56 328.09 404.56 327.94 404.56 327.79 404.71 327.64 404.71 327.5 405.74 322.91 407.22 318.77 430.44 375.86"/><polygon id="Stroke-30" class="cls-4" points="430.44 375.86 425.56 374.08 421.27 371.72 417.57 369.06 413.88 365.8 410.77 362.1 408.26 357.96 406.33 353.52 405 348.5 404.11 343.17 403.82 337.41 403.82 334.89 403.97 332.52 403.97 332.38 403.97 332.23 404.11 332.08 404.11 331.93 404.11 331.79 404.11 331.63 404.11 331.49 404.11 331.34 404.11 331.19 404.11 331.04 404.11 330.9 404.26 330.75 404.26 330.6 404.26 330.45 404.26 330.31 404.26 330.16 404.26 330.01 404.26 329.86 404.26 329.71 404.41 329.56 404.41 329.42 404.41 329.27 404.41 329.12 404.41 328.97 404.41 328.82 404.41 328.68 404.56 328.53 404.56 328.38 404.56 328.24 404.56 328.09 404.56 327.94 404.56 327.79 404.71 327.64 404.71 327.5 405.74 322.91 407.22 318.77 430.44 375.86"/><path id="Fill-31" class="cls-3" d="M492,346h19.82l-1.19,5.32-1.77,4.88-2.36,4.43-3,4-3.71,3.55-4.14,3.11-1.78,1-1.92,1Zm0-44.67,2.51,1.33,2.52,1.48,4.14,3.4,3.55,3.7,2.81,4.29,2.07,4.73,1.33,5,.59,5.62H492Z"/><path id="Stroke-32" class="cls-4" d="M492,346h19.82l-1.19,5.32-1.77,4.88-2.36,4.43-3,4-3.71,3.55-4.14,3.11-1.78,1-1.92,1Zm0-44.67,2.51,1.33,2.52,1.48,4.14,3.4,3.55,3.7,2.81,4.29,2.07,4.73,1.33,5,.59,5.62H492Z"/><path id="Fill-33" class="cls-3" d="M492,346h19.82l-1.19,5.32-1.77,4.88-2.36,4.43-3,4-3.71,3.55-4.14,3.11-1.78,1-1.92,1Zm0-44.67,2.51,1.33,2.52,1.48,4.14,3.4,3.55,3.7,2.81,4.29,2.07,4.73,1.33,5,.59,5.62H492Z"/><path id="Stroke-34" class="cls-4" d="M492,346h19.82l-1.19,5.32-1.77,4.88-2.36,4.43-3,4-3.71,3.55-4.14,3.11-1.78,1-1.92,1Zm0-44.67,2.51,1.33,2.52,1.48,4.14,3.4,3.55,3.7,2.81,4.29,2.07,4.73,1.33,5,.59,5.62H492Z"/><path id="Fill-35" class="cls-3" d="M492,346h19.82l-.15.3v.44l-.14.3v.74l-.15.3v.15l-.14.29v.59l-.15.15v.59l-.14.15v.3l-.15.3V351l-.15.15v.3l-.14.3v.15l-.15.3v.3l-.14.15v.29l-.15.15v.3l-.15.15v.3l-.15.14-.14.3v.3l-.15.15v.3l-.15.15-.14.3v.15l-.15.3V356l-.15.3-.15.15v.3l-.14.15-.15.15-.15.29v.15l-.14.3L508,358v.3l-.14.14-.15.15-.14.3V359l-.15.3-.14.15-.15.15-.15.3V360l-.14.3-.15.15-.15.15-.15.3-.14.15-.15.15v.15l-.15.3-.14.14-.15.15-.14.3-.15.15-.14.15-.15.3-.14.15-.15.15-.15.15-.15.3-.15.15-.15.15L504,364l-.14.15-.15.3-.14.15-.15.15-.15.15-.15.15-.15.3-.14.15-.15.15-.14.15-.15.15-.3.15-.15.15-.15.29-.15.15-.14.15-.15.15-.14.15-.3.15-.15.15-.15.15-.14.15-.15.15-.3.15-.15.15-.14.3-.15.15-.3.15-.14.15-.15.15-.29.15-.15.15-.15.15-.3.15-.15.15-.14.15-.3.15h-.15l-.15.15-.3.15-.14.15-.15.15-.3.14-.15.15-.3.15-.14.15h-.15l-.14.15h-.15v.15l-.14.15h-.3v.15h-.29l-.14.15-.15.15-.15.15h-.15l-.15.15-.3.15h-.14l-.3.15-.15.15-.14.15h-.15l-.15.15h-.3l-.14.15Zm0-44.67.14.15h.3v.15h.15l.3.15.15.15h.14l.15.15h.14l.15.15h.14l.15.15h.15l.15.15h.15l.14.15.29.15.15.15.3.15.45.3.44.3.15.15h.3V304h.15l.3.15,3.11,2.52,3,2.66.15.3.15.15.15.15.14.15.15.15.14.3.15.15.15.15.15.15.15.3.15.15.15.15.14.15.15.3.14.15.15.14.14.3.15.15.14.15.15.3.15.15v.15l.14.3.15.15.15.15.15.3.14.15v.15l.15.3.15.15.14.3.15.15v.15l.14.3.15.15.14.3v.15l.15.29.14.15v.3l.15.15.15.15v.3l.14.15.15.3v.15l.15.3.15.15v.3l.14.3v.15l.15.3v.15l.15.3.14.15v.3l.15.15v.29l.15.3V322l.15.15v.3l.14.3v.15l.15.3v.44l.14.3v.15l.15.3v.44l.15.3v.74l.14.3v.44l.15.3v1l.14.3v1l.15.3v1.33H492Z"/><path id="Stroke-36" class="cls-4" d="M492,346h19.82l-.15.3v.44l-.14.3v.74l-.15.3v.15l-.14.29v.59l-.15.15v.59l-.14.15v.3l-.15.3V351l-.15.15v.3l-.14.3v.15l-.15.3v.3l-.14.15v.29l-.15.15v.3l-.15.15v.3l-.15.14-.14.3v.3l-.15.15v.3l-.15.15-.14.3v.15l-.15.3V356l-.15.3-.15.15v.3l-.14.15-.15.15-.15.29v.15l-.14.3L508,358v.3l-.14.14-.15.15-.14.3V359l-.15.3-.14.15-.15.15-.15.3V360l-.14.3-.15.15-.15.15-.15.3-.14.15-.15.15v.15l-.15.3-.14.14-.15.15-.14.3-.15.15-.14.15-.15.3-.14.15-.15.15-.15.15-.15.3-.15.15-.15.15L504,364l-.14.15-.15.3-.14.15-.15.15-.15.15-.15.15-.15.3-.14.15-.15.15-.14.15-.15.15-.3.15-.15.15-.15.29-.15.15-.14.15-.15.15-.14.15-.3.15-.15.15-.15.15-.14.15-.15.15-.3.15-.15.15-.14.3-.15.15-.3.15-.14.15-.15.15-.29.15-.15.15-.15.15-.3.15-.15.15-.14.15-.3.15h-.15l-.15.15-.3.15-.14.15-.15.15-.3.14-.15.15-.3.15-.14.15h-.15l-.14.15h-.15v.15l-.14.15h-.3v.15h-.29l-.14.15-.15.15-.15.15h-.15l-.15.15-.3.15h-.14l-.3.15-.15.15-.14.15h-.15l-.15.15h-.3l-.14.15Zm0-44.67.14.15h.3v.15h.15l.3.15.15.15h.14l.15.15h.14l.15.15h.14l.15.15h.15l.15.15h.15l.14.15.29.15.15.15.3.15.45.3.44.3.15.15h.3V304h.15l.3.15,3.11,2.52,3,2.66.15.3.15.15.15.15.14.15.15.15.14.3.15.15.15.15.15.15.15.3.15.15.15.15.14.15.15.3.14.15.15.14.14.3.15.15.14.15.15.3.15.15v.15l.14.3.15.15.15.15.15.3.14.15v.15l.15.3.15.15.14.3.15.15v.15l.14.3.15.15.14.3v.15l.15.29.14.15v.3l.15.15.15.15v.3l.14.15.15.3v.15l.15.3.15.15v.3l.14.3v.15l.15.3v.15l.15.3.14.15v.3l.15.15v.29l.15.3V322l.15.15v.3l.14.3v.15l.15.3v.44l.14.3v.15l.15.3v.44l.15.3v.74l.14.3v.44l.15.3v1l.14.3v1l.15.3v1.33H492Z"/><path id="Fill-37" class="cls-3" d="M492,346h19.82l-.15.3v.44l-.14.3v.74l-.15.3v.15l-.14.29v.59l-.15.15v.59l-.14.15v.3l-.15.3V351l-.15.15v.3l-.14.3v.15l-.15.3v.3l-.14.15v.29l-.15.15v.3l-.15.15v.3l-.15.14-.14.3v.3l-.15.15v.3l-.15.15-.14.3v.15l-.15.3V356l-.15.3-.15.15v.3l-.14.15-.15.15-.15.29v.15l-.14.3L508,358v.3l-.14.14-.15.15-.14.3V359l-.15.3-.14.15-.15.15-.15.3V360l-.14.3-.15.15-.15.15-.15.3-.14.15-.15.15v.15l-.15.3-.14.14-.15.15-.14.3-.15.15-.14.15-.15.3-.14.15-.15.15-.15.15-.15.3-.15.15-.15.15L504,364l-.14.15-.15.3-.14.15-.15.15-.15.15-.15.15-.15.3-.14.15-.15.15-.14.15-.15.15-.3.15-.15.15-.15.29-.15.15-.14.15-.15.15-.14.15-.3.15-.15.15-.15.15-.14.15-.15.15-.3.15-.15.15-.14.3-.15.15-.3.15-.14.15-.15.15-.29.15-.15.15-.15.15-.3.15-.15.15-.14.15-.3.15h-.15l-.15.15-.3.15-.14.15-.15.15-.3.14-.15.15-.3.15-.14.15h-.15v.15h-.14l-.15.15h-.14l-1.48.89-1.63.89Zm0-44.67,2.51,1.33,2.52,1.48,3.11,2.52,3,2.66.15.3.15.15.15.15.14.15.15.15.14.3.15.15.15.15.15.15.15.3.15.15.15.15.14.15.15.3.14.15.15.14.14.3.15.15.14.15.15.3.15.15v.15l.14.3.15.15.15.15.15.3.14.15v.15l.15.3.15.15.14.3.15.15v.15l.14.3.15.15.14.3v.15l.15.29.14.15v.3l.15.15.15.15v.3l.14.15.15.3v.15l.15.3.15.15v.3l.14.3v.15l.15.3v.15l.15.3.14.15v.3l.15.15v.29l.15.3V322l.15.15v.3l.14.3v.15l.15.3v.44l.14.3v.15l.15.3v.44l.15.3v.74l.14.3v.44l.15.3v1l.14.3v1l.15.3v1.33H492Z"/><path id="Stroke-38" class="cls-4" d="M492,346h19.82l-.15.3v.44l-.14.3v.74l-.15.3v.15l-.14.29v.59l-.15.15v.59l-.14.15v.3l-.15.3V351l-.15.15v.3l-.14.3v.15l-.15.3v.3l-.14.15v.29l-.15.15v.3l-.15.15v.3l-.15.14-.14.3v.3l-.15.15v.3l-.15.15-.14.3v.15l-.15.3V356l-.15.3-.15.15v.3l-.14.15-.15.15-.15.29v.15l-.14.3L508,358v.3l-.14.14-.15.15-.14.3V359l-.15.3-.14.15-.15.15-.15.3V360l-.14.3-.15.15-.15.15-.15.3-.14.15-.15.15v.15l-.15.3-.14.14-.15.15-.14.3-.15.15-.14.15-.15.3-.14.15-.15.15-.15.15-.15.3-.15.15-.15.15L504,364l-.14.15-.15.3-.14.15-.15.15-.15.15-.15.15-.15.3-.14.15-.15.15-.14.15-.15.15-.3.15-.15.15-.15.29-.15.15-.14.15-.15.15-.14.15-.3.15-.15.15-.15.15-.14.15-.15.15-.3.15-.15.15-.14.3-.15.15-.3.15-.14.15-.15.15-.29.15-.15.15-.15.15-.3.15-.15.15-.14.15-.3.15h-.15l-.15.15-.3.15-.14.15-.15.15-.3.14-.15.15-.3.15-.14.15h-.15v.15h-.14l-.15.15h-.14l-1.48.89-1.63.89Zm0-44.67,2.51,1.33,2.52,1.48,3.11,2.52,3,2.66.15.3.15.15.15.15.14.15.15.15.14.3.15.15.15.15.15.15.15.3.15.15.15.15.14.15.15.3.14.15.15.14.14.3.15.15.14.15.15.3.15.15v.15l.14.3.15.15.15.15.15.3.14.15v.15l.15.3.15.15.14.3.15.15v.15l.14.3.15.15.14.3v.15l.15.29.14.15v.3l.15.15.15.15v.3l.14.15.15.3v.15l.15.3.15.15v.3l.14.3v.15l.15.3v.15l.15.3.14.15v.3l.15.15v.29l.15.3V322l.15.15v.3l.14.3v.15l.15.3v.44l.14.3v.15l.15.3v.44l.15.3v.74l.14.3v.44l.15.3v1l.14.3v1l.15.3v1.33H492Z"/><polygon id="Fill-39" class="cls-5" points="140.05 381.04 251.3 381.04 251.3 293.62 140.05 293.62 140.05 381.04"/><polygon id="Stroke-40" class="cls-6" points="140.05 381.04 251.3 381.04 251.3 293.62 140.05 293.62 140.05 381.04"/><polygon id="Fill-42" class="cls-7" points="195.53 377.04 221.12 370.09 232.21 350.13 235.62 339.03 230.14 314.78 219.34 302.65 195.53 297.62 195.53 377.04"/><polygon id="Stroke-43" class="cls-8" points="195.53 377.04 221.12 370.09 232.21 350.13 235.62 339.03 230.14 314.78 219.34 302.65 195.53 297.62 195.53 377.04"/><polygon id="Fill-44" class="cls-9" points="170.08 316.4 171.71 316.11 173.48 314.62 176.45 314.62 178.66 313 182.81 312.85 183.54 313.74 186.5 313.3 189.46 315.07 186.65 316.55 181.03 314.62 180.88 315.51 182.95 316.55 182.81 317.59 183.99 318.62 181.18 320.1 181.77 323.8 186.21 325.42 188.28 324.98 186.5 320.84 188.13 319.51 191.53 318.91 194.78 317.59 195.53 319.21 197.45 323.8 193.6 324.09 191.38 326.02 192.42 328.38 188.72 329.42 186.5 330.75 188.28 333.56 188.57 337.25 186.35 339.18 188.43 342.73 187.39 342.88 184.43 339.62 177.63 337.99 174.96 341.99 177.03 343.76 179.7 343.03 180.73 341.84 181.77 342.88 182.06 346.43 186.35 348.65 187.24 346.72 191.38 344.65 198.78 345.83 203.81 350.86 207.51 351.9 205.59 353.82 202.63 355.6 201.88 358.71 201.44 358.71 199.22 361.37 198.05 363.59 197.01 364.32 195.97 365.95 193.75 367.43 192.12 368.91 191.09 368.76 190.94 366.1 190.05 363 190.2 361.81 189.31 361.66 190.79 357.81 190.64 356.19 188.28 356.04 186.06 354.56 186.21 353.67 184.14 352.2 184.28 350.71 185.76 350.13 182.81 347.46 176.45 345.39 173.34 344.5 172.15 341.55 169.64 338.59 167.71 337.85 170.38 341.55 170.23 342.14 168.9 341.11 167.12 337.99 166.38 335.93 164.75 334.15 165.35 332.97 165.65 331.94 167.27 329.86 166.24 326.9 165.65 323.8 166.83 320.1 169.05 317.59 170.08 316.4"/><polygon id="Stroke-45" class="cls-10" points="170.08 316.4 171.71 316.11 173.48 314.62 176.45 314.62 178.66 313 182.81 312.85 183.54 313.74 186.5 313.3 189.46 315.07 186.65 316.55 181.03 314.62 180.88 315.51 182.95 316.55 182.81 317.59 183.99 318.62 181.18 320.1 181.77 323.8 186.21 325.42 188.28 324.98 186.5 320.84 188.13 319.51 191.53 318.91 194.78 317.59 195.53 319.21 197.45 323.8 193.6 324.09 191.38 326.02 192.42 328.38 188.72 329.42 186.5 330.75 188.28 333.56 188.57 337.25 186.35 339.18 188.43 342.73 187.39 342.88 184.43 339.62 177.63 337.99 174.96 341.99 177.03 343.76 179.7 343.03 180.73 341.84 181.77 342.88 182.06 346.43 186.35 348.65 187.24 346.72 191.38 344.65 198.78 345.83 203.81 350.86 207.51 351.9 205.59 353.82 202.63 355.6 201.88 358.71 201.44 358.71 199.22 361.37 198.05 363.59 197.01 364.32 195.97 365.95 193.75 367.43 192.12 368.91 191.09 368.76 190.94 366.1 190.05 363 190.2 361.81 189.31 361.66 190.79 357.81 190.64 356.19 188.28 356.04 186.06 354.56 186.21 353.67 184.14 352.2 184.28 350.71 185.76 350.13 182.81 347.46 176.45 345.39 173.34 344.5 172.15 341.55 169.64 338.59 167.71 337.85 170.38 341.55 170.23 342.14 168.9 341.11 167.12 337.99 166.38 335.93 164.75 334.15 165.35 332.97 165.65 331.94 167.27 329.86 166.24 326.9 165.65 323.8 166.83 320.1 169.05 317.59 170.08 316.4"/><polygon id="Fill-46" class="cls-9" points="221.27 318.91 217.57 318.03 215.35 320.69 216.38 322.32 215.05 324.54 212.98 327.05 212.24 332.08 215.21 334.59 220.08 336.37 222.6 335.63 224.67 339.03 224.23 345.84 222.45 352.79 226 350.57 226.15 350.27 226.3 350.13 226.3 349.98 226.44 349.83 226.44 349.53 226.59 349.38 226.74 349.09 226.89 348.79 226.89 348.64 227.04 348.35 227.04 348.06 227.19 347.91 227.33 347.61 227.33 347.32 227.48 347.02 227.48 346.72 227.63 346.43 227.63 345.98 227.77 345.84 227.77 345.54 227.93 345.09 227.93 344.8 228.07 344.5 228.22 344.21 228.22 343.76 228.22 343.62 228.37 343.18 228.37 342.88 228.52 342.58 228.52 342.14 228.52 341.84 228.66 341.55 228.66 341.1 228.66 340.66 228.66 340.21 228.81 339.92 228.81 339.47 228.81 339.18 228.81 338.74 228.81 338.29 228.81 337.85 228.81 337.55 228.81 337.11 228.81 336.81 228.81 336.37 228.81 336.07 228.81 335.63 228.81 335.33 228.66 334.89 228.66 334.59 228.66 334.3 228.66 334 228.52 333.56 228.52 333.26 228.52 332.97 228.52 332.67 228.37 332.38 228.37 332.08 228.22 331.79 228.22 331.34 228.22 331.04 228.22 330.75 228.07 330.6 228.07 330.3 228.07 330.01 227.93 329.71 227.93 329.56 227.77 329.27 227.77 328.97 227.77 328.83 227.63 328.53 227.63 328.38 227.48 328.24 227.48 327.94 227.48 327.79 227.48 327.64 227.33 327.2 227.19 326.9 227.19 326.61 227.04 326.31 226.89 326.16 226.89 326.01 226.89 325.72 223.64 320.1 221.27 318.91"/><polygon id="Stroke-47" class="cls-10" points="221.27 318.91 217.57 318.03 215.35 320.69 216.38 322.32 215.05 324.54 212.98 327.05 212.24 332.08 215.21 334.59 220.08 336.37 222.6 335.63 224.67 339.03 224.23 345.84 222.45 352.79 226 350.57 226.15 350.27 226.3 350.13 226.3 349.98 226.44 349.83 226.44 349.53 226.59 349.38 226.74 349.09 226.89 348.79 226.89 348.64 227.04 348.35 227.04 348.06 227.19 347.91 227.33 347.61 227.33 347.32 227.48 347.02 227.48 346.72 227.63 346.43 227.63 345.98 227.77 345.84 227.77 345.54 227.93 345.09 227.93 344.8 228.07 344.5 228.22 344.21 228.22 343.76 228.22 343.62 228.37 343.18 228.37 342.88 228.52 342.58 228.52 342.14 228.52 341.84 228.66 341.55 228.66 341.1 228.66 340.66 228.66 340.21 228.81 339.92 228.81 339.47 228.81 339.18 228.81 338.74 228.81 338.29 228.81 337.85 228.81 337.55 228.81 337.11 228.81 336.81 228.81 336.37 228.81 336.07 228.81 335.63 228.81 335.33 228.66 334.89 228.66 334.59 228.66 334.3 228.66 334 228.52 333.56 228.52 333.26 228.52 332.97 228.52 332.67 228.37 332.38 228.37 332.08 228.22 331.79 228.22 331.34 228.22 331.04 228.22 330.75 228.07 330.6 228.07 330.3 228.07 330.01 227.93 329.71 227.93 329.56 227.77 329.27 227.77 328.97 227.77 328.83 227.63 328.53 227.63 328.38 227.48 328.24 227.48 327.94 227.48 327.79 227.48 327.64 227.33 327.2 227.19 326.9 227.19 326.61 227.04 326.31 226.89 326.16 226.89 326.01 226.89 325.72 223.64 320.1 221.27 318.91"/><polygon id="Fill-48" class="cls-5" points="195.53 345.39 198.93 345.84 203.81 350.72 207.5 352.05 205.29 354.12 202.78 355.6 202.04 358.7 201.3 358.85 199.07 361.36 198.04 363.58 195.97 365.95 195.53 366.39 195.53 345.39"/><polygon id="Stroke-49" class="cls-6" points="195.53 345.39 198.93 345.84 203.81 350.72 207.5 352.05 205.29 354.12 202.78 355.6 202.04 358.7 201.3 358.85 199.07 361.36 198.04 363.58 195.97 365.95 195.53 366.39 195.53 345.39"/><polygon id="Fill-50" class="cls-5" points="195.53 323.94 197.45 323.8 197.01 321.14 195.53 319.07 195.53 323.94"/><polygon id="Stroke-51" class="cls-6" points="195.53 319.06 195.53 323.94 197.45 323.8 197.01 321.14 195.53 319.06"/><polygon id="Fill-52" class="cls-5" points="195.38 304.27 196.27 304.27 197.15 304.27 197.9 304.42 198.78 304.42 199.52 304.57 200.41 304.57 201.14 304.72 202.04 304.87 202.78 305.01 203.66 305.31 204.4 305.46 205.14 305.75 205.88 305.9 206.62 306.2 207.37 306.64 208.1 306.79 208.84 307.08 209.58 307.52 210.32 307.82 211.06 308.27 211.8 308.56 212.39 309.01 212.98 309.45 213.72 309.89 214.46 310.33 215.05 310.78 215.64 311.22 216.38 311.81 216.83 312.26 217.57 312.85 218.16 313.44 218.75 313.88 219.19 314.48 219.79 315.07 220.23 315.66 220.82 316.25 221.27 316.85 221.71 317.58 222.15 318.18 222.75 318.92 223.04 319.51 223.48 320.1 223.93 320.84 224.37 321.58 224.67 322.17 225.11 322.91 225.41 323.65 225.7 324.39 226 325.13 226.3 326.02 226.59 326.61 226.89 327.49 227.04 328.23 227.33 328.97 227.48 329.86 227.63 330.6 227.78 331.49 227.93 332.23 228.07 332.97 228.22 333.86 228.22 334.74 228.22 335.63 228.37 336.52 228.37 337.26 228.37 338.14 228.22 339.03 228.22 339.77 228.22 340.66 228.07 341.4 227.93 342.28 227.78 343.17 227.63 343.91 227.48 344.8 227.33 345.54 227.04 346.28 226.89 347.17 226.59 347.91 226.3 348.64 226 349.38 225.7 350.13 225.41 350.87 225.11 351.6 224.67 352.34 224.37 352.94 223.93 353.67 223.48 354.42 223.04 355.01 222.75 355.74 222.15 356.49 221.71 357.08 221.27 357.67 220.82 358.26 220.23 358.85 219.79 359.44 219.19 360.03 218.75 360.62 218.16 361.22 217.57 361.66 216.83 362.25 216.38 362.85 215.64 363.29 215.05 363.73 214.46 364.17 213.72 364.76 212.98 365.06 212.39 365.51 211.8 365.8 211.06 366.25 210.32 366.69 209.58 367.14 208.84 367.43 208.1 367.73 207.37 368.02 206.62 368.32 205.88 368.61 205.14 368.76 204.4 369.06 203.66 369.35 202.78 369.5 202.04 369.65 201.14 369.65 200.41 369.94 199.52 369.94 198.78 370.09 197.9 370.24 197.15 370.24 196.27 370.24 195.38 370.39 195.38 378.97 224.82 369.2 236.66 341.1 232.21 318.02 220.08 302.06 195.38 295.25 195.38 304.27"/><polygon id="Stroke-53" class="cls-6" points="195.38 370.39 195.38 378.97 224.82 369.2 236.65 341.1 232.21 318.03 220.08 302.05 195.38 295.25 195.38 304.27 196.27 304.27 197.15 304.27 197.89 304.42 198.78 304.42 199.52 304.57 200.41 304.57 201.15 304.72 202.04 304.87 202.78 305.01 203.66 305.31 204.4 305.46 205.14 305.75 205.88 305.9 206.62 306.19 207.36 306.64 208.1 306.79 208.84 307.08 209.58 307.52 210.32 307.82 211.06 308.27 211.8 308.56 212.39 309.01 212.98 309.45 213.72 309.89 214.46 310.33 215.05 310.78 215.64 311.22 216.38 311.81 216.83 312.26 217.57 312.85 218.16 313.44 218.75 313.89 219.19 314.48 219.79 315.07 220.23 315.66 220.82 316.25 221.27 316.85 221.71 317.59 222.15 318.18 222.75 318.91 223.04 319.51 223.48 320.1 223.93 320.84 224.37 321.58 224.67 322.17 225.11 322.91 225.41 323.65 225.71 324.39 226 325.13 226.3 326.02 226.59 326.61 226.89 327.5 227.04 328.23 227.33 328.97 227.48 329.86 227.63 330.6 227.77 331.49 227.92 332.23 228.07 332.97 228.22 333.85 228.22 334.74 228.22 335.63 228.37 336.52 228.37 337.25 228.37 338.14 228.22 339.03 228.22 339.77 228.22 340.66 228.07 341.4 227.92 342.28 227.77 343.17 227.63 343.91 227.48 344.8 227.33 345.54 227.04 346.28 226.89 347.17 226.59 347.91 226.3 348.65 226 349.38 225.71 350.12 225.41 350.86 225.11 351.61 224.67 352.34 224.37 352.94 223.93 353.67 223.48 354.42 223.04 355 222.75 355.74 222.15 356.49 221.71 357.08 221.27 357.67 220.82 358.26 220.23 358.85 219.79 359.44 219.19 360.03 218.75 360.62 218.16 361.22 217.57 361.66 216.83 362.25 216.38 362.85 215.64 363.29 215.05 363.73 214.46 364.17 213.72 364.76 212.98 365.06 212.39 365.51 211.8 365.8 211.06 366.25 210.32 366.69 209.58 367.14 208.84 367.43 208.1 367.73 207.36 368.02 206.62 368.31 205.88 368.61 205.14 368.76 204.4 369.05 203.66 369.35 202.78 369.5 202.04 369.65 201.15 369.65 200.41 369.94 199.52 369.94 198.78 370.09 197.89 370.24 197.15 370.24 196.27 370.24 195.38 370.39"/><polygon id="Fill-54" class="cls-11" points="195.68 293.62 195.68 293.77 195.68 293.92 195.68 294.21 195.68 294.51 195.68 294.81 195.68 295.1 195.68 295.4 195.68 295.55 195.68 295.99 195.68 296.14 195.68 296.28 195.68 296.58 195.68 296.73 195.68 297.03 195.68 297.32 195.68 297.62 195.68 297.91 195.68 298.21 195.68 298.5 195.68 298.65 195.68 298.95 195.68 299.24 195.68 299.39 196.71 299.39 197.6 299.39 198.48 299.54 199.52 299.69 200.41 299.69 201.44 299.83 202.33 299.98 203.37 300.13 204.11 300.28 205.14 300.57 205.88 300.72 206.92 301.02 207.81 301.32 208.69 301.61 209.58 302.06 210.32 302.35 211.21 302.65 212.09 303.09 212.83 303.53 213.72 303.98 214.46 304.42 215.21 304.87 216.09 305.31 216.83 305.9 217.57 306.34 218.31 306.78 218.9 307.38 219.79 307.97 220.38 308.56 221.12 309.15 221.71 309.89 222.45 310.49 223.04 311.08 223.64 311.82 224.23 312.41 224.82 313.15 225.41 313.88 226 314.62 226.44 315.37 227.04 316.11 227.48 316.84 228.07 317.58 228.51 318.32 228.96 319.21 229.41 319.95 229.7 320.84 230.14 321.72 230.59 322.47 230.88 323.35 231.18 324.24 231.47 325.13 231.77 326.02 232.07 326.9 232.36 327.79 232.51 328.68 232.81 329.71 232.95 330.6 233.1 331.49 233.25 332.38 233.4 333.41 233.4 334.45 233.54 335.33 233.54 336.37 233.54 337.26 233.54 338.29 233.54 339.33 233.4 340.21 233.4 341.25 233.25 342.14 233.1 343.03 232.95 343.91 232.81 344.95 232.51 345.83 232.36 346.72 232.07 347.61 231.77 348.5 231.47 349.38 231.18 350.27 230.88 351.16 230.59 352.05 230.14 352.94 229.7 353.68 229.41 354.42 228.96 355.3 228.51 356.19 228.07 356.93 227.48 357.67 227.04 358.56 226.44 359.15 226 359.88 225.41 360.62 224.82 361.37 224.23 362.11 223.64 362.84 223.04 363.44 222.45 364.18 221.71 364.77 221.12 365.36 220.38 365.95 219.79 366.54 218.9 367.13 218.31 367.58 217.57 368.17 216.83 368.76 216.09 369.2 215.21 369.65 214.46 370.09 213.72 370.54 212.83 370.98 212.09 371.43 211.21 371.72 210.32 372.16 209.58 372.46 208.69 372.9 207.81 373.2 206.92 373.49 205.88 373.79 205.14 373.94 204.11 374.24 203.37 374.38 202.33 374.53 201.44 374.68 200.41 374.83 199.52 374.97 198.48 375.12 197.6 375.12 196.71 375.12 195.68 375.27 195.53 375.27 195.53 375.56 195.53 375.86 195.53 376.16 195.53 376.6 195.53 376.89 195.53 377.19 195.53 377.34 195.53 377.63 195.53 377.93 195.53 378.23 195.53 378.38 195.53 378.52 195.53 381.04 251.59 380.89 218.31 374.09 251.15 370.54 227.93 364.03 251.44 359.29 234.58 352.64 251.3 347.76 238.43 341.69 251.15 336.52 239.17 330.6 251.3 326.31 235.47 320.39 251.15 315.51 231.77 310.19 251.15 304.71 222.45 299.24 251.44 293.62 195.68 293.62"/><polygon id="Stroke-55" class="cls-12" points="195.68 293.62 251.44 293.62 222.45 299.24 251.15 304.72 231.77 310.19 251.15 315.51 235.47 320.39 251.3 326.31 239.17 330.6 251.15 336.52 238.43 341.69 251.3 347.76 234.58 352.64 251.44 359.29 227.92 364.03 251.15 370.54 218.31 374.09 251.6 380.89 195.53 381.04 195.53 378.52 195.53 378.38 195.53 378.23 195.53 377.93 195.53 377.63 195.53 377.34 195.53 377.19 195.53 376.9 195.53 376.6 195.53 376.16 195.53 375.86 195.53 375.56 195.53 375.27 195.68 375.27 196.71 375.12 197.6 375.12 198.48 375.12 199.52 374.97 200.41 374.82 201.44 374.68 202.33 374.53 203.37 374.38 204.11 374.23 205.14 373.94 205.88 373.79 206.92 373.49 207.81 373.2 208.69 372.9 209.58 372.46 210.32 372.17 211.21 371.72 212.09 371.43 212.84 370.98 213.72 370.54 214.46 370.09 215.21 369.65 216.09 369.2 216.83 368.76 217.57 368.17 218.31 367.58 218.9 367.14 219.79 366.54 220.38 365.95 221.12 365.36 221.71 364.76 222.45 364.17 223.04 363.44 223.64 362.85 224.23 362.11 224.82 361.37 225.41 360.62 226 359.88 226.44 359.15 227.04 358.56 227.48 357.67 228.07 356.93 228.52 356.19 228.96 355.3 229.4 354.41 229.7 353.67 230.14 352.94 230.59 352.05 230.88 351.16 231.18 350.27 231.47 349.38 231.77 348.5 232.07 347.61 232.36 346.72 232.51 345.83 232.8 344.95 232.95 343.91 233.1 343.03 233.25 342.14 233.4 341.25 233.4 340.21 233.54 339.33 233.54 338.29 233.54 337.26 233.54 336.37 233.54 335.33 233.4 334.45 233.4 333.41 233.25 332.38 233.1 331.49 232.95 330.6 232.8 329.71 232.51 328.68 232.36 327.79 232.07 326.9 231.77 326.02 231.47 325.13 231.18 324.24 230.88 323.35 230.59 322.47 230.14 321.73 229.7 320.84 229.4 319.95 228.96 319.21 228.52 318.32 228.07 317.59 227.48 316.85 227.04 316.11 226.44 315.37 226 314.62 225.41 313.89 224.82 313.15 224.23 312.41 223.64 311.81 223.04 311.08 222.45 310.49 221.71 309.89 221.12 309.15 220.38 308.56 219.79 307.97 218.9 307.38 218.31 306.79 217.57 306.34 216.83 305.9 216.09 305.31 215.21 304.87 214.46 304.42 213.72 303.98 212.84 303.53 212.09 303.09 211.21 302.64 210.32 302.35 209.58 302.05 208.69 301.61 207.81 301.31 206.92 301.02 205.88 300.72 205.14 300.57 204.11 300.28 203.37 300.13 202.33 299.99 201.44 299.84 200.41 299.69 199.52 299.69 198.48 299.54 197.6 299.39 196.71 299.39 195.68 299.39 195.68 299.24 195.68 298.95 195.68 298.65 195.68 298.5 195.68 298.21 195.68 297.91 195.68 297.62 195.68 297.32 195.68 297.03 195.68 296.73 195.68 296.58 195.68 296.28 195.68 296.14 195.68 295.99 195.68 295.55 195.68 295.4 195.68 295.11 195.68 294.81 195.68 294.51 195.68 294.21 195.68 293.92 195.68 293.77 195.68 293.62"/><polygon id="Fill-57" class="cls-11" points="170.97 302.06 158.84 318.03 154.4 341.1 166.23 369.2 195.68 378.97 195.68 370.39 194.78 370.24 193.9 370.24 193.01 370.24 192.27 370.09 191.38 369.94 190.64 369.94 189.76 369.65 189.02 369.65 188.28 369.5 187.39 369.35 186.51 369.06 185.91 368.76 185.02 368.61 184.28 368.32 183.55 368.02 182.8 367.73 182.06 367.43 181.32 367.13 180.58 366.69 179.85 366.25 179.25 365.8 178.51 365.51 177.78 365.06 177.18 364.77 176.59 364.18 175.85 363.73 175.26 363.29 174.67 362.85 174.08 362.25 173.48 361.66 172.89 361.22 172.44 360.63 171.85 360.03 171.26 359.44 170.82 358.85 170.23 358.26 169.78 357.67 169.19 357.07 168.9 356.48 168.31 355.74 167.86 355.01 167.42 354.42 166.98 353.67 166.68 352.93 166.23 352.34 165.94 351.6 165.64 350.86 165.35 350.13 164.9 349.38 164.76 348.64 164.46 347.91 164.16 347.17 164.01 346.28 163.72 345.54 163.57 344.8 163.42 343.91 163.28 343.18 163.13 342.28 162.98 341.4 162.84 340.66 162.84 339.77 162.68 339.03 162.68 338.14 162.68 337.26 162.68 336.52 162.68 335.63 162.84 334.74 162.84 333.86 162.98 332.97 163.13 332.23 163.28 331.49 163.42 330.6 163.57 329.86 163.72 328.97 164.01 328.24 164.16 327.5 164.46 326.61 164.76 326.01 164.9 325.13 165.35 324.39 165.64 323.65 165.94 322.91 166.23 322.17 166.68 321.58 166.98 320.84 167.42 320.1 167.86 319.51 168.31 318.91 168.9 318.18 169.19 317.58 169.78 316.85 170.23 316.25 170.82 315.66 171.26 315.07 171.85 314.47 172.44 313.89 172.89 313.44 173.48 312.85 174.08 312.26 174.67 311.81 175.26 311.23 175.85 310.78 176.59 310.33 177.18 309.89 177.78 309.45 178.51 309 179.25 308.57 179.85 308.27 180.58 307.82 181.32 307.52 182.06 307.08 182.8 306.79 183.55 306.64 184.28 306.2 185.02 305.9 185.91 305.75 186.51 305.46 187.39 305.31 188.28 305.01 189.02 304.86 189.76 304.72 190.64 304.57 191.38 304.57 192.27 304.42 193.01 304.42 193.9 304.27 194.78 304.27 195.68 304.27 195.68 295.25 170.97 302.06"/><polygon id="Stroke-58" class="cls-12" points="195.68 370.39 195.68 378.97 166.24 369.2 154.4 341.1 158.84 318.03 170.97 302.05 195.68 295.25 195.68 304.27 194.79 304.27 193.9 304.27 193.01 304.42 192.27 304.42 191.38 304.57 190.65 304.57 189.76 304.72 189.02 304.87 188.28 305.01 187.39 305.31 186.5 305.46 185.91 305.75 185.02 305.9 184.28 306.19 183.55 306.64 182.81 306.79 182.07 307.08 181.32 307.52 180.59 307.82 179.85 308.27 179.25 308.56 178.51 309.01 177.78 309.45 177.18 309.89 176.59 310.33 175.85 310.78 175.26 311.22 174.67 311.81 174.07 312.26 173.48 312.85 172.89 313.44 172.45 313.89 171.85 314.48 171.26 315.07 170.82 315.66 170.23 316.25 169.78 316.85 169.19 317.59 168.9 318.18 168.31 318.91 167.86 319.51 167.42 320.1 166.97 320.84 166.68 321.58 166.24 322.17 165.94 322.91 165.64 323.65 165.35 324.39 164.9 325.13 164.75 326.02 164.46 326.61 164.17 327.5 164.01 328.23 163.72 328.97 163.57 329.86 163.42 330.6 163.28 331.49 163.13 332.23 162.98 332.97 162.83 333.85 162.83 334.74 162.68 335.63 162.68 336.52 162.68 337.25 162.68 338.14 162.68 339.03 162.83 339.77 162.83 340.66 162.98 341.4 163.13 342.28 163.28 343.17 163.42 343.91 163.57 344.8 163.72 345.54 164.01 346.28 164.17 347.17 164.46 347.91 164.75 348.65 164.9 349.38 165.35 350.12 165.64 350.86 165.94 351.61 166.24 352.34 166.68 352.94 166.97 353.67 167.42 354.42 167.86 355 168.31 355.74 168.9 356.49 169.19 357.08 169.78 357.67 170.23 358.26 170.82 358.85 171.26 359.44 171.85 360.03 172.45 360.62 172.89 361.22 173.48 361.66 174.07 362.25 174.67 362.85 175.26 363.29 175.85 363.73 176.59 364.17 177.18 364.76 177.78 365.06 178.51 365.51 179.25 365.8 179.85 366.25 180.59 366.69 181.32 367.14 182.07 367.43 182.81 367.73 183.55 368.02 184.28 368.31 185.02 368.61 185.91 368.76 186.5 369.05 187.39 369.35 188.28 369.5 189.02 369.65 189.76 369.65 190.65 369.94 191.38 369.94 192.27 370.09 193.01 370.24 193.9 370.24 194.79 370.24 195.68 370.39"/><polygon id="Fill-59" class="cls-9" points="140.05 293.62 168.16 299.24 140.2 304.71 159.13 310.04 140.2 315.51 155.58 320.39 140.2 325.72 153.07 331.04 140.2 336.23 152.33 341.99 140.34 347.76 156.18 353.23 140.2 358.85 161.95 364.18 140.2 369.5 171.42 374.68 140.05 381.04 195.68 381.04 195.68 375.27 194.64 375.12 193.75 375.12 192.72 375.12 191.82 374.97 190.79 374.83 189.9 374.83 189.02 374.53 188.13 374.38 187.09 374.24 186.21 373.94 185.32 373.79 184.43 373.49 183.55 373.2 182.66 372.9 181.92 372.46 181.03 372.16 180.14 371.72 179.25 371.43 178.51 370.98 177.63 370.54 176.88 370.09 176 369.65 175.41 369.2 174.52 368.61 173.78 368.02 173.04 367.58 172.3 366.99 171.56 366.39 170.97 365.8 170.23 365.21 169.64 364.62 168.9 364.03 168.31 363.29 167.71 362.7 167.12 361.96 166.53 361.22 165.94 360.62 165.35 359.88 164.75 359.15 164.31 358.41 163.72 357.67 163.28 356.78 162.83 356.04 162.39 355.3 161.95 354.42 161.65 353.68 161.2 352.78 160.91 352.05 160.47 351.16 160.17 350.27 159.87 349.38 159.58 348.5 159.28 347.61 158.98 346.72 158.84 345.83 158.69 344.95 158.39 343.91 158.25 343.03 158.1 341.99 158.1 341.25 157.95 340.21 157.95 339.33 157.95 338.29 157.95 337.26 157.95 336.37 157.95 335.33 157.95 334.45 158.1 333.41 158.1 332.52 158.25 331.49 158.39 330.6 158.69 329.71 158.84 328.68 158.98 327.79 159.28 326.9 159.58 326.02 159.87 325.13 160.17 324.24 160.47 323.5 160.91 322.62 161.2 321.72 161.65 320.84 161.95 319.95 162.39 319.21 162.83 318.47 163.28 317.58 163.72 316.84 164.31 316.11 164.75 315.37 165.35 314.62 165.94 313.88 166.53 313.29 166.98 312.56 167.71 311.82 168.31 311.08 168.9 310.63 169.49 309.89 170.23 309.3 170.97 308.71 171.56 308.12 172.3 307.53 173.04 306.94 173.78 306.34 174.52 305.9 175.26 305.31 176 304.87 176.88 304.42 177.63 303.98 178.37 303.53 179.25 303.09 179.99 302.79 181.03 302.5 181.77 302.06 182.66 301.76 183.55 301.32 184.43 301.02 185.32 300.72 186.21 300.57 187.09 300.28 188.13 300.13 188.87 299.98 189.9 299.83 190.79 299.69 191.82 299.69 192.72 299.54 193.75 299.39 194.64 299.39 195.68 299.39 195.68 293.62 140.05 293.62"/><polygon id="Stroke-60" class="cls-10" points="195.68 293.62 195.68 299.39 194.64 299.39 193.75 299.39 192.71 299.54 191.83 299.69 190.79 299.69 189.91 299.84 188.87 299.99 188.13 300.13 187.09 300.28 186.21 300.57 185.32 300.72 184.43 301.02 183.55 301.31 182.65 301.76 181.77 302.05 181.03 302.5 179.99 302.79 179.25 303.09 178.37 303.53 177.63 303.98 176.88 304.42 176 304.87 175.26 305.31 174.52 305.9 173.78 306.34 173.04 306.94 172.3 307.53 171.56 308.12 170.97 308.71 170.23 309.3 169.49 309.89 168.9 310.63 168.31 311.08 167.71 311.81 166.97 312.56 166.53 313.3 165.94 313.89 165.35 314.62 164.75 315.37 164.31 316.11 163.72 316.85 163.28 317.59 162.83 318.47 162.39 319.21 161.95 319.95 161.65 320.84 161.21 321.73 160.91 322.61 160.47 323.5 160.17 324.24 159.87 325.13 159.58 326.02 159.29 326.9 158.98 327.79 158.84 328.68 158.69 329.71 158.39 330.6 158.25 331.49 158.1 332.52 158.1 333.41 157.95 334.45 157.95 335.33 157.95 336.37 157.95 337.26 157.95 338.29 157.95 339.33 157.95 340.21 158.1 341.25 158.1 341.99 158.25 343.03 158.39 343.91 158.69 344.95 158.84 345.83 158.98 346.72 159.29 347.61 159.58 348.5 159.87 349.38 160.17 350.27 160.47 351.16 160.91 352.05 161.21 352.79 161.65 353.67 161.95 354.41 162.39 355.3 162.83 356.04 163.28 356.78 163.72 357.67 164.31 358.41 164.75 359.15 165.35 359.88 165.94 360.62 166.53 361.22 167.12 361.96 167.71 362.7 168.31 363.29 168.9 364.03 169.64 364.62 170.23 365.21 170.97 365.8 171.56 366.39 172.3 366.99 173.04 367.58 173.78 368.02 174.52 368.61 175.41 369.2 176 369.65 176.88 370.09 177.63 370.54 178.51 370.98 179.25 371.43 180.14 371.72 181.03 372.17 181.91 372.46 182.65 372.9 183.55 373.2 184.43 373.49 185.32 373.79 186.21 373.94 187.09 374.23 188.13 374.38 189.02 374.53 189.91 374.82 190.79 374.82 191.83 374.97 192.71 375.12 193.75 375.12 194.64 375.12 195.68 375.27 195.68 381.04 140.05 381.04 171.41 374.68 140.2 369.5 161.95 364.17 140.2 358.85 156.18 353.23 140.35 347.76 152.33 341.99 140.2 336.23 153.07 331.05 140.2 325.72 155.58 320.39 140.2 315.51 159.13 310.04 140.2 304.72 168.16 299.24 140.05 293.62 195.68 293.62"/><g id="Vision-Awards" class="cls-13"><g class="cls-13"><path d="M207.22,461l-13.31-34.36h4.92l8.93,25q1.08,3,1.8,5.63.8-2.81,1.85-5.62l9.28-25h4.64L211.89,461Z"/><path d="M228,431.47v-4.85h4.22v4.85ZM228,461V436.09h4.22V461Z"/><path d="M237,453.55l4.17-.66a5.83,5.83,0,0,0,2,3.84,6.82,6.82,0,0,0,4.49,1.34,6.59,6.59,0,0,0,4.31-1.18,3.54,3.54,0,0,0,1.41-2.78,2.56,2.56,0,0,0-1.24-2.25,18.3,18.3,0,0,0-4.31-1.43,39.35,39.35,0,0,1-6.43-2,6.14,6.14,0,0,1-3.64-5.71,6.41,6.41,0,0,1,.76-3.08,6.83,6.83,0,0,1,2.07-2.36,8.7,8.7,0,0,1,2.68-1.23,12.76,12.76,0,0,1,3.64-.5,14.41,14.41,0,0,1,5.14.84,7,7,0,0,1,3.27,2.29,8.93,8.93,0,0,1,1.45,3.86l-4.13.56a4.51,4.51,0,0,0-1.63-3,6,6,0,0,0-3.81-1.08,6.9,6.9,0,0,0-4.15,1,2.8,2.8,0,0,0-1.24,2.25,2.33,2.33,0,0,0,.52,1.48,3.72,3.72,0,0,0,1.62,1.13q.63.23,3.73,1.08a51.88,51.88,0,0,1,6.25,2,6.34,6.34,0,0,1,2.78,2.21,6.18,6.18,0,0,1,1,3.61,7.08,7.08,0,0,1-1.23,4,8,8,0,0,1-3.55,2.88,12.92,12.92,0,0,1-5.25,1q-4.85,0-7.39-2A9.37,9.37,0,0,1,237,453.55Z"/><path d="M262.7,431.47v-4.85h4.22v4.85Zm0,29.51V436.09h4.22V461Z"/><path d="M271.77,448.54q0-6.91,3.84-10.24a11.58,11.58,0,0,1,7.83-2.77,11.17,11.17,0,0,1,8.39,3.36q3.26,3.36,3.26,9.29a16.47,16.47,0,0,1-1.44,7.56,10.2,10.2,0,0,1-4.2,4.28,12.21,12.21,0,0,1-6,1.52,11.19,11.19,0,0,1-8.45-3.35Q271.77,454.84,271.77,448.54Zm4.34,0q0,4.78,2.09,7.16a6.95,6.95,0,0,0,10.48,0q2.09-2.39,2.09-7.29,0-4.62-2.1-7a7,7,0,0,0-10.46,0Q276.11,443.75,276.11,448.54Z"/><path d="M300,461V436.09h3.8v3.54a9,9,0,0,1,7.92-4.1,10.39,10.39,0,0,1,4.14.81,6.51,6.51,0,0,1,2.82,2.12,8.14,8.14,0,0,1,1.31,3.12,24.16,24.16,0,0,1,.23,4.1V461H316V445.84a11.37,11.37,0,0,0-.49-3.86,4.06,4.06,0,0,0-1.75-2,5.55,5.55,0,0,0-2.94-.76,6.84,6.84,0,0,0-4.65,1.71q-2,1.71-2,6.49V461Z"/><path d="M334.18,461l13.2-34.36h4.9L366.34,461h-5.18l-4-10.41H342.79L339,461Zm9.91-14.11h11.65l-3.59-9.52q-1.64-4.34-2.44-7.12a43.8,43.8,0,0,1-1.85,6.56Z"/><path d="M373.16,461l-7.62-24.89h4.36l4,14.37,1.48,5.34q.09-.4,1.29-5.13l4-14.58h4.34l3.73,14.44,1.24,4.76,1.43-4.8,4.27-14.39h4.1L391.91,461h-4.38l-4-14.91-1-4.24-5,19.15Z"/><path d="M419.47,457.91a15.71,15.71,0,0,1-4.51,2.81,13,13,0,0,1-4.65.82,9,9,0,0,1-6.3-2,6.61,6.61,0,0,1-2.2-5.12,6.81,6.81,0,0,1,.83-3.34,6.89,6.89,0,0,1,2.18-2.43,10.25,10.25,0,0,1,3-1.38,30.15,30.15,0,0,1,3.75-.63,38.56,38.56,0,0,0,7.52-1.45q0-.87,0-1.1a4.66,4.66,0,0,0-1.2-3.63,7.06,7.06,0,0,0-4.8-1.43,7.45,7.45,0,0,0-4.39,1,6.37,6.37,0,0,0-2.1,3.69l-4.12-.56a10.22,10.22,0,0,1,1.85-4.28,8.12,8.12,0,0,1,3.73-2.51,16.62,16.62,0,0,1,5.65-.88,15,15,0,0,1,5.18.75,6.82,6.82,0,0,1,2.93,1.89,6.64,6.64,0,0,1,1.31,2.87,23.75,23.75,0,0,1,.21,3.89v5.63a59.7,59.7,0,0,0,.27,7.44,9.39,9.39,0,0,0,1.07,3h-4.41A8.94,8.94,0,0,1,419.47,457.91Zm-.35-9.42a31,31,0,0,1-6.89,1.59,15.94,15.94,0,0,0-3.68.84,3.67,3.67,0,0,0-1.66,1.37,3.73,3.73,0,0,0,.69,4.82,5.5,5.5,0,0,0,3.74,1.13,8.7,8.7,0,0,0,4.34-1.07,6.57,6.57,0,0,0,2.79-2.92,10.19,10.19,0,0,0,.68-4.22Z"/><path d="M429.88,461V436.09h3.8v3.77a10.3,10.3,0,0,1,2.68-3.49,4.68,4.68,0,0,1,2.71-.84,8.23,8.23,0,0,1,4.34,1.36L442,440.8a6,6,0,0,0-3.09-.91,4,4,0,0,0-2.48.83A4.51,4.51,0,0,0,434.8,443a16.43,16.43,0,0,0-.7,4.92v13Z"/><path d="M462.06,461v-3.14a7.74,7.74,0,0,1-7,3.7,9.76,9.76,0,0,1-5.47-1.64,10.79,10.79,0,0,1-3.87-4.58,15.84,15.84,0,0,1-1.37-6.76,17.7,17.7,0,0,1,1.24-6.76,9.8,9.8,0,0,1,3.73-4.65,10,10,0,0,1,5.55-1.62,8.3,8.3,0,0,1,6.87,3.42V426.62H466V461Zm-13.34-12.42q0,4.78,2,7.15a6.08,6.08,0,0,0,4.76,2.37,6,6,0,0,0,4.7-2.26q1.93-2.26,1.93-6.9,0-5.11-2-7.5a6.06,6.06,0,0,0-4.85-2.39,5.85,5.85,0,0,0-4.7,2.3Q448.72,443.61,448.72,448.56Z"/><path d="M470.92,453.55l4.17-.66a5.83,5.83,0,0,0,2,3.84,6.82,6.82,0,0,0,4.49,1.34,6.59,6.59,0,0,0,4.31-1.18,3.54,3.54,0,0,0,1.41-2.78,2.56,2.56,0,0,0-1.24-2.25,18.3,18.3,0,0,0-4.31-1.43,39.35,39.35,0,0,1-6.43-2,6.14,6.14,0,0,1-3.64-5.71,6.41,6.41,0,0,1,.76-3.08,6.83,6.83,0,0,1,2.07-2.36,8.7,8.7,0,0,1,2.68-1.23,12.76,12.76,0,0,1,3.64-.5,14.41,14.41,0,0,1,5.14.84,7,7,0,0,1,3.27,2.29,8.93,8.93,0,0,1,1.45,3.86l-4.12.56a4.51,4.51,0,0,0-1.63-3,6,6,0,0,0-3.81-1.08,6.9,6.9,0,0,0-4.15,1,2.8,2.8,0,0,0-1.24,2.25,2.33,2.33,0,0,0,.52,1.48,3.72,3.72,0,0,0,1.62,1.13q.63.23,3.73,1.08a51.88,51.88,0,0,1,6.25,2,6.34,6.34,0,0,1,2.78,2.21,6.18,6.18,0,0,1,1,3.61,7.08,7.08,0,0,1-1.23,4,8,8,0,0,1-3.55,2.88,12.92,12.92,0,0,1-5.25,1q-4.85,0-7.39-2A9.37,9.37,0,0,1,470.92,453.55Z"/></g></g></g></g></g></g></svg>